<?xml version="1.0" encoding="UTF-8"?>
<!DOCTYPE svg PUBLIC "-//W3C//DTD SVG 1.1//EN"
    "http://www.w3.org/Graphics/SVG/1.1/DTD/svg11.dtd"><svg xmlns="http://www.w3.org/2000/svg" viewBox="0.0 0.0 300.0 299.0650197777448" height="299.0650" font-size="1" stroke-opacity="1" width="300.0000" xmlns:xlink="http://www.w3.org/1999/xlink" stroke="rgb(0,0,0)" version="1.1"><defs></defs><g stroke-linecap="butt" fill="rgb(0,0,0)" stroke-miterlimit="10.0" stroke-width="1.1981285803006183" fill-opacity="0.0" stroke-opacity="1.0" stroke-linejoin="miter" stroke="rgb(0,0,0)"><path d="M -0.0000,265.8356 h 288.5814 "/></g><g stroke-linecap="butt" fill="rgb(0,0,0)" stroke-miterlimit="10.0" stroke-width="0.0" fill-opacity="1.0" stroke-opacity="1.0" stroke-linejoin="miter" stroke="rgb(0,0,0)"></g><g stroke-linecap="butt" fill="rgb(0,0,0)" stroke-miterlimit="10.0" stroke-width="0.0" fill-opacity="1.0" stroke-opacity="1.0" stroke-linejoin="miter" stroke="rgb(0,0,0)"></g><g stroke-linecap="butt" fill="rgb(0,0,0)" stroke-miterlimit="10.0" stroke-width="0.0" fill-opacity="1.0" stroke-opacity="1.0" stroke-linejoin="miter" stroke="rgb(0,0,0)"><path d="M 299.0650,265.8356 l -12.2635,-3.9847 l 2.0949,3.9847 l -2.0949,3.9847 Z"/></g><g stroke-linecap="butt" fill="rgb(0,0,0)" stroke-miterlimit="10.0" stroke-width="0.0" fill-opacity="1.0" stroke-opacity="1.0" stroke-linejoin="miter" stroke="rgb(0,0,0)"><path d="M 288.8963,265.8356 h -0.3149 v -0.5991 l 0.3149,0.5991 h -0.3149 v 0.5991 Z"/></g><g stroke-linecap="butt" fill="rgb(0,0,0)" stroke-miterlimit="10.0" stroke-width="1.1981285803006183" fill-opacity="0.0" stroke-opacity="1.0" stroke-linejoin="miter" stroke="rgb(0,0,0)"><path d="M 33.2294,299.0650 l 0.0000,-288.5814 "/></g><g stroke-linecap="butt" fill="rgb(0,0,0)" stroke-miterlimit="10.0" stroke-width="0.0" fill-opacity="1.0" stroke-opacity="1.0" stroke-linejoin="miter" stroke="rgb(0,0,0)"></g><g stroke-linecap="butt" fill="rgb(0,0,0)" stroke-miterlimit="10.0" stroke-width="0.0" fill-opacity="1.0" stroke-opacity="1.0" stroke-linejoin="miter" stroke="rgb(0,0,0)"></g><g stroke-linecap="butt" fill="rgb(0,0,0)" stroke-miterlimit="10.0" stroke-width="0.0" fill-opacity="1.0" stroke-opacity="1.0" stroke-linejoin="miter" stroke="rgb(0,0,0)"><path d="M 33.2294,0.0000 l -3.9847,12.2635 l 3.9847,-2.0949 l 3.9847,2.0949 Z"/></g><g stroke-linecap="butt" fill="rgb(0,0,0)" stroke-miterlimit="10.0" stroke-width="0.0" fill-opacity="1.0" stroke-opacity="1.0" stroke-linejoin="miter" stroke="rgb(0,0,0)"><path d="M 33.2294,10.1687 l -0.0000,0.3149 l -0.5991,-0.0000 l 0.5991,-0.3149 l -0.0000,0.3149 l 0.5991,0.0000 Z"/></g><g stroke-linecap="butt" fill="rgb(255,0,0)" stroke-miterlimit="10.0" stroke-width="1.1981285803006183" fill-opacity="1.0" stroke-opacity="1.0" stroke-linejoin="miter" stroke="rgb(0,0,0)"><path d="M 190.9285,264.2556 c 0.0000,-1.8352 -1.4877,-3.3229 -3.3229 -3.3229c -1.8352,-0.0000 -3.3229,1.4877 -3.3229 3.3229c -0.0000,1.8352 1.4877,3.3229 3.3229 3.3229c 1.8352,0.0000 3.3229,-1.4877 3.3229 -3.3229Z"/></g><g stroke-linecap="butt" fill="rgb(255,0,0)" stroke-miterlimit="10.0" stroke-width="1.1981285803006183" fill-opacity="1.0" stroke-opacity="1.0" stroke-linejoin="miter" stroke="rgb(0,0,0)"><path d="M 214.7839,264.4040 c 0.0000,-1.8352 -1.4877,-3.3229 -3.3229 -3.3229c -1.8352,-0.0000 -3.3229,1.4877 -3.3229 3.3229c -0.0000,1.8352 1.4877,3.3229 3.3229 3.3229c 1.8352,0.0000 3.3229,-1.4877 3.3229 -3.3229Z"/></g><g stroke-linecap="butt" fill="rgb(255,0,0)" stroke-miterlimit="10.0" stroke-width="1.1981285803006183" fill-opacity="1.0" stroke-opacity="1.0" stroke-linejoin="miter" stroke="rgb(0,0,0)"><path d="M 165.7103,263.5178 c 0.0000,-1.8352 -1.4877,-3.3229 -3.3229 -3.3229c -1.8352,-0.0000 -3.3229,1.4877 -3.3229 3.3229c -0.0000,1.8352 1.4877,3.3229 3.3229 3.3229c 1.8352,0.0000 3.3229,-1.4877 3.3229 -3.3229Z"/></g><g stroke-linecap="butt" fill="rgb(255,0,0)" stroke-miterlimit="10.0" stroke-width="1.1981285803006183" fill-opacity="1.0" stroke-opacity="1.0" stroke-linejoin="miter" stroke="rgb(0,0,0)"><path d="M 287.7771,248.4382 c 0.0000,-1.8352 -1.4877,-3.3229 -3.3229 -3.3229c -1.8352,-0.0000 -3.3229,1.4877 -3.3229 3.3229c -0.0000,1.8352 1.4877,3.3229 3.3229 3.3229c 1.8352,0.0000 3.3229,-1.4877 3.3229 -3.3229Z"/></g><g stroke-linecap="butt" fill="rgb(255,0,0)" stroke-miterlimit="10.0" stroke-width="1.1981285803006183" fill-opacity="1.0" stroke-opacity="1.0" stroke-linejoin="miter" stroke="rgb(0,0,0)"><path d="M 76.9094,258.1130 c 0.0000,-1.8352 -1.4877,-3.3229 -3.3229 -3.3229c -1.8352,-0.0000 -3.3229,1.4877 -3.3229 3.3229c -0.0000,1.8352 1.4877,3.3229 3.3229 3.3229c 1.8352,0.0000 3.3229,-1.4877 3.3229 -3.3229Z"/></g><g stroke-linecap="butt" fill="rgb(255,0,0)" stroke-miterlimit="10.0" stroke-width="1.1981285803006183" fill-opacity="1.0" stroke-opacity="1.0" stroke-linejoin="miter" stroke="rgb(0,0,0)"><path d="M 52.5988,256.9865 c 0.0000,-1.8352 -1.4877,-3.3229 -3.3229 -3.3229c -1.8352,-0.0000 -3.3229,1.4877 -3.3229 3.3229c -0.0000,1.8352 1.4877,3.3229 3.3229 3.3229c 1.8352,0.0000 3.3229,-1.4877 3.3229 -3.3229Z"/></g><g stroke-linecap="butt" fill="rgb(255,0,0)" stroke-miterlimit="10.0" stroke-width="1.1981285803006183" fill-opacity="1.0" stroke-opacity="1.0" stroke-linejoin="miter" stroke="rgb(0,0,0)"><path d="M 44.6615,172.8795 c 0.0000,-1.8352 -1.4877,-3.3229 -3.3229 -3.3229c -1.8352,-0.0000 -3.3229,1.4877 -3.3229 3.3229c -0.0000,1.8352 1.4877,3.3229 3.3229 3.3229c 1.8352,0.0000 3.3229,-1.4877 3.3229 -3.3229Z"/></g><g stroke-linecap="butt" fill="rgb(255,0,0)" stroke-miterlimit="10.0" stroke-width="1.1981285803006183" fill-opacity="1.0" stroke-opacity="1.0" stroke-linejoin="miter" stroke="rgb(0,0,0)"><path d="M 294.5753,36.3489 c 0.0000,-1.8352 -1.4877,-3.3229 -3.3229 -3.3229c -1.8352,-0.0000 -3.3229,1.4877 -3.3229 3.3229c -0.0000,1.8352 1.4877,3.3229 3.3229 3.3229c 1.8352,0.0000 3.3229,-1.4877 3.3229 -3.3229Z"/></g><g stroke-linecap="butt" fill="rgb(255,0,0)" stroke-miterlimit="10.0" stroke-width="1.1981285803006183" fill-opacity="1.0" stroke-opacity="1.0" stroke-linejoin="miter" stroke="rgb(0,0,0)"><path d="M 253.1383,3.3320 c 0.0000,-1.8352 -1.4877,-3.3229 -3.3229 -3.3229c -1.8352,-0.0000 -3.3229,1.4877 -3.3229 3.3229c -0.0000,1.8352 1.4877,3.3229 3.3229 3.3229c 1.8352,0.0000 3.3229,-1.4877 3.3229 -3.3229Z"/></g><g stroke-linecap="butt" fill="rgb(255,0,0)" stroke-miterlimit="10.0" stroke-width="1.1981285803006183" fill-opacity="1.0" stroke-opacity="1.0" stroke-linejoin="miter" stroke="rgb(0,0,0)"><path d="M 50.8053,5.1785 c 0.0000,-1.8352 -1.4877,-3.3229 -3.3229 -3.3229c -1.8352,-0.0000 -3.3229,1.4877 -3.3229 3.3229c -0.0000,1.8352 1.4877,3.3229 3.3229 3.3229c 1.8352,0.0000 3.3229,-1.4877 3.3229 -3.3229Z"/></g><g stroke-linecap="butt" fill="rgb(255,0,0)" stroke-miterlimit="10.0" stroke-width="1.1981285803006183" fill-opacity="1.0" stroke-opacity="1.0" stroke-linejoin="miter" stroke="rgb(0,0,0)"><path d="M 300.0000,115.4917 c 0.0000,-1.8352 -1.4877,-3.3229 -3.3229 -3.3229c -1.8352,-0.0000 -3.3229,1.4877 -3.3229 3.3229c -0.0000,1.8352 1.4877,3.3229 3.3229 3.3229c 1.8352,0.0000 3.3229,-1.4877 3.3229 -3.3229Z"/></g><g stroke-linecap="butt" fill="rgb(255,0,0)" stroke-miterlimit="10.0" stroke-width="1.1981285803006183" fill-opacity="1.0" stroke-opacity="1.0" stroke-linejoin="miter" stroke="rgb(0,0,0)"><path d="M 39.8025,26.4604 c 0.0000,-1.8352 -1.4877,-3.3229 -3.3229 -3.3229c -1.8352,-0.0000 -3.3229,1.4877 -3.3229 3.3229c -0.0000,1.8352 1.4877,3.3229 3.3229 3.3229c 1.8352,0.0000 3.3229,-1.4877 3.3229 -3.3229Z"/></g><g stroke-linecap="butt" fill="rgb(0,0,255)" stroke-miterlimit="10.0" stroke-width="1.1981285803006183" fill-opacity="1.0" stroke-opacity="1.0" stroke-linejoin="miter" stroke="rgb(0,0,0)"><path d="M 224.9676,242.4171 c 0.0000,-1.8352 -1.4877,-3.3229 -3.3229 -3.3229c -1.8352,-0.0000 -3.3229,1.4877 -3.3229 3.3229c -0.0000,1.8352 1.4877,3.3229 3.3229 3.3229c 1.8352,0.0000 3.3229,-1.4877 3.3229 -3.3229Z"/></g><g stroke-linecap="butt" fill="rgb(0,0,255)" stroke-miterlimit="10.0" stroke-width="1.1981285803006183" fill-opacity="1.0" stroke-opacity="1.0" stroke-linejoin="miter" stroke="rgb(0,0,0)"><path d="M 241.0798,132.4631 c 0.0000,-1.8352 -1.4877,-3.3229 -3.3229 -3.3229c -1.8352,-0.0000 -3.3229,1.4877 -3.3229 3.3229c -0.0000,1.8352 1.4877,3.3229 3.3229 3.3229c 1.8352,0.0000 3.3229,-1.4877 3.3229 -3.3229Z"/></g><g stroke-linecap="butt" fill="rgb(0,0,255)" stroke-miterlimit="10.0" stroke-width="1.1981285803006183" fill-opacity="1.0" stroke-opacity="1.0" stroke-linejoin="miter" stroke="rgb(0,0,0)"><path d="M 81.4973,152.1488 c 0.0000,-1.8352 -1.4877,-3.3229 -3.3229 -3.3229c -1.8352,-0.0000 -3.3229,1.4877 -3.3229 3.3229c -0.0000,1.8352 1.4877,3.3229 3.3229 3.3229c 1.8352,0.0000 3.3229,-1.4877 3.3229 -3.3229Z"/></g><g stroke-linecap="butt" fill="rgb(0,0,255)" stroke-miterlimit="10.0" stroke-width="1.1981285803006183" fill-opacity="1.0" stroke-opacity="1.0" stroke-linejoin="miter" stroke="rgb(0,0,0)"><path d="M 50.4710,76.7195 c 0.0000,-1.8352 -1.4877,-3.3229 -3.3229 -3.3229c -1.8352,-0.0000 -3.3229,1.4877 -3.3229 3.3229c -0.0000,1.8352 1.4877,3.3229 3.3229 3.3229c 1.8352,0.0000 3.3229,-1.4877 3.3229 -3.3229Z"/></g><g stroke-linecap="butt" fill="rgb(0,0,255)" stroke-miterlimit="10.0" stroke-width="1.1981285803006183" fill-opacity="1.0" stroke-opacity="1.0" stroke-linejoin="miter" stroke="rgb(0,0,0)"><path d="M 142.3353,6.2029 c 0.0000,-1.8352 -1.4877,-3.3229 -3.3229 -3.3229c -1.8352,-0.0000 -3.3229,1.4877 -3.3229 3.3229c -0.0000,1.8352 1.4877,3.3229 3.3229 3.3229c 1.8352,0.0000 3.3229,-1.4877 3.3229 -3.3229Z"/></g><g stroke-linecap="butt" fill="rgb(0,0,255)" stroke-miterlimit="10.0" stroke-width="1.1981285803006183" fill-opacity="1.0" stroke-opacity="1.0" stroke-linejoin="miter" stroke="rgb(0,0,0)"><path d="M 230.3219,89.2933 c 0.0000,-1.8352 -1.4877,-3.3229 -3.3229 -3.3229c -1.8352,-0.0000 -3.3229,1.4877 -3.3229 3.3229c -0.0000,1.8352 1.4877,3.3229 3.3229 3.3229c 1.8352,0.0000 3.3229,-1.4877 3.3229 -3.3229Z"/></g><g stroke-linecap="butt" fill="rgb(0,0,255)" stroke-miterlimit="10.0" stroke-width="1.1981285803006183" fill-opacity="1.0" stroke-opacity="1.0" stroke-linejoin="miter" stroke="rgb(0,0,0)"><path d="M 170.3574,104.9590 c 0.0000,-1.8352 -1.4877,-3.3229 -3.3229 -3.3229c -1.8352,-0.0000 -3.3229,1.4877 -3.3229 3.3229c -0.0000,1.8352 1.4877,3.3229 3.3229 3.3229c 1.8352,0.0000 3.3229,-1.4877 3.3229 -3.3229Z"/></g><g stroke-linecap="butt" fill="rgb(0,0,255)" stroke-miterlimit="10.0" stroke-width="1.1981285803006183" fill-opacity="1.0" stroke-opacity="1.0" stroke-linejoin="miter" stroke="rgb(0,0,0)"><path d="M 187.0047,210.6575 c 0.0000,-1.8352 -1.4877,-3.3229 -3.3229 -3.3229c -1.8352,-0.0000 -3.3229,1.4877 -3.3229 3.3229c -0.0000,1.8352 1.4877,3.3229 3.3229 3.3229c 1.8352,0.0000 3.3229,-1.4877 3.3229 -3.3229Z"/></g><g stroke-linecap="butt" fill="rgb(0,0,255)" stroke-miterlimit="10.0" stroke-width="1.1981285803006183" fill-opacity="1.0" stroke-opacity="1.0" stroke-linejoin="miter" stroke="rgb(0,0,0)"><path d="M 107.3915,257.4600 c 0.0000,-1.8352 -1.4877,-3.3229 -3.3229 -3.3229c -1.8352,-0.0000 -3.3229,1.4877 -3.3229 3.3229c -0.0000,1.8352 1.4877,3.3229 3.3229 3.3229c 1.8352,0.0000 3.3229,-1.4877 3.3229 -3.3229Z"/></g><g stroke-linecap="butt" fill="rgb(0,0,255)" stroke-miterlimit="10.0" stroke-width="1.1981285803006183" fill-opacity="1.0" stroke-opacity="1.0" stroke-linejoin="miter" stroke="rgb(0,0,0)"><path d="M 249.2914,229.0685 c 0.0000,-1.8352 -1.4877,-3.3229 -3.3229 -3.3229c -1.8352,-0.0000 -3.3229,1.4877 -3.3229 3.3229c -0.0000,1.8352 1.4877,3.3229 3.3229 3.3229c 1.8352,0.0000 3.3229,-1.4877 3.3229 -3.3229Z"/></g><g stroke-linecap="butt" fill="rgb(0,0,255)" stroke-miterlimit="10.0" stroke-width="1.1981285803006183" fill-opacity="1.0" stroke-opacity="1.0" stroke-linejoin="miter" stroke="rgb(0,0,0)"><path d="M 45.9700,118.3655 c 0.0000,-1.8352 -1.4877,-3.3229 -3.3229 -3.3229c -1.8352,-0.0000 -3.3229,1.4877 -3.3229 3.3229c -0.0000,1.8352 1.4877,3.3229 3.3229 3.3229c 1.8352,0.0000 3.3229,-1.4877 3.3229 -3.3229Z"/></g><g stroke-linecap="butt" fill="rgb(0,0,255)" stroke-miterlimit="10.0" stroke-width="1.1981285803006183" fill-opacity="1.0" stroke-opacity="1.0" stroke-linejoin="miter" stroke="rgb(0,0,0)"><path d="M 239.6511,232.9922 c 0.0000,-1.8352 -1.4877,-3.3229 -3.3229 -3.3229c -1.8352,-0.0000 -3.3229,1.4877 -3.3229 3.3229c -0.0000,1.8352 1.4877,3.3229 3.3229 3.3229c 1.8352,0.0000 3.3229,-1.4877 3.3229 -3.3229Z"/></g><g stroke-linecap="butt" fill="rgb(0,0,255)" stroke-miterlimit="10.0" stroke-width="1.1981285803006183" fill-opacity="1.0" stroke-opacity="1.0" stroke-linejoin="miter" stroke="rgb(0,0,0)"><path d="M 63.7741,169.8333 c 0.0000,-1.8352 -1.4877,-3.3229 -3.3229 -3.3229c -1.8352,-0.0000 -3.3229,1.4877 -3.3229 3.3229c -0.0000,1.8352 1.4877,3.3229 3.3229 3.3229c 1.8352,0.0000 3.3229,-1.4877 3.3229 -3.3229Z"/></g><g stroke-linecap="butt" fill="rgb(0,0,255)" stroke-miterlimit="10.0" stroke-width="1.1981285803006183" fill-opacity="1.0" stroke-opacity="1.0" stroke-linejoin="miter" stroke="rgb(0,0,0)"><path d="M 239.6375,215.7189 c 0.0000,-1.8352 -1.4877,-3.3229 -3.3229 -3.3229c -1.8352,-0.0000 -3.3229,1.4877 -3.3229 3.3229c -0.0000,1.8352 1.4877,3.3229 3.3229 3.3229c 1.8352,0.0000 3.3229,-1.4877 3.3229 -3.3229Z"/></g><g stroke-linecap="butt" fill="rgb(0,0,255)" stroke-miterlimit="10.0" stroke-width="1.1981285803006183" fill-opacity="1.0" stroke-opacity="1.0" stroke-linejoin="miter" stroke="rgb(0,0,0)"><path d="M 266.9708,242.2004 c 0.0000,-1.8352 -1.4877,-3.3229 -3.3229 -3.3229c -1.8352,-0.0000 -3.3229,1.4877 -3.3229 3.3229c -0.0000,1.8352 1.4877,3.3229 3.3229 3.3229c 1.8352,0.0000 3.3229,-1.4877 3.3229 -3.3229Z"/></g><g stroke-linecap="butt" fill="rgb(0,0,255)" stroke-miterlimit="10.0" stroke-width="1.1981285803006183" fill-opacity="1.0" stroke-opacity="1.0" stroke-linejoin="miter" stroke="rgb(0,0,0)"><path d="M 113.1373,110.6727 c 0.0000,-1.8352 -1.4877,-3.3229 -3.3229 -3.3229c -1.8352,-0.0000 -3.3229,1.4877 -3.3229 3.3229c -0.0000,1.8352 1.4877,3.3229 3.3229 3.3229c 1.8352,0.0000 3.3229,-1.4877 3.3229 -3.3229Z"/></g><g stroke-linecap="butt" fill="rgb(0,0,255)" stroke-miterlimit="10.0" stroke-width="1.1981285803006183" fill-opacity="1.0" stroke-opacity="1.0" stroke-linejoin="miter" stroke="rgb(0,0,0)"><path d="M 253.0386,9.7649 c 0.0000,-1.8352 -1.4877,-3.3229 -3.3229 -3.3229c -1.8352,-0.0000 -3.3229,1.4877 -3.3229 3.3229c -0.0000,1.8352 1.4877,3.3229 3.3229 3.3229c 1.8352,0.0000 3.3229,-1.4877 3.3229 -3.3229Z"/></g><g stroke-linecap="butt" fill="rgb(0,0,255)" stroke-miterlimit="10.0" stroke-width="1.1981285803006183" fill-opacity="1.0" stroke-opacity="1.0" stroke-linejoin="miter" stroke="rgb(0,0,0)"><path d="M 48.2454,21.7062 c 0.0000,-1.8352 -1.4877,-3.3229 -3.3229 -3.3229c -1.8352,-0.0000 -3.3229,1.4877 -3.3229 3.3229c -0.0000,1.8352 1.4877,3.3229 3.3229 3.3229c 1.8352,0.0000 3.3229,-1.4877 3.3229 -3.3229Z"/></g><g stroke-linecap="butt" fill="rgb(0,0,255)" stroke-miterlimit="10.0" stroke-width="1.1981285803006183" fill-opacity="1.0" stroke-opacity="1.0" stroke-linejoin="miter" stroke="rgb(0,0,0)"><path d="M 60.0143,107.3715 c 0.0000,-1.8352 -1.4877,-3.3229 -3.3229 -3.3229c -1.8352,-0.0000 -3.3229,1.4877 -3.3229 3.3229c -0.0000,1.8352 1.4877,3.3229 3.3229 3.3229c 1.8352,0.0000 3.3229,-1.4877 3.3229 -3.3229Z"/></g><g stroke-linecap="butt" fill="rgb(0,0,255)" stroke-miterlimit="10.0" stroke-width="1.1981285803006183" fill-opacity="1.0" stroke-opacity="1.0" stroke-linejoin="miter" stroke="rgb(0,0,0)"><path d="M 120.4397,232.4234 c 0.0000,-1.8352 -1.4877,-3.3229 -3.3229 -3.3229c -1.8352,-0.0000 -3.3229,1.4877 -3.3229 3.3229c -0.0000,1.8352 1.4877,3.3229 3.3229 3.3229c 1.8352,0.0000 3.3229,-1.4877 3.3229 -3.3229Z"/></g><g stroke-linecap="butt" fill="rgb(0,0,255)" stroke-miterlimit="10.0" stroke-width="1.1981285803006183" fill-opacity="1.0" stroke-opacity="1.0" stroke-linejoin="miter" stroke="rgb(0,0,0)"><path d="M 99.1265,101.5291 c 0.0000,-1.8352 -1.4877,-3.3229 -3.3229 -3.3229c -1.8352,-0.0000 -3.3229,1.4877 -3.3229 3.3229c -0.0000,1.8352 1.4877,3.3229 3.3229 3.3229c 1.8352,0.0000 3.3229,-1.4877 3.3229 -3.3229Z"/></g><g stroke-linecap="butt" fill="rgb(0,0,255)" stroke-miterlimit="10.0" stroke-width="1.1981285803006183" fill-opacity="1.0" stroke-opacity="1.0" stroke-linejoin="miter" stroke="rgb(0,0,0)"><path d="M 255.5694,91.9557 c 0.0000,-1.8352 -1.4877,-3.3229 -3.3229 -3.3229c -1.8352,-0.0000 -3.3229,1.4877 -3.3229 3.3229c -0.0000,1.8352 1.4877,3.3229 3.3229 3.3229c 1.8352,0.0000 3.3229,-1.4877 3.3229 -3.3229Z"/></g><g stroke-linecap="butt" fill="rgb(0,0,255)" stroke-miterlimit="10.0" stroke-width="1.1981285803006183" fill-opacity="1.0" stroke-opacity="1.0" stroke-linejoin="miter" stroke="rgb(0,0,0)"><path d="M 51.4161,133.3088 c 0.0000,-1.8352 -1.4877,-3.3229 -3.3229 -3.3229c -1.8352,-0.0000 -3.3229,1.4877 -3.3229 3.3229c -0.0000,1.8352 1.4877,3.3229 3.3229 3.3229c 1.8352,0.0000 3.3229,-1.4877 3.3229 -3.3229Z"/></g><g stroke-linecap="butt" fill="rgb(0,0,255)" stroke-miterlimit="10.0" stroke-width="1.1981285803006183" fill-opacity="1.0" stroke-opacity="1.0" stroke-linejoin="miter" stroke="rgb(0,0,0)"><path d="M 165.4120,192.4915 c 0.0000,-1.8352 -1.4877,-3.3229 -3.3229 -3.3229c -1.8352,-0.0000 -3.3229,1.4877 -3.3229 3.3229c -0.0000,1.8352 1.4877,3.3229 3.3229 3.3229c 1.8352,0.0000 3.3229,-1.4877 3.3229 -3.3229Z"/></g><g stroke-linecap="butt" fill="rgb(0,0,255)" stroke-miterlimit="10.0" stroke-width="1.1981285803006183" fill-opacity="1.0" stroke-opacity="1.0" stroke-linejoin="miter" stroke="rgb(0,0,0)"><path d="M 246.9078,166.3033 c 0.0000,-1.8352 -1.4877,-3.3229 -3.3229 -3.3229c -1.8352,-0.0000 -3.3229,1.4877 -3.3229 3.3229c -0.0000,1.8352 1.4877,3.3229 3.3229 3.3229c 1.8352,0.0000 3.3229,-1.4877 3.3229 -3.3229Z"/></g><g stroke-linecap="butt" fill="rgb(0,0,255)" stroke-miterlimit="10.0" stroke-width="1.1981285803006183" fill-opacity="1.0" stroke-opacity="1.0" stroke-linejoin="miter" stroke="rgb(0,0,0)"><path d="M 63.3363,39.3247 c 0.0000,-1.8352 -1.4877,-3.3229 -3.3229 -3.3229c -1.8352,-0.0000 -3.3229,1.4877 -3.3229 3.3229c -0.0000,1.8352 1.4877,3.3229 3.3229 3.3229c 1.8352,0.0000 3.3229,-1.4877 3.3229 -3.3229Z"/></g><g stroke-linecap="butt" fill="rgb(0,0,255)" stroke-miterlimit="10.0" stroke-width="1.1981285803006183" fill-opacity="1.0" stroke-opacity="1.0" stroke-linejoin="miter" stroke="rgb(0,0,0)"><path d="M 177.5545,83.1146 c 0.0000,-1.8352 -1.4877,-3.3229 -3.3229 -3.3229c -1.8352,-0.0000 -3.3229,1.4877 -3.3229 3.3229c -0.0000,1.8352 1.4877,3.3229 3.3229 3.3229c 1.8352,0.0000 3.3229,-1.4877 3.3229 -3.3229Z"/></g><g stroke-linecap="butt" fill="rgb(0,0,255)" stroke-miterlimit="10.0" stroke-width="1.1981285803006183" fill-opacity="1.0" stroke-opacity="1.0" stroke-linejoin="miter" stroke="rgb(0,0,0)"><path d="M 51.1655,84.8526 c 0.0000,-1.8352 -1.4877,-3.3229 -3.3229 -3.3229c -1.8352,-0.0000 -3.3229,1.4877 -3.3229 3.3229c -0.0000,1.8352 1.4877,3.3229 3.3229 3.3229c 1.8352,0.0000 3.3229,-1.4877 3.3229 -3.3229Z"/></g><g stroke-linecap="butt" fill="rgb(0,0,255)" stroke-miterlimit="10.0" stroke-width="1.1981285803006183" fill-opacity="1.0" stroke-opacity="1.0" stroke-linejoin="miter" stroke="rgb(0,0,0)"><path d="M 268.9977,139.5874 c 0.0000,-1.8352 -1.4877,-3.3229 -3.3229 -3.3229c -1.8352,-0.0000 -3.3229,1.4877 -3.3229 3.3229c -0.0000,1.8352 1.4877,3.3229 3.3229 3.3229c 1.8352,0.0000 3.3229,-1.4877 3.3229 -3.3229Z"/></g><g stroke-linecap="butt" fill="rgb(0,0,255)" stroke-miterlimit="10.0" stroke-width="1.1981285803006183" fill-opacity="1.0" stroke-opacity="1.0" stroke-linejoin="miter" stroke="rgb(0,0,0)"><path d="M 263.2337,250.8721 c 0.0000,-1.8352 -1.4877,-3.3229 -3.3229 -3.3229c -1.8352,-0.0000 -3.3229,1.4877 -3.3229 3.3229c -0.0000,1.8352 1.4877,3.3229 3.3229 3.3229c 1.8352,0.0000 3.3229,-1.4877 3.3229 -3.3229Z"/></g><g stroke-linecap="butt" fill="rgb(0,0,255)" stroke-miterlimit="10.0" stroke-width="1.1981285803006183" fill-opacity="1.0" stroke-opacity="1.0" stroke-linejoin="miter" stroke="rgb(0,0,0)"><path d="M 130.4972,79.5199 c 0.0000,-1.8352 -1.4877,-3.3229 -3.3229 -3.3229c -1.8352,-0.0000 -3.3229,1.4877 -3.3229 3.3229c -0.0000,1.8352 1.4877,3.3229 3.3229 3.3229c 1.8352,0.0000 3.3229,-1.4877 3.3229 -3.3229Z"/></g><g stroke-linecap="butt" fill="rgb(0,0,255)" stroke-miterlimit="10.0" stroke-width="1.1981285803006183" fill-opacity="1.0" stroke-opacity="1.0" stroke-linejoin="miter" stroke="rgb(0,0,0)"><path d="M 275.8556,193.2972 c 0.0000,-1.8352 -1.4877,-3.3229 -3.3229 -3.3229c -1.8352,-0.0000 -3.3229,1.4877 -3.3229 3.3229c -0.0000,1.8352 1.4877,3.3229 3.3229 3.3229c 1.8352,0.0000 3.3229,-1.4877 3.3229 -3.3229Z"/></g><g stroke-linecap="butt" fill="rgb(0,0,255)" stroke-miterlimit="10.0" stroke-width="1.1981285803006183" fill-opacity="1.0" stroke-opacity="1.0" stroke-linejoin="miter" stroke="rgb(0,0,0)"><path d="M 261.6134,119.8637 c 0.0000,-1.8352 -1.4877,-3.3229 -3.3229 -3.3229c -1.8352,-0.0000 -3.3229,1.4877 -3.3229 3.3229c -0.0000,1.8352 1.4877,3.3229 3.3229 3.3229c 1.8352,0.0000 3.3229,-1.4877 3.3229 -3.3229Z"/></g><g stroke-linecap="butt" fill="rgb(0,0,255)" stroke-miterlimit="10.0" stroke-width="1.1981285803006183" fill-opacity="1.0" stroke-opacity="1.0" stroke-linejoin="miter" stroke="rgb(0,0,0)"><path d="M 96.7975,170.2184 c 0.0000,-1.8352 -1.4877,-3.3229 -3.3229 -3.3229c -1.8352,-0.0000 -3.3229,1.4877 -3.3229 3.3229c -0.0000,1.8352 1.4877,3.3229 3.3229 3.3229c 1.8352,0.0000 3.3229,-1.4877 3.3229 -3.3229Z"/></g><g stroke-linecap="butt" fill="rgb(0,0,255)" stroke-miterlimit="10.0" stroke-width="1.1981285803006183" fill-opacity="1.0" stroke-opacity="1.0" stroke-linejoin="miter" stroke="rgb(0,0,0)"><path d="M 223.0685,194.7275 c 0.0000,-1.8352 -1.4877,-3.3229 -3.3229 -3.3229c -1.8352,-0.0000 -3.3229,1.4877 -3.3229 3.3229c -0.0000,1.8352 1.4877,3.3229 3.3229 3.3229c 1.8352,0.0000 3.3229,-1.4877 3.3229 -3.3229Z"/></g><g stroke-linecap="butt" fill="rgb(0,0,255)" stroke-miterlimit="10.0" stroke-width="1.1981285803006183" fill-opacity="1.0" stroke-opacity="1.0" stroke-linejoin="miter" stroke="rgb(0,0,0)"><path d="M 181.6368,48.1129 c 0.0000,-1.8352 -1.4877,-3.3229 -3.3229 -3.3229c -1.8352,-0.0000 -3.3229,1.4877 -3.3229 3.3229c -0.0000,1.8352 1.4877,3.3229 3.3229 3.3229c 1.8352,0.0000 3.3229,-1.4877 3.3229 -3.3229Z"/></g><g stroke-linecap="butt" fill="rgb(0,0,255)" stroke-miterlimit="10.0" stroke-width="1.1981285803006183" fill-opacity="1.0" stroke-opacity="1.0" stroke-linejoin="miter" stroke="rgb(0,0,0)"><path d="M 119.8842,154.9368 c 0.0000,-1.8352 -1.4877,-3.3229 -3.3229 -3.3229c -1.8352,-0.0000 -3.3229,1.4877 -3.3229 3.3229c -0.0000,1.8352 1.4877,3.3229 3.3229 3.3229c 1.8352,0.0000 3.3229,-1.4877 3.3229 -3.3229Z"/></g><g stroke-linecap="butt" fill="rgb(0,0,255)" stroke-miterlimit="10.0" stroke-width="1.1981285803006183" fill-opacity="1.0" stroke-opacity="1.0" stroke-linejoin="miter" stroke="rgb(0,0,0)"><path d="M 157.6349,60.7348 c 0.0000,-1.8352 -1.4877,-3.3229 -3.3229 -3.3229c -1.8352,-0.0000 -3.3229,1.4877 -3.3229 3.3229c -0.0000,1.8352 1.4877,3.3229 3.3229 3.3229c 1.8352,0.0000 3.3229,-1.4877 3.3229 -3.3229Z"/></g><g stroke-linecap="butt" fill="rgb(0,0,255)" stroke-miterlimit="10.0" stroke-width="1.1981285803006183" fill-opacity="1.0" stroke-opacity="1.0" stroke-linejoin="miter" stroke="rgb(0,0,0)"><path d="M 163.1619,102.0474 c 0.0000,-1.8352 -1.4877,-3.3229 -3.3229 -3.3229c -1.8352,-0.0000 -3.3229,1.4877 -3.3229 3.3229c -0.0000,1.8352 1.4877,3.3229 3.3229 3.3229c 1.8352,0.0000 3.3229,-1.4877 3.3229 -3.3229Z"/></g><g stroke-linecap="butt" fill="rgb(0,0,255)" stroke-miterlimit="10.0" stroke-width="1.1981285803006183" fill-opacity="1.0" stroke-opacity="1.0" stroke-linejoin="miter" stroke="rgb(0,0,0)"><path d="M 272.0039,112.1417 c 0.0000,-1.8352 -1.4877,-3.3229 -3.3229 -3.3229c -1.8352,-0.0000 -3.3229,1.4877 -3.3229 3.3229c -0.0000,1.8352 1.4877,3.3229 3.3229 3.3229c 1.8352,0.0000 3.3229,-1.4877 3.3229 -3.3229Z"/></g><g stroke-linecap="butt" fill="rgb(0,0,255)" stroke-miterlimit="10.0" stroke-width="1.1981285803006183" fill-opacity="1.0" stroke-opacity="1.0" stroke-linejoin="miter" stroke="rgb(0,0,0)"><path d="M 151.2388,106.6590 c 0.0000,-1.8352 -1.4877,-3.3229 -3.3229 -3.3229c -1.8352,-0.0000 -3.3229,1.4877 -3.3229 3.3229c -0.0000,1.8352 1.4877,3.3229 3.3229 3.3229c 1.8352,0.0000 3.3229,-1.4877 3.3229 -3.3229Z"/></g><g stroke-linecap="butt" fill="rgb(0,0,255)" stroke-miterlimit="10.0" stroke-width="1.1981285803006183" fill-opacity="1.0" stroke-opacity="1.0" stroke-linejoin="miter" stroke="rgb(0,0,0)"><path d="M 289.2834,210.0563 c 0.0000,-1.8352 -1.4877,-3.3229 -3.3229 -3.3229c -1.8352,-0.0000 -3.3229,1.4877 -3.3229 3.3229c -0.0000,1.8352 1.4877,3.3229 3.3229 3.3229c 1.8352,0.0000 3.3229,-1.4877 3.3229 -3.3229Z"/></g><g stroke-linecap="butt" fill="rgb(0,0,255)" stroke-miterlimit="10.0" stroke-width="1.1981285803006183" fill-opacity="1.0" stroke-opacity="1.0" stroke-linejoin="miter" stroke="rgb(0,0,0)"><path d="M 163.6883,78.6686 c 0.0000,-1.8352 -1.4877,-3.3229 -3.3229 -3.3229c -1.8352,-0.0000 -3.3229,1.4877 -3.3229 3.3229c -0.0000,1.8352 1.4877,3.3229 3.3229 3.3229c 1.8352,0.0000 3.3229,-1.4877 3.3229 -3.3229Z"/></g><g stroke-linecap="butt" fill="rgb(0,0,255)" stroke-miterlimit="10.0" stroke-width="1.1981285803006183" fill-opacity="1.0" stroke-opacity="1.0" stroke-linejoin="miter" stroke="rgb(0,0,0)"><path d="M 289.1246,61.0621 c 0.0000,-1.8352 -1.4877,-3.3229 -3.3229 -3.3229c -1.8352,-0.0000 -3.3229,1.4877 -3.3229 3.3229c -0.0000,1.8352 1.4877,3.3229 3.3229 3.3229c 1.8352,0.0000 3.3229,-1.4877 3.3229 -3.3229Z"/></g><g stroke-linecap="butt" fill="rgb(0,0,255)" stroke-miterlimit="10.0" stroke-width="1.1981285803006183" fill-opacity="1.0" stroke-opacity="1.0" stroke-linejoin="miter" stroke="rgb(0,0,0)"><path d="M 152.8611,221.5969 c 0.0000,-1.8352 -1.4877,-3.3229 -3.3229 -3.3229c -1.8352,-0.0000 -3.3229,1.4877 -3.3229 3.3229c -0.0000,1.8352 1.4877,3.3229 3.3229 3.3229c 1.8352,0.0000 3.3229,-1.4877 3.3229 -3.3229Z"/></g><g stroke-linecap="butt" fill="rgb(0,0,255)" stroke-miterlimit="10.0" stroke-width="1.1981285803006183" fill-opacity="1.0" stroke-opacity="1.0" stroke-linejoin="miter" stroke="rgb(0,0,0)"><path d="M 108.1297,200.6462 c 0.0000,-1.8352 -1.4877,-3.3229 -3.3229 -3.3229c -1.8352,-0.0000 -3.3229,1.4877 -3.3229 3.3229c -0.0000,1.8352 1.4877,3.3229 3.3229 3.3229c 1.8352,0.0000 3.3229,-1.4877 3.3229 -3.3229Z"/></g><g stroke-linecap="butt" fill="rgb(0,0,255)" stroke-miterlimit="10.0" stroke-width="1.1981285803006183" fill-opacity="1.0" stroke-opacity="1.0" stroke-linejoin="miter" stroke="rgb(0,0,0)"><path d="M 207.4246,85.6647 c 0.0000,-1.8352 -1.4877,-3.3229 -3.3229 -3.3229c -1.8352,-0.0000 -3.3229,1.4877 -3.3229 3.3229c -0.0000,1.8352 1.4877,3.3229 3.3229 3.3229c 1.8352,0.0000 3.3229,-1.4877 3.3229 -3.3229Z"/></g><g stroke-linecap="butt" fill="rgb(0,0,255)" stroke-miterlimit="10.0" stroke-width="1.1981285803006183" fill-opacity="1.0" stroke-opacity="1.0" stroke-linejoin="miter" stroke="rgb(0,0,0)"><path d="M 174.2646,120.3605 c 0.0000,-1.8352 -1.4877,-3.3229 -3.3229 -3.3229c -1.8352,-0.0000 -3.3229,1.4877 -3.3229 3.3229c -0.0000,1.8352 1.4877,3.3229 3.3229 3.3229c 1.8352,0.0000 3.3229,-1.4877 3.3229 -3.3229Z"/></g><g stroke-linecap="butt" fill="rgb(0,0,255)" stroke-miterlimit="10.0" stroke-width="1.1981285803006183" fill-opacity="1.0" stroke-opacity="1.0" stroke-linejoin="miter" stroke="rgb(0,0,0)"><path d="M 289.7225,54.6552 c 0.0000,-1.8352 -1.4877,-3.3229 -3.3229 -3.3229c -1.8352,-0.0000 -3.3229,1.4877 -3.3229 3.3229c -0.0000,1.8352 1.4877,3.3229 3.3229 3.3229c 1.8352,0.0000 3.3229,-1.4877 3.3229 -3.3229Z"/></g><g stroke-linecap="butt" fill="rgb(0,0,255)" stroke-miterlimit="10.0" stroke-width="1.1981285803006183" fill-opacity="1.0" stroke-opacity="1.0" stroke-linejoin="miter" stroke="rgb(0,0,0)"><path d="M 97.6919,204.5123 c 0.0000,-1.8352 -1.4877,-3.3229 -3.3229 -3.3229c -1.8352,-0.0000 -3.3229,1.4877 -3.3229 3.3229c -0.0000,1.8352 1.4877,3.3229 3.3229 3.3229c 1.8352,0.0000 3.3229,-1.4877 3.3229 -3.3229Z"/></g><g stroke-linecap="butt" fill="rgb(0,0,255)" stroke-miterlimit="10.0" stroke-width="1.1981285803006183" fill-opacity="1.0" stroke-opacity="1.0" stroke-linejoin="miter" stroke="rgb(0,0,0)"><path d="M 88.3930,97.4377 c 0.0000,-1.8352 -1.4877,-3.3229 -3.3229 -3.3229c -1.8352,-0.0000 -3.3229,1.4877 -3.3229 3.3229c -0.0000,1.8352 1.4877,3.3229 3.3229 3.3229c 1.8352,0.0000 3.3229,-1.4877 3.3229 -3.3229Z"/></g><g stroke-linecap="butt" fill="rgb(0,0,255)" stroke-miterlimit="10.0" stroke-width="1.1981285803006183" fill-opacity="1.0" stroke-opacity="1.0" stroke-linejoin="miter" stroke="rgb(0,0,0)"><path d="M 147.7790,218.5989 c 0.0000,-1.8352 -1.4877,-3.3229 -3.3229 -3.3229c -1.8352,-0.0000 -3.3229,1.4877 -3.3229 3.3229c -0.0000,1.8352 1.4877,3.3229 3.3229 3.3229c 1.8352,0.0000 3.3229,-1.4877 3.3229 -3.3229Z"/></g><g stroke-linecap="butt" fill="rgb(0,0,255)" stroke-miterlimit="10.0" stroke-width="1.1981285803006183" fill-opacity="1.0" stroke-opacity="1.0" stroke-linejoin="miter" stroke="rgb(0,0,0)"><path d="M 287.4957,69.7001 c 0.0000,-1.8352 -1.4877,-3.3229 -3.3229 -3.3229c -1.8352,-0.0000 -3.3229,1.4877 -3.3229 3.3229c -0.0000,1.8352 1.4877,3.3229 3.3229 3.3229c 1.8352,0.0000 3.3229,-1.4877 3.3229 -3.3229Z"/></g><g stroke-linecap="butt" fill="rgb(0,0,255)" stroke-miterlimit="10.0" stroke-width="1.1981285803006183" fill-opacity="1.0" stroke-opacity="1.0" stroke-linejoin="miter" stroke="rgb(0,0,0)"><path d="M 215.1850,93.1917 c 0.0000,-1.8352 -1.4877,-3.3229 -3.3229 -3.3229c -1.8352,-0.0000 -3.3229,1.4877 -3.3229 3.3229c -0.0000,1.8352 1.4877,3.3229 3.3229 3.3229c 1.8352,0.0000 3.3229,-1.4877 3.3229 -3.3229Z"/></g><g stroke-linecap="butt" fill="rgb(0,0,255)" stroke-miterlimit="10.0" stroke-width="1.1981285803006183" fill-opacity="1.0" stroke-opacity="1.0" stroke-linejoin="miter" stroke="rgb(0,0,0)"><path d="M 57.8378,71.3866 c 0.0000,-1.8352 -1.4877,-3.3229 -3.3229 -3.3229c -1.8352,-0.0000 -3.3229,1.4877 -3.3229 3.3229c -0.0000,1.8352 1.4877,3.3229 3.3229 3.3229c 1.8352,0.0000 3.3229,-1.4877 3.3229 -3.3229Z"/></g><g stroke-linecap="butt" fill="rgb(0,0,255)" stroke-miterlimit="10.0" stroke-width="1.1981285803006183" fill-opacity="1.0" stroke-opacity="1.0" stroke-linejoin="miter" stroke="rgb(0,0,0)"><path d="M 147.6259,194.0361 c 0.0000,-1.8352 -1.4877,-3.3229 -3.3229 -3.3229c -1.8352,-0.0000 -3.3229,1.4877 -3.3229 3.3229c -0.0000,1.8352 1.4877,3.3229 3.3229 3.3229c 1.8352,0.0000 3.3229,-1.4877 3.3229 -3.3229Z"/></g><g stroke-linecap="butt" fill="rgb(0,0,255)" stroke-miterlimit="10.0" stroke-width="1.1981285803006183" fill-opacity="1.0" stroke-opacity="1.0" stroke-linejoin="miter" stroke="rgb(0,0,0)"><path d="M 202.7793,87.0792 c 0.0000,-1.8352 -1.4877,-3.3229 -3.3229 -3.3229c -1.8352,-0.0000 -3.3229,1.4877 -3.3229 3.3229c -0.0000,1.8352 1.4877,3.3229 3.3229 3.3229c 1.8352,0.0000 3.3229,-1.4877 3.3229 -3.3229Z"/></g><g stroke-linecap="butt" fill="rgb(0,0,255)" stroke-miterlimit="10.0" stroke-width="1.1981285803006183" fill-opacity="1.0" stroke-opacity="1.0" stroke-linejoin="miter" stroke="rgb(0,0,0)"><path d="M 235.6874,11.5478 c 0.0000,-1.8352 -1.4877,-3.3229 -3.3229 -3.3229c -1.8352,-0.0000 -3.3229,1.4877 -3.3229 3.3229c -0.0000,1.8352 1.4877,3.3229 3.3229 3.3229c 1.8352,0.0000 3.3229,-1.4877 3.3229 -3.3229Z"/></g><g stroke-linecap="butt" fill="rgb(0,0,255)" stroke-miterlimit="10.0" stroke-width="1.1981285803006183" fill-opacity="1.0" stroke-opacity="1.0" stroke-linejoin="miter" stroke="rgb(0,0,0)"><path d="M 118.3268,14.3860 c 0.0000,-1.8352 -1.4877,-3.3229 -3.3229 -3.3229c -1.8352,-0.0000 -3.3229,1.4877 -3.3229 3.3229c -0.0000,1.8352 1.4877,3.3229 3.3229 3.3229c 1.8352,0.0000 3.3229,-1.4877 3.3229 -3.3229Z"/></g><g stroke-linecap="butt" fill="rgb(0,0,255)" stroke-miterlimit="10.0" stroke-width="1.1981285803006183" fill-opacity="1.0" stroke-opacity="1.0" stroke-linejoin="miter" stroke="rgb(0,0,0)"><path d="M 260.6304,13.2562 c 0.0000,-1.8352 -1.4877,-3.3229 -3.3229 -3.3229c -1.8352,-0.0000 -3.3229,1.4877 -3.3229 3.3229c -0.0000,1.8352 1.4877,3.3229 3.3229 3.3229c 1.8352,0.0000 3.3229,-1.4877 3.3229 -3.3229Z"/></g><g stroke-linecap="butt" fill="rgb(0,0,255)" stroke-miterlimit="10.0" stroke-width="1.1981285803006183" fill-opacity="1.0" stroke-opacity="1.0" stroke-linejoin="miter" stroke="rgb(0,0,0)"><path d="M 216.1609,37.7371 c 0.0000,-1.8352 -1.4877,-3.3229 -3.3229 -3.3229c -1.8352,-0.0000 -3.3229,1.4877 -3.3229 3.3229c -0.0000,1.8352 1.4877,3.3229 3.3229 3.3229c 1.8352,0.0000 3.3229,-1.4877 3.3229 -3.3229Z"/></g><g stroke-linecap="butt" fill="rgb(0,0,255)" stroke-miterlimit="10.0" stroke-width="1.1981285803006183" fill-opacity="1.0" stroke-opacity="1.0" stroke-linejoin="miter" stroke="rgb(0,0,0)"><path d="M 132.0873,218.6822 c 0.0000,-1.8352 -1.4877,-3.3229 -3.3229 -3.3229c -1.8352,-0.0000 -3.3229,1.4877 -3.3229 3.3229c -0.0000,1.8352 1.4877,3.3229 3.3229 3.3229c 1.8352,0.0000 3.3229,-1.4877 3.3229 -3.3229Z"/></g><g stroke-linecap="butt" fill="rgb(0,0,255)" stroke-miterlimit="10.0" stroke-width="1.1981285803006183" fill-opacity="1.0" stroke-opacity="1.0" stroke-linejoin="miter" stroke="rgb(0,0,0)"><path d="M 216.7994,220.8769 c 0.0000,-1.8352 -1.4877,-3.3229 -3.3229 -3.3229c -1.8352,-0.0000 -3.3229,1.4877 -3.3229 3.3229c -0.0000,1.8352 1.4877,3.3229 3.3229 3.3229c 1.8352,0.0000 3.3229,-1.4877 3.3229 -3.3229Z"/></g><g stroke-linecap="butt" fill="rgb(0,0,255)" stroke-miterlimit="10.0" stroke-width="1.1981285803006183" fill-opacity="1.0" stroke-opacity="1.0" stroke-linejoin="miter" stroke="rgb(0,0,0)"><path d="M 50.3189,163.3682 c 0.0000,-1.8352 -1.4877,-3.3229 -3.3229 -3.3229c -1.8352,-0.0000 -3.3229,1.4877 -3.3229 3.3229c -0.0000,1.8352 1.4877,3.3229 3.3229 3.3229c 1.8352,0.0000 3.3229,-1.4877 3.3229 -3.3229Z"/></g><g stroke-linecap="butt" fill="rgb(0,0,255)" stroke-miterlimit="10.0" stroke-width="1.1981285803006183" fill-opacity="1.0" stroke-opacity="1.0" stroke-linejoin="miter" stroke="rgb(0,0,0)"><path d="M 53.4840,251.3210 c 0.0000,-1.8352 -1.4877,-3.3229 -3.3229 -3.3229c -1.8352,-0.0000 -3.3229,1.4877 -3.3229 3.3229c -0.0000,1.8352 1.4877,3.3229 3.3229 3.3229c 1.8352,0.0000 3.3229,-1.4877 3.3229 -3.3229Z"/></g><g stroke-linecap="butt" fill="rgb(0,0,255)" stroke-miterlimit="10.0" stroke-width="1.1981285803006183" fill-opacity="1.0" stroke-opacity="1.0" stroke-linejoin="miter" stroke="rgb(0,0,0)"><path d="M 260.1017,105.5174 c 0.0000,-1.8352 -1.4877,-3.3229 -3.3229 -3.3229c -1.8352,-0.0000 -3.3229,1.4877 -3.3229 3.3229c -0.0000,1.8352 1.4877,3.3229 3.3229 3.3229c 1.8352,0.0000 3.3229,-1.4877 3.3229 -3.3229Z"/></g><g stroke-linecap="butt" fill="rgb(0,0,255)" stroke-miterlimit="10.0" stroke-width="1.1981285803006183" fill-opacity="1.0" stroke-opacity="1.0" stroke-linejoin="miter" stroke="rgb(0,0,0)"><path d="M 216.5071,39.1364 c 0.0000,-1.8352 -1.4877,-3.3229 -3.3229 -3.3229c -1.8352,-0.0000 -3.3229,1.4877 -3.3229 3.3229c -0.0000,1.8352 1.4877,3.3229 3.3229 3.3229c 1.8352,0.0000 3.3229,-1.4877 3.3229 -3.3229Z"/></g><g stroke-linecap="butt" fill="rgb(0,0,255)" stroke-miterlimit="10.0" stroke-width="1.1981285803006183" fill-opacity="1.0" stroke-opacity="1.0" stroke-linejoin="miter" stroke="rgb(0,0,0)"><path d="M 222.0849,38.3037 c 0.0000,-1.8352 -1.4877,-3.3229 -3.3229 -3.3229c -1.8352,-0.0000 -3.3229,1.4877 -3.3229 3.3229c -0.0000,1.8352 1.4877,3.3229 3.3229 3.3229c 1.8352,0.0000 3.3229,-1.4877 3.3229 -3.3229Z"/></g><g stroke-linecap="butt" fill="rgb(0,0,255)" stroke-miterlimit="10.0" stroke-width="1.1981285803006183" fill-opacity="1.0" stroke-opacity="1.0" stroke-linejoin="miter" stroke="rgb(0,0,0)"><path d="M 103.4565,44.5945 c 0.0000,-1.8352 -1.4877,-3.3229 -3.3229 -3.3229c -1.8352,-0.0000 -3.3229,1.4877 -3.3229 3.3229c -0.0000,1.8352 1.4877,3.3229 3.3229 3.3229c 1.8352,0.0000 3.3229,-1.4877 3.3229 -3.3229Z"/></g><g stroke-linecap="butt" fill="rgb(0,0,255)" stroke-miterlimit="10.0" stroke-width="1.1981285803006183" fill-opacity="1.0" stroke-opacity="1.0" stroke-linejoin="miter" stroke="rgb(0,0,0)"><path d="M 133.9275,24.4323 c 0.0000,-1.8352 -1.4877,-3.3229 -3.3229 -3.3229c -1.8352,-0.0000 -3.3229,1.4877 -3.3229 3.3229c -0.0000,1.8352 1.4877,3.3229 3.3229 3.3229c 1.8352,0.0000 3.3229,-1.4877 3.3229 -3.3229Z"/></g><g stroke-linecap="butt" fill="rgb(0,0,255)" stroke-miterlimit="10.0" stroke-width="1.1981285803006183" fill-opacity="1.0" stroke-opacity="1.0" stroke-linejoin="miter" stroke="rgb(0,0,0)"><path d="M 262.9567,21.8961 c 0.0000,-1.8352 -1.4877,-3.3229 -3.3229 -3.3229c -1.8352,-0.0000 -3.3229,1.4877 -3.3229 3.3229c -0.0000,1.8352 1.4877,3.3229 3.3229 3.3229c 1.8352,0.0000 3.3229,-1.4877 3.3229 -3.3229Z"/></g><g stroke-linecap="butt" fill="rgb(0,0,255)" stroke-miterlimit="10.0" stroke-width="1.1981285803006183" fill-opacity="1.0" stroke-opacity="1.0" stroke-linejoin="miter" stroke="rgb(0,0,0)"><path d="M 221.3985,75.8866 c 0.0000,-1.8352 -1.4877,-3.3229 -3.3229 -3.3229c -1.8352,-0.0000 -3.3229,1.4877 -3.3229 3.3229c -0.0000,1.8352 1.4877,3.3229 3.3229 3.3229c 1.8352,0.0000 3.3229,-1.4877 3.3229 -3.3229Z"/></g><g stroke-linecap="butt" fill="rgb(0,0,255)" stroke-miterlimit="10.0" stroke-width="1.1981285803006183" fill-opacity="1.0" stroke-opacity="1.0" stroke-linejoin="miter" stroke="rgb(0,0,0)"><path d="M 179.6626,46.5548 c 0.0000,-1.8352 -1.4877,-3.3229 -3.3229 -3.3229c -1.8352,-0.0000 -3.3229,1.4877 -3.3229 3.3229c -0.0000,1.8352 1.4877,3.3229 3.3229 3.3229c 1.8352,0.0000 3.3229,-1.4877 3.3229 -3.3229Z"/></g><g stroke-linecap="butt" fill="rgb(0,0,255)" stroke-miterlimit="10.0" stroke-width="1.1981285803006183" fill-opacity="1.0" stroke-opacity="1.0" stroke-linejoin="miter" stroke="rgb(0,0,0)"><path d="M 218.1729,254.0841 c 0.0000,-1.8352 -1.4877,-3.3229 -3.3229 -3.3229c -1.8352,-0.0000 -3.3229,1.4877 -3.3229 3.3229c -0.0000,1.8352 1.4877,3.3229 3.3229 3.3229c 1.8352,0.0000 3.3229,-1.4877 3.3229 -3.3229Z"/></g><g stroke-linecap="butt" fill="rgb(0,0,255)" stroke-miterlimit="10.0" stroke-width="1.1981285803006183" fill-opacity="1.0" stroke-opacity="1.0" stroke-linejoin="miter" stroke="rgb(0,0,0)"><path d="M 211.3878,173.2431 c 0.0000,-1.8352 -1.4877,-3.3229 -3.3229 -3.3229c -1.8352,-0.0000 -3.3229,1.4877 -3.3229 3.3229c -0.0000,1.8352 1.4877,3.3229 3.3229 3.3229c 1.8352,0.0000 3.3229,-1.4877 3.3229 -3.3229Z"/></g><g stroke-linecap="butt" fill="rgb(0,0,255)" stroke-miterlimit="10.0" stroke-width="1.1981285803006183" fill-opacity="1.0" stroke-opacity="1.0" stroke-linejoin="miter" stroke="rgb(0,0,0)"><path d="M 147.1617,60.3755 c 0.0000,-1.8352 -1.4877,-3.3229 -3.3229 -3.3229c -1.8352,-0.0000 -3.3229,1.4877 -3.3229 3.3229c -0.0000,1.8352 1.4877,3.3229 3.3229 3.3229c 1.8352,0.0000 3.3229,-1.4877 3.3229 -3.3229Z"/></g><g stroke-linecap="butt" fill="rgb(0,0,255)" stroke-miterlimit="10.0" stroke-width="1.1981285803006183" fill-opacity="1.0" stroke-opacity="1.0" stroke-linejoin="miter" stroke="rgb(0,0,0)"><path d="M 267.5992,133.8621 c 0.0000,-1.8352 -1.4877,-3.3229 -3.3229 -3.3229c -1.8352,-0.0000 -3.3229,1.4877 -3.3229 3.3229c -0.0000,1.8352 1.4877,3.3229 3.3229 3.3229c 1.8352,0.0000 3.3229,-1.4877 3.3229 -3.3229Z"/></g><g stroke-linecap="butt" fill="rgb(0,0,255)" stroke-miterlimit="10.0" stroke-width="1.1981285803006183" fill-opacity="1.0" stroke-opacity="1.0" stroke-linejoin="miter" stroke="rgb(0,0,0)"><path d="M 270.8647,37.2039 c 0.0000,-1.8352 -1.4877,-3.3229 -3.3229 -3.3229c -1.8352,-0.0000 -3.3229,1.4877 -3.3229 3.3229c -0.0000,1.8352 1.4877,3.3229 3.3229 3.3229c 1.8352,0.0000 3.3229,-1.4877 3.3229 -3.3229Z"/></g><g stroke-linecap="butt" fill="rgb(0,0,255)" stroke-miterlimit="10.0" stroke-width="1.1981285803006183" fill-opacity="1.0" stroke-opacity="1.0" stroke-linejoin="miter" stroke="rgb(0,0,0)"><path d="M 72.5960,71.8641 c 0.0000,-1.8352 -1.4877,-3.3229 -3.3229 -3.3229c -1.8352,-0.0000 -3.3229,1.4877 -3.3229 3.3229c -0.0000,1.8352 1.4877,3.3229 3.3229 3.3229c 1.8352,0.0000 3.3229,-1.4877 3.3229 -3.3229Z"/></g><g stroke-linecap="butt" fill="rgb(0,0,255)" stroke-miterlimit="10.0" stroke-width="1.1981285803006183" fill-opacity="1.0" stroke-opacity="1.0" stroke-linejoin="miter" stroke="rgb(0,0,0)"><path d="M 213.0484,20.0975 c 0.0000,-1.8352 -1.4877,-3.3229 -3.3229 -3.3229c -1.8352,-0.0000 -3.3229,1.4877 -3.3229 3.3229c -0.0000,1.8352 1.4877,3.3229 3.3229 3.3229c 1.8352,0.0000 3.3229,-1.4877 3.3229 -3.3229Z"/></g><g stroke-linecap="butt" fill="rgb(0,0,255)" stroke-miterlimit="10.0" stroke-width="1.1981285803006183" fill-opacity="1.0" stroke-opacity="1.0" stroke-linejoin="miter" stroke="rgb(0,0,0)"><path d="M 288.2669,100.7816 c 0.0000,-1.8352 -1.4877,-3.3229 -3.3229 -3.3229c -1.8352,-0.0000 -3.3229,1.4877 -3.3229 3.3229c -0.0000,1.8352 1.4877,3.3229 3.3229 3.3229c 1.8352,0.0000 3.3229,-1.4877 3.3229 -3.3229Z"/></g><g stroke-linecap="butt" fill="rgb(0,0,255)" stroke-miterlimit="10.0" stroke-width="1.1981285803006183" fill-opacity="1.0" stroke-opacity="1.0" stroke-linejoin="miter" stroke="rgb(0,0,0)"><path d="M 131.0716,206.2788 c 0.0000,-1.8352 -1.4877,-3.3229 -3.3229 -3.3229c -1.8352,-0.0000 -3.3229,1.4877 -3.3229 3.3229c -0.0000,1.8352 1.4877,3.3229 3.3229 3.3229c 1.8352,0.0000 3.3229,-1.4877 3.3229 -3.3229Z"/></g><g stroke-linecap="butt" fill="rgb(0,0,255)" stroke-miterlimit="10.0" stroke-width="1.1981285803006183" fill-opacity="1.0" stroke-opacity="1.0" stroke-linejoin="miter" stroke="rgb(0,0,0)"><path d="M 142.1761,166.3338 c 0.0000,-1.8352 -1.4877,-3.3229 -3.3229 -3.3229c -1.8352,-0.0000 -3.3229,1.4877 -3.3229 3.3229c -0.0000,1.8352 1.4877,3.3229 3.3229 3.3229c 1.8352,0.0000 3.3229,-1.4877 3.3229 -3.3229Z"/></g><g stroke-linecap="butt" fill="rgb(0,0,255)" stroke-miterlimit="10.0" stroke-width="1.1981285803006183" fill-opacity="1.0" stroke-opacity="1.0" stroke-linejoin="miter" stroke="rgb(0,0,0)"><path d="M 229.3091,151.8013 c 0.0000,-1.8352 -1.4877,-3.3229 -3.3229 -3.3229c -1.8352,-0.0000 -3.3229,1.4877 -3.3229 3.3229c -0.0000,1.8352 1.4877,3.3229 3.3229 3.3229c 1.8352,0.0000 3.3229,-1.4877 3.3229 -3.3229Z"/></g><g stroke-linecap="butt" fill="rgb(0,0,255)" stroke-miterlimit="10.0" stroke-width="1.1981285803006183" fill-opacity="1.0" stroke-opacity="1.0" stroke-linejoin="miter" stroke="rgb(0,0,0)"><path d="M 150.1938,249.1712 c 0.0000,-1.8352 -1.4877,-3.3229 -3.3229 -3.3229c -1.8352,-0.0000 -3.3229,1.4877 -3.3229 3.3229c -0.0000,1.8352 1.4877,3.3229 3.3229 3.3229c 1.8352,0.0000 3.3229,-1.4877 3.3229 -3.3229Z"/></g><g stroke-linecap="butt" fill="rgb(0,0,255)" stroke-miterlimit="10.0" stroke-width="1.1981285803006183" fill-opacity="1.0" stroke-opacity="1.0" stroke-linejoin="miter" stroke="rgb(0,0,0)"><path d="M 182.4232,108.1781 c 0.0000,-1.8352 -1.4877,-3.3229 -3.3229 -3.3229c -1.8352,-0.0000 -3.3229,1.4877 -3.3229 3.3229c -0.0000,1.8352 1.4877,3.3229 3.3229 3.3229c 1.8352,0.0000 3.3229,-1.4877 3.3229 -3.3229Z"/></g><g stroke-linecap="butt" fill="rgb(0,0,255)" stroke-miterlimit="10.0" stroke-width="1.1981285803006183" fill-opacity="1.0" stroke-opacity="1.0" stroke-linejoin="miter" stroke="rgb(0,0,0)"><path d="M 243.7571,209.8276 c 0.0000,-1.8352 -1.4877,-3.3229 -3.3229 -3.3229c -1.8352,-0.0000 -3.3229,1.4877 -3.3229 3.3229c -0.0000,1.8352 1.4877,3.3229 3.3229 3.3229c 1.8352,0.0000 3.3229,-1.4877 3.3229 -3.3229Z"/></g><g stroke-linecap="butt" fill="rgb(0,0,255)" stroke-miterlimit="10.0" stroke-width="1.1981285803006183" fill-opacity="1.0" stroke-opacity="1.0" stroke-linejoin="miter" stroke="rgb(0,0,0)"><path d="M 96.8175,203.7389 c 0.0000,-1.8352 -1.4877,-3.3229 -3.3229 -3.3229c -1.8352,-0.0000 -3.3229,1.4877 -3.3229 3.3229c -0.0000,1.8352 1.4877,3.3229 3.3229 3.3229c 1.8352,0.0000 3.3229,-1.4877 3.3229 -3.3229Z"/></g></svg>