<?xml version="1.0" encoding="UTF-8"?>
<!DOCTYPE svg PUBLIC "-//W3C//DTD SVG 1.1//EN"
    "http://www.w3.org/Graphics/SVG/1.1/DTD/svg11.dtd"><svg xmlns="http://www.w3.org/2000/svg" viewBox="0.0 0.0 500.0 500.0" height="500.0000" font-size="1" stroke-opacity="1" width="500.0000" xmlns:xlink="http://www.w3.org/1999/xlink" stroke="rgb(0,0,0)" version="1.1"><defs></defs><g stroke-linecap="butt" fill="rgb(0,0,0)" stroke-miterlimit="10.0" stroke-width="1.9999999999999998" fill-opacity="0.0" stroke-opacity="1.0" stroke-linejoin="miter" stroke="rgb(0,0,0)"><path d="M 0.0000,445.6522 h 482.5000 "/></g><g stroke-linecap="butt" fill="rgb(0,0,0)" stroke-miterlimit="10.0" stroke-width="0.0" fill-opacity="1.0" stroke-opacity="1.0" stroke-linejoin="miter" stroke="rgb(0,0,0)"></g><g stroke-linecap="butt" fill="rgb(0,0,0)" stroke-miterlimit="10.0" stroke-width="0.0" fill-opacity="1.0" stroke-opacity="1.0" stroke-linejoin="miter" stroke="rgb(0,0,0)"></g><g stroke-linecap="butt" fill="rgb(0,0,0)" stroke-miterlimit="10.0" stroke-width="0.0" fill-opacity="1.0" stroke-opacity="1.0" stroke-linejoin="miter" stroke="rgb(0,0,0)"><path d="M 500.0000,445.6522 l -20.4712,-6.6515 l 3.4969,6.6515 l -3.4969,6.6515 Z"/></g><g stroke-linecap="butt" fill="rgb(0,0,0)" stroke-miterlimit="10.0" stroke-width="0.0" fill-opacity="1.0" stroke-opacity="1.0" stroke-linejoin="miter" stroke="rgb(0,0,0)"><path d="M 483.0257,445.6522 h -0.5257 v -1.0000 l 0.5257,1.0000 h -0.5257 v 1.0000 Z"/></g><g stroke-linecap="butt" fill="rgb(0,0,0)" stroke-miterlimit="10.0" stroke-width="1.9999999999999998" fill-opacity="0.0" stroke-opacity="1.0" stroke-linejoin="miter" stroke="rgb(0,0,0)"><path d="M 54.3478,500.0000 l 0.0000,-482.5000 "/></g><g stroke-linecap="butt" fill="rgb(0,0,0)" stroke-miterlimit="10.0" stroke-width="0.0" fill-opacity="1.0" stroke-opacity="1.0" stroke-linejoin="miter" stroke="rgb(0,0,0)"></g><g stroke-linecap="butt" fill="rgb(0,0,0)" stroke-miterlimit="10.0" stroke-width="0.0" fill-opacity="1.0" stroke-opacity="1.0" stroke-linejoin="miter" stroke="rgb(0,0,0)"></g><g stroke-linecap="butt" fill="rgb(0,0,0)" stroke-miterlimit="10.0" stroke-width="0.0" fill-opacity="1.0" stroke-opacity="1.0" stroke-linejoin="miter" stroke="rgb(0,0,0)"><path d="M 54.3478,-0.0000 l -6.6515,20.4712 l 6.6515,-3.4969 l 6.6515,3.4969 Z"/></g><g stroke-linecap="butt" fill="rgb(0,0,0)" stroke-miterlimit="10.0" stroke-width="0.0" fill-opacity="1.0" stroke-opacity="1.0" stroke-linejoin="miter" stroke="rgb(0,0,0)"><path d="M 54.3478,16.9743 l -0.0000,0.5257 l -1.0000,-0.0000 l 1.0000,-0.5257 l -0.0000,0.5257 l 1.0000,0.0000 Z"/></g><g stroke-linecap="butt" fill="rgb(255,0,0)" stroke-miterlimit="10.0" stroke-width="1.9999999999999998" fill-opacity="1.0" stroke-opacity="0.0" stroke-linejoin="miter" stroke="rgb(0,0,0)"><path d="M 454.2948,307.7880 c 0.0000,-1.2006 -0.9733,-2.1739 -2.1739 -2.1739c -1.2006,-0.0000 -2.1739,0.9733 -2.1739 2.1739c -0.0000,1.2006 0.9733,2.1739 2.1739 2.1739c 1.2006,0.0000 2.1739,-0.9733 2.1739 -2.1739Z"/></g><g stroke-linecap="butt" fill="rgb(255,0,0)" stroke-miterlimit="10.0" stroke-width="1.9999999999999998" fill-opacity="1.0" stroke-opacity="0.0" stroke-linejoin="miter" stroke="rgb(0,0,0)"><path d="M 406.7766,60.8483 c 0.0000,-1.2006 -0.9733,-2.1739 -2.1739 -2.1739c -1.2006,-0.0000 -2.1739,0.9733 -2.1739 2.1739c -0.0000,1.2006 0.9733,2.1739 2.1739 2.1739c 1.2006,0.0000 2.1739,-0.9733 2.1739 -2.1739Z"/></g><g stroke-linecap="butt" fill="rgb(255,0,0)" stroke-miterlimit="10.0" stroke-width="1.9999999999999998" fill-opacity="1.0" stroke-opacity="0.0" stroke-linejoin="miter" stroke="rgb(0,0,0)"><path d="M 372.6758,396.1064 c 0.0000,-1.2006 -0.9733,-2.1739 -2.1739 -2.1739c -1.2006,-0.0000 -2.1739,0.9733 -2.1739 2.1739c -0.0000,1.2006 0.9733,2.1739 2.1739 2.1739c 1.2006,0.0000 2.1739,-0.9733 2.1739 -2.1739Z"/></g><g stroke-linecap="butt" fill="rgb(255,0,0)" stroke-miterlimit="10.0" stroke-width="1.9999999999999998" fill-opacity="1.0" stroke-opacity="0.0" stroke-linejoin="miter" stroke="rgb(0,0,0)"><path d="M 266.3108,73.4137 c 0.0000,-1.2006 -0.9733,-2.1739 -2.1739 -2.1739c -1.2006,-0.0000 -2.1739,0.9733 -2.1739 2.1739c -0.0000,1.2006 0.9733,2.1739 2.1739 2.1739c 1.2006,0.0000 2.1739,-0.9733 2.1739 -2.1739Z"/></g><g stroke-linecap="butt" fill="rgb(255,0,0)" stroke-miterlimit="10.0" stroke-width="1.9999999999999998" fill-opacity="1.0" stroke-opacity="0.0" stroke-linejoin="miter" stroke="rgb(0,0,0)"><path d="M 110.7536,209.5182 c 0.0000,-1.2006 -0.9733,-2.1739 -2.1739 -2.1739c -1.2006,-0.0000 -2.1739,0.9733 -2.1739 2.1739c -0.0000,1.2006 0.9733,2.1739 2.1739 2.1739c 1.2006,0.0000 2.1739,-0.9733 2.1739 -2.1739Z"/></g><g stroke-linecap="butt" fill="rgb(255,0,0)" stroke-miterlimit="10.0" stroke-width="1.9999999999999998" fill-opacity="1.0" stroke-opacity="0.0" stroke-linejoin="miter" stroke="rgb(0,0,0)"><path d="M 104.0528,402.6480 c 0.0000,-1.2006 -0.9733,-2.1739 -2.1739 -2.1739c -1.2006,-0.0000 -2.1739,0.9733 -2.1739 2.1739c -0.0000,1.2006 0.9733,2.1739 2.1739 2.1739c 1.2006,0.0000 2.1739,-0.9733 2.1739 -2.1739Z"/></g><g stroke-linecap="butt" fill="rgb(255,0,0)" stroke-miterlimit="10.0" stroke-width="1.9999999999999998" fill-opacity="1.0" stroke-opacity="0.0" stroke-linejoin="miter" stroke="rgb(0,0,0)"><path d="M 83.0342,393.1421 c 0.0000,-1.2006 -0.9733,-2.1739 -2.1739 -2.1739c -1.2006,-0.0000 -2.1739,0.9733 -2.1739 2.1739c -0.0000,1.2006 0.9733,2.1739 2.1739 2.1739c 1.2006,0.0000 2.1739,-0.9733 2.1739 -2.1739Z"/></g><g stroke-linecap="butt" fill="rgb(0,0,255)" stroke-miterlimit="10.0" stroke-width="1.9999999999999998" fill-opacity="1.0" stroke-opacity="0.0" stroke-linejoin="miter" stroke="rgb(0,0,0)"><path d="M 332.6557,383.8196 c 0.0000,-1.2006 -0.9733,-2.1739 -2.1739 -2.1739c -1.2006,-0.0000 -2.1739,0.9733 -2.1739 2.1739c -0.0000,1.2006 0.9733,2.1739 2.1739 2.1739c 1.2006,0.0000 2.1739,-0.9733 2.1739 -2.1739Z"/></g><g stroke-linecap="butt" fill="rgb(0,0,255)" stroke-miterlimit="10.0" stroke-width="1.9999999999999998" fill-opacity="1.0" stroke-opacity="0.0" stroke-linejoin="miter" stroke="rgb(0,0,0)"><path d="M 219.0839,399.0978 c 0.0000,-1.2006 -0.9733,-2.1739 -2.1739 -2.1739c -1.2006,-0.0000 -2.1739,0.9733 -2.1739 2.1739c -0.0000,1.2006 0.9733,2.1739 2.1739 2.1739c 1.2006,0.0000 2.1739,-0.9733 2.1739 -2.1739Z"/></g><g stroke-linecap="butt" fill="rgb(0,0,255)" stroke-miterlimit="10.0" stroke-width="1.9999999999999998" fill-opacity="1.0" stroke-opacity="0.0" stroke-linejoin="miter" stroke="rgb(0,0,0)"><path d="M 125.7320,318.2209 c 0.0000,-1.2006 -0.9733,-2.1739 -2.1739 -2.1739c -1.2006,-0.0000 -2.1739,0.9733 -2.1739 2.1739c -0.0000,1.2006 0.9733,2.1739 2.1739 2.1739c 1.2006,0.0000 2.1739,-0.9733 2.1739 -2.1739Z"/></g><g stroke-linecap="butt" fill="rgb(0,0,255)" stroke-miterlimit="10.0" stroke-width="1.9999999999999998" fill-opacity="1.0" stroke-opacity="0.0" stroke-linejoin="miter" stroke="rgb(0,0,0)"><path d="M 213.6989,342.2681 c 0.0000,-1.2006 -0.9733,-2.1739 -2.1739 -2.1739c -1.2006,-0.0000 -2.1739,0.9733 -2.1739 2.1739c -0.0000,1.2006 0.9733,2.1739 2.1739 2.1739c 1.2006,0.0000 2.1739,-0.9733 2.1739 -2.1739Z"/></g><g stroke-linecap="butt" fill="rgb(0,0,255)" stroke-miterlimit="10.0" stroke-width="1.9999999999999998" fill-opacity="1.0" stroke-opacity="0.0" stroke-linejoin="miter" stroke="rgb(0,0,0)"><path d="M 431.6032,240.2635 c 0.0000,-1.2006 -0.9733,-2.1739 -2.1739 -2.1739c -1.2006,-0.0000 -2.1739,0.9733 -2.1739 2.1739c -0.0000,1.2006 0.9733,2.1739 2.1739 2.1739c 1.2006,0.0000 2.1739,-0.9733 2.1739 -2.1739Z"/></g><g stroke-linecap="butt" fill="rgb(0,0,255)" stroke-miterlimit="10.0" stroke-width="1.9999999999999998" fill-opacity="1.0" stroke-opacity="0.0" stroke-linejoin="miter" stroke="rgb(0,0,0)"><path d="M 346.4860,196.6786 c 0.0000,-1.2006 -0.9733,-2.1739 -2.1739 -2.1739c -1.2006,-0.0000 -2.1739,0.9733 -2.1739 2.1739c -0.0000,1.2006 0.9733,2.1739 2.1739 2.1739c 1.2006,0.0000 2.1739,-0.9733 2.1739 -2.1739Z"/></g><g stroke-linecap="butt" fill="rgb(0,0,255)" stroke-miterlimit="10.0" stroke-width="1.9999999999999998" fill-opacity="1.0" stroke-opacity="0.0" stroke-linejoin="miter" stroke="rgb(0,0,0)"><path d="M 130.2499,256.4714 c 0.0000,-1.2006 -0.9733,-2.1739 -2.1739 -2.1739c -1.2006,-0.0000 -2.1739,0.9733 -2.1739 2.1739c -0.0000,1.2006 0.9733,2.1739 2.1739 2.1739c 1.2006,0.0000 2.1739,-0.9733 2.1739 -2.1739Z"/></g><g stroke-linecap="butt" fill="rgb(0,0,255)" stroke-miterlimit="10.0" stroke-width="1.9999999999999998" fill-opacity="1.0" stroke-opacity="0.0" stroke-linejoin="miter" stroke="rgb(0,0,0)"><path d="M 191.8306,212.6078 c 0.0000,-1.2006 -0.9733,-2.1739 -2.1739 -2.1739c -1.2006,-0.0000 -2.1739,0.9733 -2.1739 2.1739c -0.0000,1.2006 0.9733,2.1739 2.1739 2.1739c 1.2006,0.0000 2.1739,-0.9733 2.1739 -2.1739Z"/></g><g stroke-linecap="butt" fill="rgb(0,0,255)" stroke-miterlimit="10.0" stroke-width="1.9999999999999998" fill-opacity="1.0" stroke-opacity="0.0" stroke-linejoin="miter" stroke="rgb(0,0,0)"><path d="M 275.0443,213.4483 c 0.0000,-1.2006 -0.9733,-2.1739 -2.1739 -2.1739c -1.2006,-0.0000 -2.1739,0.9733 -2.1739 2.1739c -0.0000,1.2006 0.9733,2.1739 2.1739 2.1739c 1.2006,0.0000 2.1739,-0.9733 2.1739 -2.1739Z"/></g><g stroke-linecap="butt" fill="rgb(0,0,255)" stroke-miterlimit="10.0" stroke-width="1.9999999999999998" fill-opacity="1.0" stroke-opacity="0.0" stroke-linejoin="miter" stroke="rgb(0,0,0)"><path d="M 245.8983,345.8048 c 0.0000,-1.2006 -0.9733,-2.1739 -2.1739 -2.1739c -1.2006,-0.0000 -2.1739,0.9733 -2.1739 2.1739c -0.0000,1.2006 0.9733,2.1739 2.1739 2.1739c 1.2006,0.0000 2.1739,-0.9733 2.1739 -2.1739Z"/></g><g stroke-linecap="butt" fill="rgb(0,0,255)" stroke-miterlimit="10.0" stroke-width="1.9999999999999998" fill-opacity="1.0" stroke-opacity="0.0" stroke-linejoin="miter" stroke="rgb(0,0,0)"><path d="M 322.5206,81.4539 c 0.0000,-1.2006 -0.9733,-2.1739 -2.1739 -2.1739c -1.2006,-0.0000 -2.1739,0.9733 -2.1739 2.1739c -0.0000,1.2006 0.9733,2.1739 2.1739 2.1739c 1.2006,0.0000 2.1739,-0.9733 2.1739 -2.1739Z"/></g><g stroke-linecap="butt" fill="rgb(0,0,255)" stroke-miterlimit="10.0" stroke-width="1.9999999999999998" fill-opacity="1.0" stroke-opacity="0.0" stroke-linejoin="miter" stroke="rgb(0,0,0)"><path d="M 331.0840,172.5920 c 0.0000,-1.2006 -0.9733,-2.1739 -2.1739 -2.1739c -1.2006,-0.0000 -2.1739,0.9733 -2.1739 2.1739c -0.0000,1.2006 0.9733,2.1739 2.1739 2.1739c 1.2006,0.0000 2.1739,-0.9733 2.1739 -2.1739Z"/></g><g stroke-linecap="butt" fill="rgb(0,0,255)" stroke-miterlimit="10.0" stroke-width="1.9999999999999998" fill-opacity="1.0" stroke-opacity="0.0" stroke-linejoin="miter" stroke="rgb(0,0,0)"><path d="M 271.2222,296.7737 c 0.0000,-1.2006 -0.9733,-2.1739 -2.1739 -2.1739c -1.2006,-0.0000 -2.1739,0.9733 -2.1739 2.1739c -0.0000,1.2006 0.9733,2.1739 2.1739 2.1739c 1.2006,0.0000 2.1739,-0.9733 2.1739 -2.1739Z"/></g></svg>