<?xml version="1.0" encoding="UTF-8"?>
<!DOCTYPE svg PUBLIC "-//W3C//DTD SVG 1.1//EN"
    "http://www.w3.org/Graphics/SVG/1.1/DTD/svg11.dtd"><svg xmlns="http://www.w3.org/2000/svg" viewBox="0.0 0.0 300.0 300.0" height="300.0000" font-size="1" stroke-opacity="1" width="300.0000" xmlns:xlink="http://www.w3.org/1999/xlink" stroke="rgb(0,0,0)" version="1.1"><defs></defs><g stroke-linecap="butt" fill="rgb(0,0,0)" stroke-miterlimit="10.0" stroke-width="1.2" fill-opacity="0.0" stroke-opacity="1.0" stroke-linejoin="miter" stroke="rgb(0,0,0)"><path d="M 0.0000,266.6667 h 289.5000 "/></g><g stroke-linecap="butt" fill="rgb(0,0,0)" stroke-miterlimit="10.0" stroke-width="0.0" fill-opacity="1.0" stroke-opacity="1.0" stroke-linejoin="miter" stroke="rgb(0,0,0)"></g><g stroke-linecap="butt" fill="rgb(0,0,0)" stroke-miterlimit="10.0" stroke-width="0.0" fill-opacity="1.0" stroke-opacity="1.0" stroke-linejoin="miter" stroke="rgb(0,0,0)"></g><g stroke-linecap="butt" fill="rgb(0,0,0)" stroke-miterlimit="10.0" stroke-width="0.0" fill-opacity="1.0" stroke-opacity="1.0" stroke-linejoin="miter" stroke="rgb(0,0,0)"><path d="M 300.0000,266.6667 l -12.2827,-3.9909 l 2.0981,3.9909 l -2.0981,3.9909 Z"/></g><g stroke-linecap="butt" fill="rgb(0,0,0)" stroke-miterlimit="10.0" stroke-width="0.0" fill-opacity="1.0" stroke-opacity="1.0" stroke-linejoin="miter" stroke="rgb(0,0,0)"><path d="M 289.8154,266.6667 h -0.3154 v -0.6000 l 0.3154,0.6000 h -0.3154 v 0.6000 Z"/></g><g stroke-linecap="butt" fill="rgb(0,0,0)" stroke-miterlimit="10.0" stroke-width="1.2" fill-opacity="0.0" stroke-opacity="1.0" stroke-linejoin="miter" stroke="rgb(0,0,0)"><path d="M 33.3333,300.0000 l 0.0000,-289.5000 "/></g><g stroke-linecap="butt" fill="rgb(0,0,0)" stroke-miterlimit="10.0" stroke-width="0.0" fill-opacity="1.0" stroke-opacity="1.0" stroke-linejoin="miter" stroke="rgb(0,0,0)"></g><g stroke-linecap="butt" fill="rgb(0,0,0)" stroke-miterlimit="10.0" stroke-width="0.0" fill-opacity="1.0" stroke-opacity="1.0" stroke-linejoin="miter" stroke="rgb(0,0,0)"></g><g stroke-linecap="butt" fill="rgb(0,0,0)" stroke-miterlimit="10.0" stroke-width="0.0" fill-opacity="1.0" stroke-opacity="1.0" stroke-linejoin="miter" stroke="rgb(0,0,0)"><path d="M 33.3333,-0.0000 l -3.9909,12.2827 l 3.9909,-2.0981 l 3.9909,2.0981 Z"/></g><g stroke-linecap="butt" fill="rgb(0,0,0)" stroke-miterlimit="10.0" stroke-width="0.0" fill-opacity="1.0" stroke-opacity="1.0" stroke-linejoin="miter" stroke="rgb(0,0,0)"><path d="M 33.3333,10.1846 l -0.0000,0.3154 l -0.6000,-0.0000 l 0.6000,-0.3154 l -0.0000,0.3154 l 0.6000,0.0000 Z"/></g><g stroke-linecap="butt" fill="rgb(255,0,0)" stroke-miterlimit="10.0" stroke-width="1.2" fill-opacity="1.0" stroke-opacity="1.0" stroke-linejoin="miter" stroke="rgb(0,0,0)"><path d="M 42.6667,210.6667 c 0.0000,-1.8409 -1.4924,-3.3333 -3.3333 -3.3333c -1.8409,-0.0000 -3.3333,1.4924 -3.3333 3.3333c -0.0000,1.8409 1.4924,3.3333 3.3333 3.3333c 1.8409,0.0000 3.3333,-1.4924 3.3333 -3.3333Z"/></g><g stroke-linecap="butt" fill="rgb(255,0,0)" stroke-miterlimit="10.0" stroke-width="1.2" fill-opacity="1.0" stroke-opacity="1.0" stroke-linejoin="miter" stroke="rgb(0,0,0)"><path d="M 47.3333,258.0000 c 0.0000,-1.8409 -1.4924,-3.3333 -3.3333 -3.3333c -1.8409,-0.0000 -3.3333,1.4924 -3.3333 3.3333c -0.0000,1.8409 1.4924,3.3333 3.3333 3.3333c 1.8409,0.0000 3.3333,-1.4924 3.3333 -3.3333Z"/></g><g stroke-linecap="butt" fill="rgb(255,0,0)" stroke-miterlimit="10.0" stroke-width="1.2" fill-opacity="1.0" stroke-opacity="1.0" stroke-linejoin="miter" stroke="rgb(0,0,0)"><path d="M 74.0000,260.6667 c 0.0000,-1.8409 -1.4924,-3.3333 -3.3333 -3.3333c -1.8409,-0.0000 -3.3333,1.4924 -3.3333 3.3333c -0.0000,1.8409 1.4924,3.3333 3.3333 3.3333c 1.8409,0.0000 3.3333,-1.4924 3.3333 -3.3333Z"/></g><g stroke-linecap="butt" fill="rgb(255,0,0)" stroke-miterlimit="10.0" stroke-width="1.2" fill-opacity="1.0" stroke-opacity="1.0" stroke-linejoin="miter" stroke="rgb(0,0,0)"><path d="M 283.3333,250.0000 c 0.0000,-1.8409 -1.4924,-3.3333 -3.3333 -3.3333c -1.8409,-0.0000 -3.3333,1.4924 -3.3333 3.3333c -0.0000,1.8409 1.4924,3.3333 3.3333 3.3333c 1.8409,0.0000 3.3333,-1.4924 3.3333 -3.3333Z"/></g><g stroke-linecap="butt" fill="rgb(255,0,0)" stroke-miterlimit="10.0" stroke-width="1.2" fill-opacity="1.0" stroke-opacity="1.0" stroke-linejoin="miter" stroke="rgb(0,0,0)"><path d="M 134.6667,258.0000 c 0.0000,-1.8409 -1.4924,-3.3333 -3.3333 -3.3333c -1.8409,-0.0000 -3.3333,1.4924 -3.3333 3.3333c -0.0000,1.8409 1.4924,3.3333 3.3333 3.3333c 1.8409,0.0000 3.3333,-1.4924 3.3333 -3.3333Z"/></g><g stroke-linecap="butt" fill="rgb(255,0,0)" stroke-miterlimit="10.0" stroke-width="1.2" fill-opacity="1.0" stroke-opacity="1.0" stroke-linejoin="miter" stroke="rgb(0,0,0)"><path d="M 272.6667,234.6667 c 0.0000,-1.8409 -1.4924,-3.3333 -3.3333 -3.3333c -1.8409,-0.0000 -3.3333,1.4924 -3.3333 3.3333c -0.0000,1.8409 1.4924,3.3333 3.3333 3.3333c 1.8409,0.0000 3.3333,-1.4924 3.3333 -3.3333Z"/></g><g stroke-linecap="butt" fill="rgb(255,0,0)" stroke-miterlimit="10.0" stroke-width="1.2" fill-opacity="1.0" stroke-opacity="1.0" stroke-linejoin="miter" stroke="rgb(0,0,0)"><path d="M 266.0000,231.3333 c 0.0000,-1.8409 -1.4924,-3.3333 -3.3333 -3.3333c -1.8409,-0.0000 -3.3333,1.4924 -3.3333 3.3333c -0.0000,1.8409 1.4924,3.3333 3.3333 3.3333c 1.8409,0.0000 3.3333,-1.4924 3.3333 -3.3333Z"/></g><g stroke-linecap="butt" fill="rgb(255,0,0)" stroke-miterlimit="10.0" stroke-width="1.2" fill-opacity="1.0" stroke-opacity="1.0" stroke-linejoin="miter" stroke="rgb(0,0,0)"><path d="M 130.6667,258.6667 c 0.0000,-1.8409 -1.4924,-3.3333 -3.3333 -3.3333c -1.8409,-0.0000 -3.3333,1.4924 -3.3333 3.3333c -0.0000,1.8409 1.4924,3.3333 3.3333 3.3333c 1.8409,0.0000 3.3333,-1.4924 3.3333 -3.3333Z"/></g><g stroke-linecap="butt" fill="rgb(255,0,0)" stroke-miterlimit="10.0" stroke-width="1.2" fill-opacity="1.0" stroke-opacity="1.0" stroke-linejoin="miter" stroke="rgb(0,0,0)"><path d="M 270.0000,214.6667 c 0.0000,-1.8409 -1.4924,-3.3333 -3.3333 -3.3333c -1.8409,-0.0000 -3.3333,1.4924 -3.3333 3.3333c -0.0000,1.8409 1.4924,3.3333 3.3333 3.3333c 1.8409,0.0000 3.3333,-1.4924 3.3333 -3.3333Z"/></g><g stroke-linecap="butt" fill="rgb(255,0,0)" stroke-miterlimit="10.0" stroke-width="1.2" fill-opacity="1.0" stroke-opacity="1.0" stroke-linejoin="miter" stroke="rgb(0,0,0)"><path d="M 124.6667,258.6667 c 0.0000,-1.8409 -1.4924,-3.3333 -3.3333 -3.3333c -1.8409,-0.0000 -3.3333,1.4924 -3.3333 3.3333c -0.0000,1.8409 1.4924,3.3333 3.3333 3.3333c 1.8409,0.0000 3.3333,-1.4924 3.3333 -3.3333Z"/></g><g stroke-linecap="butt" fill="rgb(255,0,0)" stroke-miterlimit="10.0" stroke-width="1.2" fill-opacity="1.0" stroke-opacity="1.0" stroke-linejoin="miter" stroke="rgb(0,0,0)"><path d="M 276.0000,204.0000 c 0.0000,-1.8409 -1.4924,-3.3333 -3.3333 -3.3333c -1.8409,-0.0000 -3.3333,1.4924 -3.3333 3.3333c -0.0000,1.8409 1.4924,3.3333 3.3333 3.3333c 1.8409,0.0000 3.3333,-1.4924 3.3333 -3.3333Z"/></g><g stroke-linecap="butt" fill="rgb(255,0,0)" stroke-miterlimit="10.0" stroke-width="1.2" fill-opacity="1.0" stroke-opacity="1.0" stroke-linejoin="miter" stroke="rgb(0,0,0)"><path d="M 94.6667,262.6667 c 0.0000,-1.8409 -1.4924,-3.3333 -3.3333 -3.3333c -1.8409,-0.0000 -3.3333,1.4924 -3.3333 3.3333c -0.0000,1.8409 1.4924,3.3333 3.3333 3.3333c 1.8409,0.0000 3.3333,-1.4924 3.3333 -3.3333Z"/></g><g stroke-linecap="butt" fill="rgb(255,0,0)" stroke-miterlimit="10.0" stroke-width="1.2" fill-opacity="1.0" stroke-opacity="1.0" stroke-linejoin="miter" stroke="rgb(0,0,0)"><path d="M 272.0000,185.3333 c 0.0000,-1.8409 -1.4924,-3.3333 -3.3333 -3.3333c -1.8409,-0.0000 -3.3333,1.4924 -3.3333 3.3333c -0.0000,1.8409 1.4924,3.3333 3.3333 3.3333c 1.8409,0.0000 3.3333,-1.4924 3.3333 -3.3333Z"/></g><g stroke-linecap="butt" fill="rgb(255,0,0)" stroke-miterlimit="10.0" stroke-width="1.2" fill-opacity="1.0" stroke-opacity="1.0" stroke-linejoin="miter" stroke="rgb(0,0,0)"><path d="M 263.3333,173.3333 c 0.0000,-1.8409 -1.4924,-3.3333 -3.3333 -3.3333c -1.8409,-0.0000 -3.3333,1.4924 -3.3333 3.3333c -0.0000,1.8409 1.4924,3.3333 3.3333 3.3333c 1.8409,0.0000 3.3333,-1.4924 3.3333 -3.3333Z"/></g><g stroke-linecap="butt" fill="rgb(255,0,0)" stroke-miterlimit="10.0" stroke-width="1.2" fill-opacity="1.0" stroke-opacity="1.0" stroke-linejoin="miter" stroke="rgb(0,0,0)"><path d="M 264.0000,126.0000 c 0.0000,-1.8409 -1.4924,-3.3333 -3.3333 -3.3333c -1.8409,-0.0000 -3.3333,1.4924 -3.3333 3.3333c -0.0000,1.8409 1.4924,3.3333 3.3333 3.3333c 1.8409,0.0000 3.3333,-1.4924 3.3333 -3.3333Z"/></g><g stroke-linecap="butt" fill="rgb(255,0,0)" stroke-miterlimit="10.0" stroke-width="1.2" fill-opacity="1.0" stroke-opacity="1.0" stroke-linejoin="miter" stroke="rgb(0,0,0)"><path d="M 231.3333,75.3333 c 0.0000,-1.8409 -1.4924,-3.3333 -3.3333 -3.3333c -1.8409,-0.0000 -3.3333,1.4924 -3.3333 3.3333c -0.0000,1.8409 1.4924,3.3333 3.3333 3.3333c 1.8409,0.0000 3.3333,-1.4924 3.3333 -3.3333Z"/></g><g stroke-linecap="butt" fill="rgb(255,0,0)" stroke-miterlimit="10.0" stroke-width="1.2" fill-opacity="1.0" stroke-opacity="1.0" stroke-linejoin="miter" stroke="rgb(0,0,0)"><path d="M 246.0000,17.3333 c 0.0000,-1.8409 -1.4924,-3.3333 -3.3333 -3.3333c -1.8409,-0.0000 -3.3333,1.4924 -3.3333 3.3333c -0.0000,1.8409 1.4924,3.3333 3.3333 3.3333c 1.8409,0.0000 3.3333,-1.4924 3.3333 -3.3333Z"/></g><g stroke-linecap="butt" fill="rgb(255,0,0)" stroke-miterlimit="10.0" stroke-width="1.2" fill-opacity="1.0" stroke-opacity="1.0" stroke-linejoin="miter" stroke="rgb(0,0,0)"><path d="M 282.6667,34.6667 c 0.0000,-1.8409 -1.4924,-3.3333 -3.3333 -3.3333c -1.8409,-0.0000 -3.3333,1.4924 -3.3333 3.3333c -0.0000,1.8409 1.4924,3.3333 3.3333 3.3333c 1.8409,0.0000 3.3333,-1.4924 3.3333 -3.3333Z"/></g><g stroke-linecap="butt" fill="rgb(255,0,0)" stroke-miterlimit="10.0" stroke-width="1.2" fill-opacity="1.0" stroke-opacity="1.0" stroke-linejoin="miter" stroke="rgb(0,0,0)"><path d="M 232.0000,18.6667 c 0.0000,-1.8409 -1.4924,-3.3333 -3.3333 -3.3333c -1.8409,-0.0000 -3.3333,1.4924 -3.3333 3.3333c -0.0000,1.8409 1.4924,3.3333 3.3333 3.3333c 1.8409,0.0000 3.3333,-1.4924 3.3333 -3.3333Z"/></g><g stroke-linecap="butt" fill="rgb(255,0,0)" stroke-miterlimit="10.0" stroke-width="1.2" fill-opacity="1.0" stroke-opacity="1.0" stroke-linejoin="miter" stroke="rgb(0,0,0)"><path d="M 269.3333,57.3333 c 0.0000,-1.8409 -1.4924,-3.3333 -3.3333 -3.3333c -1.8409,-0.0000 -3.3333,1.4924 -3.3333 3.3333c -0.0000,1.8409 1.4924,3.3333 3.3333 3.3333c 1.8409,0.0000 3.3333,-1.4924 3.3333 -3.3333Z"/></g><g stroke-linecap="butt" fill="rgb(255,0,0)" stroke-miterlimit="10.0" stroke-width="1.2" fill-opacity="1.0" stroke-opacity="1.0" stroke-linejoin="miter" stroke="rgb(0,0,0)"><path d="M 190.6667,32.6667 c 0.0000,-1.8409 -1.4924,-3.3333 -3.3333 -3.3333c -1.8409,-0.0000 -3.3333,1.4924 -3.3333 3.3333c -0.0000,1.8409 1.4924,3.3333 3.3333 3.3333c 1.8409,0.0000 3.3333,-1.4924 3.3333 -3.3333Z"/></g><g stroke-linecap="butt" fill="rgb(255,0,0)" stroke-miterlimit="10.0" stroke-width="1.2" fill-opacity="1.0" stroke-opacity="1.0" stroke-linejoin="miter" stroke="rgb(0,0,0)"><path d="M 280.0000,100.6667 c 0.0000,-1.8409 -1.4924,-3.3333 -3.3333 -3.3333c -1.8409,-0.0000 -3.3333,1.4924 -3.3333 3.3333c -0.0000,1.8409 1.4924,3.3333 3.3333 3.3333c 1.8409,0.0000 3.3333,-1.4924 3.3333 -3.3333Z"/></g><g stroke-linecap="butt" fill="rgb(255,0,0)" stroke-miterlimit="10.0" stroke-width="1.2" fill-opacity="1.0" stroke-opacity="1.0" stroke-linejoin="miter" stroke="rgb(0,0,0)"><path d="M 134.0000,34.6667 c 0.0000,-1.8409 -1.4924,-3.3333 -3.3333 -3.3333c -1.8409,-0.0000 -3.3333,1.4924 -3.3333 3.3333c -0.0000,1.8409 1.4924,3.3333 3.3333 3.3333c 1.8409,0.0000 3.3333,-1.4924 3.3333 -3.3333Z"/></g><g stroke-linecap="butt" fill="rgb(255,0,0)" stroke-miterlimit="10.0" stroke-width="1.2" fill-opacity="1.0" stroke-opacity="1.0" stroke-linejoin="miter" stroke="rgb(0,0,0)"><path d="M 48.6667,60.0000 c 0.0000,-1.8409 -1.4924,-3.3333 -3.3333 -3.3333c -1.8409,-0.0000 -3.3333,1.4924 -3.3333 3.3333c -0.0000,1.8409 1.4924,3.3333 3.3333 3.3333c 1.8409,0.0000 3.3333,-1.4924 3.3333 -3.3333Z"/></g><g stroke-linecap="butt" fill="rgb(255,0,0)" stroke-miterlimit="10.0" stroke-width="1.2" fill-opacity="1.0" stroke-opacity="1.0" stroke-linejoin="miter" stroke="rgb(0,0,0)"><path d="M 67.3333,20.6667 c 0.0000,-1.8409 -1.4924,-3.3333 -3.3333 -3.3333c -1.8409,-0.0000 -3.3333,1.4924 -3.3333 3.3333c -0.0000,1.8409 1.4924,3.3333 3.3333 3.3333c 1.8409,0.0000 3.3333,-1.4924 3.3333 -3.3333Z"/></g><g stroke-linecap="butt" fill="rgb(255,0,0)" stroke-miterlimit="10.0" stroke-width="1.2" fill-opacity="1.0" stroke-opacity="1.0" stroke-linejoin="miter" stroke="rgb(0,0,0)"><path d="M 44.6667,74.6667 c 0.0000,-1.8409 -1.4924,-3.3333 -3.3333 -3.3333c -1.8409,-0.0000 -3.3333,1.4924 -3.3333 3.3333c -0.0000,1.8409 1.4924,3.3333 3.3333 3.3333c 1.8409,0.0000 3.3333,-1.4924 3.3333 -3.3333Z"/></g><g stroke-linecap="butt" fill="rgb(255,0,0)" stroke-miterlimit="10.0" stroke-width="1.2" fill-opacity="1.0" stroke-opacity="1.0" stroke-linejoin="miter" stroke="rgb(0,0,0)"><path d="M 294.6667,153.3333 c 0.0000,-1.8409 -1.4924,-3.3333 -3.3333 -3.3333c -1.8409,-0.0000 -3.3333,1.4924 -3.3333 3.3333c -0.0000,1.8409 1.4924,3.3333 3.3333 3.3333c 1.8409,0.0000 3.3333,-1.4924 3.3333 -3.3333Z"/></g><g stroke-linecap="butt" fill="rgb(255,0,0)" stroke-miterlimit="10.0" stroke-width="1.2" fill-opacity="1.0" stroke-opacity="1.0" stroke-linejoin="miter" stroke="rgb(0,0,0)"><path d="M 40.0000,159.3333 c 0.0000,-1.8409 -1.4924,-3.3333 -3.3333 -3.3333c -1.8409,-0.0000 -3.3333,1.4924 -3.3333 3.3333c -0.0000,1.8409 1.4924,3.3333 3.3333 3.3333c 1.8409,0.0000 3.3333,-1.4924 3.3333 -3.3333Z"/></g><g stroke-linecap="butt" fill="rgb(0,0,255)" stroke-miterlimit="10.0" stroke-width="1.2" fill-opacity="1.0" stroke-opacity="1.0" stroke-linejoin="miter" stroke="rgb(0,0,0)"><path d="M 200.6667,137.3333 c 0.0000,-1.8409 -1.4924,-3.3333 -3.3333 -3.3333c -1.8409,-0.0000 -3.3333,1.4924 -3.3333 3.3333c -0.0000,1.8409 1.4924,3.3333 3.3333 3.3333c 1.8409,0.0000 3.3333,-1.4924 3.3333 -3.3333Z"/></g><g stroke-linecap="butt" fill="rgb(0,0,255)" stroke-miterlimit="10.0" stroke-width="1.2" fill-opacity="1.0" stroke-opacity="1.0" stroke-linejoin="miter" stroke="rgb(0,0,0)"><path d="M 140.0000,166.0000 c 0.0000,-1.8409 -1.4924,-3.3333 -3.3333 -3.3333c -1.8409,-0.0000 -3.3333,1.4924 -3.3333 3.3333c -0.0000,1.8409 1.4924,3.3333 3.3333 3.3333c 1.8409,0.0000 3.3333,-1.4924 3.3333 -3.3333Z"/></g><g stroke-linecap="butt" fill="rgb(0,0,255)" stroke-miterlimit="10.0" stroke-width="1.2" fill-opacity="1.0" stroke-opacity="1.0" stroke-linejoin="miter" stroke="rgb(0,0,0)"><path d="M 80.6667,58.6667 c 0.0000,-1.8409 -1.4924,-3.3333 -3.3333 -3.3333c -1.8409,-0.0000 -3.3333,1.4924 -3.3333 3.3333c -0.0000,1.8409 1.4924,3.3333 3.3333 3.3333c 1.8409,0.0000 3.3333,-1.4924 3.3333 -3.3333Z"/></g><g stroke-linecap="butt" fill="rgb(0,0,255)" stroke-miterlimit="10.0" stroke-width="1.2" fill-opacity="1.0" stroke-opacity="1.0" stroke-linejoin="miter" stroke="rgb(0,0,0)"><path d="M 161.3333,88.6667 c 0.0000,-1.8409 -1.4924,-3.3333 -3.3333 -3.3333c -1.8409,-0.0000 -3.3333,1.4924 -3.3333 3.3333c -0.0000,1.8409 1.4924,3.3333 3.3333 3.3333c 1.8409,0.0000 3.3333,-1.4924 3.3333 -3.3333Z"/></g><g stroke-linecap="butt" fill="rgb(0,0,255)" stroke-miterlimit="10.0" stroke-width="1.2" fill-opacity="1.0" stroke-opacity="1.0" stroke-linejoin="miter" stroke="rgb(0,0,0)"><path d="M 174.0000,248.6667 c 0.0000,-1.8409 -1.4924,-3.3333 -3.3333 -3.3333c -1.8409,-0.0000 -3.3333,1.4924 -3.3333 3.3333c -0.0000,1.8409 1.4924,3.3333 3.3333 3.3333c 1.8409,0.0000 3.3333,-1.4924 3.3333 -3.3333Z"/></g><g stroke-linecap="butt" fill="rgb(0,0,255)" stroke-miterlimit="10.0" stroke-width="1.2" fill-opacity="1.0" stroke-opacity="1.0" stroke-linejoin="miter" stroke="rgb(0,0,0)"><path d="M 165.3333,149.3333 c 0.0000,-1.8409 -1.4924,-3.3333 -3.3333 -3.3333c -1.8409,-0.0000 -3.3333,1.4924 -3.3333 3.3333c -0.0000,1.8409 1.4924,3.3333 3.3333 3.3333c 1.8409,0.0000 3.3333,-1.4924 3.3333 -3.3333Z"/></g><g stroke-linecap="butt" fill="rgb(0,0,255)" stroke-miterlimit="10.0" stroke-width="1.2" fill-opacity="1.0" stroke-opacity="1.0" stroke-linejoin="miter" stroke="rgb(0,0,0)"><path d="M 86.6667,220.0000 c 0.0000,-1.8409 -1.4924,-3.3333 -3.3333 -3.3333c -1.8409,-0.0000 -3.3333,1.4924 -3.3333 3.3333c -0.0000,1.8409 1.4924,3.3333 3.3333 3.3333c 1.8409,0.0000 3.3333,-1.4924 3.3333 -3.3333Z"/></g><g stroke-linecap="butt" fill="rgb(0,0,255)" stroke-miterlimit="10.0" stroke-width="1.2" fill-opacity="1.0" stroke-opacity="1.0" stroke-linejoin="miter" stroke="rgb(0,0,0)"><path d="M 182.6667,72.0000 c 0.0000,-1.8409 -1.4924,-3.3333 -3.3333 -3.3333c -1.8409,-0.0000 -3.3333,1.4924 -3.3333 3.3333c -0.0000,1.8409 1.4924,3.3333 3.3333 3.3333c 1.8409,0.0000 3.3333,-1.4924 3.3333 -3.3333Z"/></g><g stroke-linecap="butt" fill="rgb(0,0,255)" stroke-miterlimit="10.0" stroke-width="1.2" fill-opacity="1.0" stroke-opacity="1.0" stroke-linejoin="miter" stroke="rgb(0,0,0)"><path d="M 52.0000,200.0000 c 0.0000,-1.8409 -1.4924,-3.3333 -3.3333 -3.3333c -1.8409,-0.0000 -3.3333,1.4924 -3.3333 3.3333c -0.0000,1.8409 1.4924,3.3333 3.3333 3.3333c 1.8409,0.0000 3.3333,-1.4924 3.3333 -3.3333Z"/></g><g stroke-linecap="butt" fill="rgb(0,0,255)" stroke-miterlimit="10.0" stroke-width="1.2" fill-opacity="1.0" stroke-opacity="1.0" stroke-linejoin="miter" stroke="rgb(0,0,0)"><path d="M 79.3333,160.6667 c 0.0000,-1.8409 -1.4924,-3.3333 -3.3333 -3.3333c -1.8409,-0.0000 -3.3333,1.4924 -3.3333 3.3333c -0.0000,1.8409 1.4924,3.3333 3.3333 3.3333c 1.8409,0.0000 3.3333,-1.4924 3.3333 -3.3333Z"/></g><g stroke-linecap="butt" fill="rgb(0,0,255)" stroke-miterlimit="10.0" stroke-width="1.2" fill-opacity="1.0" stroke-opacity="1.0" stroke-linejoin="miter" stroke="rgb(0,0,0)"><path d="M 164.0000,241.3333 c 0.0000,-1.8409 -1.4924,-3.3333 -3.3333 -3.3333c -1.8409,-0.0000 -3.3333,1.4924 -3.3333 3.3333c -0.0000,1.8409 1.4924,3.3333 3.3333 3.3333c 1.8409,0.0000 3.3333,-1.4924 3.3333 -3.3333Z"/></g><g stroke-linecap="butt" fill="rgb(0,0,255)" stroke-miterlimit="10.0" stroke-width="1.2" fill-opacity="1.0" stroke-opacity="1.0" stroke-linejoin="miter" stroke="rgb(0,0,0)"><path d="M 103.3333,76.6667 c 0.0000,-1.8409 -1.4924,-3.3333 -3.3333 -3.3333c -1.8409,-0.0000 -3.3333,1.4924 -3.3333 3.3333c -0.0000,1.8409 1.4924,3.3333 3.3333 3.3333c 1.8409,0.0000 3.3333,-1.4924 3.3333 -3.3333Z"/></g><g stroke-linecap="butt" fill="rgb(0,0,255)" stroke-miterlimit="10.0" stroke-width="1.2" fill-opacity="1.0" stroke-opacity="1.0" stroke-linejoin="miter" stroke="rgb(0,0,0)"><path d="M 56.6667,193.3333 c 0.0000,-1.8409 -1.4924,-3.3333 -3.3333 -3.3333c -1.8409,-0.0000 -3.3333,1.4924 -3.3333 3.3333c -0.0000,1.8409 1.4924,3.3333 3.3333 3.3333c 1.8409,0.0000 3.3333,-1.4924 3.3333 -3.3333Z"/></g><g stroke-linecap="butt" fill="rgb(0,0,255)" stroke-miterlimit="10.0" stroke-width="1.2" fill-opacity="1.0" stroke-opacity="1.0" stroke-linejoin="miter" stroke="rgb(0,0,0)"><path d="M 62.0000,220.0000 c 0.0000,-1.8409 -1.4924,-3.3333 -3.3333 -3.3333c -1.8409,-0.0000 -3.3333,1.4924 -3.3333 3.3333c -0.0000,1.8409 1.4924,3.3333 3.3333 3.3333c 1.8409,0.0000 3.3333,-1.4924 3.3333 -3.3333Z"/></g><g stroke-linecap="butt" fill="rgb(0,0,255)" stroke-miterlimit="10.0" stroke-width="1.2" fill-opacity="1.0" stroke-opacity="1.0" stroke-linejoin="miter" stroke="rgb(0,0,0)"><path d="M 74.0000,246.6667 c 0.0000,-1.8409 -1.4924,-3.3333 -3.3333 -3.3333c -1.8409,-0.0000 -3.3333,1.4924 -3.3333 3.3333c -0.0000,1.8409 1.4924,3.3333 3.3333 3.3333c 1.8409,0.0000 3.3333,-1.4924 3.3333 -3.3333Z"/></g><g stroke-linecap="butt" fill="rgb(0,0,255)" stroke-miterlimit="10.0" stroke-width="1.2" fill-opacity="1.0" stroke-opacity="1.0" stroke-linejoin="miter" stroke="rgb(0,0,0)"><path d="M 124.0000,102.6667 c 0.0000,-1.8409 -1.4924,-3.3333 -3.3333 -3.3333c -1.8409,-0.0000 -3.3333,1.4924 -3.3333 3.3333c -0.0000,1.8409 1.4924,3.3333 3.3333 3.3333c 1.8409,0.0000 3.3333,-1.4924 3.3333 -3.3333Z"/></g><g stroke-linecap="butt" fill="rgb(0,0,255)" stroke-miterlimit="10.0" stroke-width="1.2" fill-opacity="1.0" stroke-opacity="1.0" stroke-linejoin="miter" stroke="rgb(0,0,0)"><path d="M 96.0000,124.6667 c 0.0000,-1.8409 -1.4924,-3.3333 -3.3333 -3.3333c -1.8409,-0.0000 -3.3333,1.4924 -3.3333 3.3333c -0.0000,1.8409 1.4924,3.3333 3.3333 3.3333c 1.8409,0.0000 3.3333,-1.4924 3.3333 -3.3333Z"/></g><g stroke-linecap="butt" fill="rgb(0,0,255)" stroke-miterlimit="10.0" stroke-width="1.2" fill-opacity="1.0" stroke-opacity="1.0" stroke-linejoin="miter" stroke="rgb(0,0,0)"><path d="M 218.0000,235.3333 c 0.0000,-1.8409 -1.4924,-3.3333 -3.3333 -3.3333c -1.8409,-0.0000 -3.3333,1.4924 -3.3333 3.3333c -0.0000,1.8409 1.4924,3.3333 3.3333 3.3333c 1.8409,0.0000 3.3333,-1.4924 3.3333 -3.3333Z"/></g><g stroke-linecap="butt" fill="rgb(0,0,255)" stroke-miterlimit="10.0" stroke-width="1.2" fill-opacity="1.0" stroke-opacity="1.0" stroke-linejoin="miter" stroke="rgb(0,0,0)"><path d="M 217.3333,224.0000 c 0.0000,-1.8409 -1.4924,-3.3333 -3.3333 -3.3333c -1.8409,-0.0000 -3.3333,1.4924 -3.3333 3.3333c -0.0000,1.8409 1.4924,3.3333 3.3333 3.3333c 1.8409,0.0000 3.3333,-1.4924 3.3333 -3.3333Z"/></g><g stroke-linecap="butt" fill="rgb(0,0,255)" stroke-miterlimit="10.0" stroke-width="1.2" fill-opacity="1.0" stroke-opacity="1.0" stroke-linejoin="miter" stroke="rgb(0,0,0)"><path d="M 272.6667,106.6667 c 0.0000,-1.8409 -1.4924,-3.3333 -3.3333 -3.3333c -1.8409,-0.0000 -3.3333,1.4924 -3.3333 3.3333c -0.0000,1.8409 1.4924,3.3333 3.3333 3.3333c 1.8409,0.0000 3.3333,-1.4924 3.3333 -3.3333Z"/></g><g stroke-linecap="butt" fill="rgb(0,0,255)" stroke-miterlimit="10.0" stroke-width="1.2" fill-opacity="1.0" stroke-opacity="1.0" stroke-linejoin="miter" stroke="rgb(0,0,0)"><path d="M 210.6667,103.3333 c 0.0000,-1.8409 -1.4924,-3.3333 -3.3333 -3.3333c -1.8409,-0.0000 -3.3333,1.4924 -3.3333 3.3333c -0.0000,1.8409 1.4924,3.3333 3.3333 3.3333c 1.8409,0.0000 3.3333,-1.4924 3.3333 -3.3333Z"/></g><g stroke-linecap="butt" fill="rgb(0,0,255)" stroke-miterlimit="10.0" stroke-width="1.2" fill-opacity="1.0" stroke-opacity="1.0" stroke-linejoin="miter" stroke="rgb(0,0,0)"><path d="M 72.0000,228.6667 c 0.0000,-1.8409 -1.4924,-3.3333 -3.3333 -3.3333c -1.8409,-0.0000 -3.3333,1.4924 -3.3333 3.3333c -0.0000,1.8409 1.4924,3.3333 3.3333 3.3333c 1.8409,0.0000 3.3333,-1.4924 3.3333 -3.3333Z"/></g><g stroke-linecap="butt" fill="rgb(0,0,255)" stroke-miterlimit="10.0" stroke-width="1.2" fill-opacity="1.0" stroke-opacity="1.0" stroke-linejoin="miter" stroke="rgb(0,0,0)"><path d="M 133.3333,145.3333 c 0.0000,-1.8409 -1.4924,-3.3333 -3.3333 -3.3333c -1.8409,-0.0000 -3.3333,1.4924 -3.3333 3.3333c -0.0000,1.8409 1.4924,3.3333 3.3333 3.3333c 1.8409,0.0000 3.3333,-1.4924 3.3333 -3.3333Z"/></g><g stroke-linecap="butt" fill="rgb(0,0,255)" stroke-miterlimit="10.0" stroke-width="1.2" fill-opacity="1.0" stroke-opacity="1.0" stroke-linejoin="miter" stroke="rgb(0,0,0)"><path d="M 92.0000,138.0000 c 0.0000,-1.8409 -1.4924,-3.3333 -3.3333 -3.3333c -1.8409,-0.0000 -3.3333,1.4924 -3.3333 3.3333c -0.0000,1.8409 1.4924,3.3333 3.3333 3.3333c 1.8409,0.0000 3.3333,-1.4924 3.3333 -3.3333Z"/></g><g stroke-linecap="butt" fill="rgb(0,0,255)" stroke-miterlimit="10.0" stroke-width="1.2" fill-opacity="1.0" stroke-opacity="1.0" stroke-linejoin="miter" stroke="rgb(0,0,0)"><path d="M 209.3333,234.6667 c 0.0000,-1.8409 -1.4924,-3.3333 -3.3333 -3.3333c -1.8409,-0.0000 -3.3333,1.4924 -3.3333 3.3333c -0.0000,1.8409 1.4924,3.3333 3.3333 3.3333c 1.8409,0.0000 3.3333,-1.4924 3.3333 -3.3333Z"/></g><g stroke-linecap="butt" fill="rgb(0,0,255)" stroke-miterlimit="10.0" stroke-width="1.2" fill-opacity="1.0" stroke-opacity="1.0" stroke-linejoin="miter" stroke="rgb(0,0,0)"><path d="M 76.6667,212.0000 c 0.0000,-1.8409 -1.4924,-3.3333 -3.3333 -3.3333c -1.8409,-0.0000 -3.3333,1.4924 -3.3333 3.3333c -0.0000,1.8409 1.4924,3.3333 3.3333 3.3333c 1.8409,0.0000 3.3333,-1.4924 3.3333 -3.3333Z"/></g><g stroke-linecap="butt" fill="rgb(0,0,255)" stroke-miterlimit="10.0" stroke-width="1.2" fill-opacity="1.0" stroke-opacity="1.0" stroke-linejoin="miter" stroke="rgb(0,0,0)"><path d="M 238.6667,120.0000 c 0.0000,-1.8409 -1.4924,-3.3333 -3.3333 -3.3333c -1.8409,-0.0000 -3.3333,1.4924 -3.3333 3.3333c -0.0000,1.8409 1.4924,3.3333 3.3333 3.3333c 1.8409,0.0000 3.3333,-1.4924 3.3333 -3.3333Z"/></g><g stroke-linecap="butt" fill="rgb(0,0,255)" stroke-miterlimit="10.0" stroke-width="1.2" fill-opacity="1.0" stroke-opacity="1.0" stroke-linejoin="miter" stroke="rgb(0,0,0)"><path d="M 186.6667,46.6667 c 0.0000,-1.8409 -1.4924,-3.3333 -3.3333 -3.3333c -1.8409,-0.0000 -3.3333,1.4924 -3.3333 3.3333c -0.0000,1.8409 1.4924,3.3333 3.3333 3.3333c 1.8409,0.0000 3.3333,-1.4924 3.3333 -3.3333Z"/></g><g stroke-linecap="butt" fill="rgb(0,0,255)" stroke-miterlimit="10.0" stroke-width="1.2" fill-opacity="1.0" stroke-opacity="1.0" stroke-linejoin="miter" stroke="rgb(0,0,0)"><path d="M 68.0000,36.6667 c 0.0000,-1.8409 -1.4924,-3.3333 -3.3333 -3.3333c -1.8409,-0.0000 -3.3333,1.4924 -3.3333 3.3333c -0.0000,1.8409 1.4924,3.3333 3.3333 3.3333c 1.8409,0.0000 3.3333,-1.4924 3.3333 -3.3333Z"/></g><g stroke-linecap="butt" fill="rgb(0,0,255)" stroke-miterlimit="10.0" stroke-width="1.2" fill-opacity="1.0" stroke-opacity="1.0" stroke-linejoin="miter" stroke="rgb(0,0,0)"><path d="M 184.0000,220.6667 c 0.0000,-1.8409 -1.4924,-3.3333 -3.3333 -3.3333c -1.8409,-0.0000 -3.3333,1.4924 -3.3333 3.3333c -0.0000,1.8409 1.4924,3.3333 3.3333 3.3333c 1.8409,0.0000 3.3333,-1.4924 3.3333 -3.3333Z"/></g><g stroke-linecap="butt" fill="rgb(0,0,255)" stroke-miterlimit="10.0" stroke-width="1.2" fill-opacity="1.0" stroke-opacity="1.0" stroke-linejoin="miter" stroke="rgb(0,0,0)"><path d="M 189.3333,48.6667 c 0.0000,-1.8409 -1.4924,-3.3333 -3.3333 -3.3333c -1.8409,-0.0000 -3.3333,1.4924 -3.3333 3.3333c -0.0000,1.8409 1.4924,3.3333 3.3333 3.3333c 1.8409,0.0000 3.3333,-1.4924 3.3333 -3.3333Z"/></g><g stroke-linecap="butt" fill="rgb(0,0,255)" stroke-miterlimit="10.0" stroke-width="1.2" fill-opacity="1.0" stroke-opacity="1.0" stroke-linejoin="miter" stroke="rgb(0,0,0)"><path d="M 63.3333,168.0000 c 0.0000,-1.8409 -1.4924,-3.3333 -3.3333 -3.3333c -1.8409,-0.0000 -3.3333,1.4924 -3.3333 3.3333c -0.0000,1.8409 1.4924,3.3333 3.3333 3.3333c 1.8409,0.0000 3.3333,-1.4924 3.3333 -3.3333Z"/></g><g stroke-linecap="butt" fill="rgb(0,0,255)" stroke-miterlimit="10.0" stroke-width="1.2" fill-opacity="1.0" stroke-opacity="1.0" stroke-linejoin="miter" stroke="rgb(0,0,0)"><path d="M 99.3333,230.0000 c 0.0000,-1.8409 -1.4924,-3.3333 -3.3333 -3.3333c -1.8409,-0.0000 -3.3333,1.4924 -3.3333 3.3333c -0.0000,1.8409 1.4924,3.3333 3.3333 3.3333c 1.8409,0.0000 3.3333,-1.4924 3.3333 -3.3333Z"/></g><g stroke-linecap="butt" fill="rgb(0,0,255)" stroke-miterlimit="10.0" stroke-width="1.2" fill-opacity="1.0" stroke-opacity="1.0" stroke-linejoin="miter" stroke="rgb(0,0,0)"><path d="M 188.0000,86.0000 c 0.0000,-1.8409 -1.4924,-3.3333 -3.3333 -3.3333c -1.8409,-0.0000 -3.3333,1.4924 -3.3333 3.3333c -0.0000,1.8409 1.4924,3.3333 3.3333 3.3333c 1.8409,0.0000 3.3333,-1.4924 3.3333 -3.3333Z"/></g><g stroke-linecap="butt" fill="rgb(0,0,255)" stroke-miterlimit="10.0" stroke-width="1.2" fill-opacity="1.0" stroke-opacity="1.0" stroke-linejoin="miter" stroke="rgb(0,0,0)"><path d="M 76.6667,222.0000 c 0.0000,-1.8409 -1.4924,-3.3333 -3.3333 -3.3333c -1.8409,-0.0000 -3.3333,1.4924 -3.3333 3.3333c -0.0000,1.8409 1.4924,3.3333 3.3333 3.3333c 1.8409,0.0000 3.3333,-1.4924 3.3333 -3.3333Z"/></g><g stroke-linecap="butt" fill="rgb(0,0,255)" stroke-miterlimit="10.0" stroke-width="1.2" fill-opacity="1.0" stroke-opacity="1.0" stroke-linejoin="miter" stroke="rgb(0,0,0)"><path d="M 122.0000,156.0000 c 0.0000,-1.8409 -1.4924,-3.3333 -3.3333 -3.3333c -1.8409,-0.0000 -3.3333,1.4924 -3.3333 3.3333c -0.0000,1.8409 1.4924,3.3333 3.3333 3.3333c 1.8409,0.0000 3.3333,-1.4924 3.3333 -3.3333Z"/></g><g stroke-linecap="butt" fill="rgb(0,0,255)" stroke-miterlimit="10.0" stroke-width="1.2" fill-opacity="1.0" stroke-opacity="1.0" stroke-linejoin="miter" stroke="rgb(0,0,0)"><path d="M 66.6667,240.6667 c 0.0000,-1.8409 -1.4924,-3.3333 -3.3333 -3.3333c -1.8409,-0.0000 -3.3333,1.4924 -3.3333 3.3333c -0.0000,1.8409 1.4924,3.3333 3.3333 3.3333c 1.8409,0.0000 3.3333,-1.4924 3.3333 -3.3333Z"/></g><g stroke-linecap="butt" fill="rgb(0,0,255)" stroke-miterlimit="10.0" stroke-width="1.2" fill-opacity="1.0" stroke-opacity="1.0" stroke-linejoin="miter" stroke="rgb(0,0,0)"><path d="M 246.0000,98.0000 c 0.0000,-1.8409 -1.4924,-3.3333 -3.3333 -3.3333c -1.8409,-0.0000 -3.3333,1.4924 -3.3333 3.3333c -0.0000,1.8409 1.4924,3.3333 3.3333 3.3333c 1.8409,0.0000 3.3333,-1.4924 3.3333 -3.3333Z"/></g><g stroke-linecap="butt" fill="rgb(0,0,255)" stroke-miterlimit="10.0" stroke-width="1.2" fill-opacity="1.0" stroke-opacity="1.0" stroke-linejoin="miter" stroke="rgb(0,0,0)"><path d="M 134.0000,136.6667 c 0.0000,-1.8409 -1.4924,-3.3333 -3.3333 -3.3333c -1.8409,-0.0000 -3.3333,1.4924 -3.3333 3.3333c -0.0000,1.8409 1.4924,3.3333 3.3333 3.3333c 1.8409,0.0000 3.3333,-1.4924 3.3333 -3.3333Z"/></g><g stroke-linecap="butt" fill="rgb(0,0,255)" stroke-miterlimit="10.0" stroke-width="1.2" fill-opacity="1.0" stroke-opacity="1.0" stroke-linejoin="miter" stroke="rgb(0,0,0)"><path d="M 166.0000,120.0000 c 0.0000,-1.8409 -1.4924,-3.3333 -3.3333 -3.3333c -1.8409,-0.0000 -3.3333,1.4924 -3.3333 3.3333c -0.0000,1.8409 1.4924,3.3333 3.3333 3.3333c 1.8409,0.0000 3.3333,-1.4924 3.3333 -3.3333Z"/></g><g stroke-linecap="butt" fill="rgb(0,0,255)" stroke-miterlimit="10.0" stroke-width="1.2" fill-opacity="1.0" stroke-opacity="1.0" stroke-linejoin="miter" stroke="rgb(0,0,0)"><path d="M 84.6667,200.0000 c 0.0000,-1.8409 -1.4924,-3.3333 -3.3333 -3.3333c -1.8409,-0.0000 -3.3333,1.4924 -3.3333 3.3333c -0.0000,1.8409 1.4924,3.3333 3.3333 3.3333c 1.8409,0.0000 3.3333,-1.4924 3.3333 -3.3333Z"/></g><g stroke-linecap="butt" fill="rgb(0,0,255)" stroke-miterlimit="10.0" stroke-width="1.2" fill-opacity="1.0" stroke-opacity="1.0" stroke-linejoin="miter" stroke="rgb(0,0,0)"><path d="M 130.6667,186.0000 c 0.0000,-1.8409 -1.4924,-3.3333 -3.3333 -3.3333c -1.8409,-0.0000 -3.3333,1.4924 -3.3333 3.3333c -0.0000,1.8409 1.4924,3.3333 3.3333 3.3333c 1.8409,0.0000 3.3333,-1.4924 3.3333 -3.3333Z"/></g><g stroke-linecap="butt" fill="rgb(0,0,255)" stroke-miterlimit="10.0" stroke-width="1.2" fill-opacity="1.0" stroke-opacity="1.0" stroke-linejoin="miter" stroke="rgb(0,0,0)"><path d="M 102.0000,118.6667 c 0.0000,-1.8409 -1.4924,-3.3333 -3.3333 -3.3333c -1.8409,-0.0000 -3.3333,1.4924 -3.3333 3.3333c -0.0000,1.8409 1.4924,3.3333 3.3333 3.3333c 1.8409,0.0000 3.3333,-1.4924 3.3333 -3.3333Z"/></g><g stroke-linecap="butt" fill="rgb(0,0,255)" stroke-miterlimit="10.0" stroke-width="1.2" fill-opacity="1.0" stroke-opacity="1.0" stroke-linejoin="miter" stroke="rgb(0,0,0)"><path d="M 220.0000,236.6667 c 0.0000,-1.8409 -1.4924,-3.3333 -3.3333 -3.3333c -1.8409,-0.0000 -3.3333,1.4924 -3.3333 3.3333c -0.0000,1.8409 1.4924,3.3333 3.3333 3.3333c 1.8409,0.0000 3.3333,-1.4924 3.3333 -3.3333Z"/></g><g stroke-linecap="butt" fill="rgb(0,0,255)" stroke-miterlimit="10.0" stroke-width="1.2" fill-opacity="1.0" stroke-opacity="1.0" stroke-linejoin="miter" stroke="rgb(0,0,0)"><path d="M 154.0000,117.3333 c 0.0000,-1.8409 -1.4924,-3.3333 -3.3333 -3.3333c -1.8409,-0.0000 -3.3333,1.4924 -3.3333 3.3333c -0.0000,1.8409 1.4924,3.3333 3.3333 3.3333c 1.8409,0.0000 3.3333,-1.4924 3.3333 -3.3333Z"/></g><g stroke-linecap="butt" fill="rgb(0,0,255)" stroke-miterlimit="10.0" stroke-width="1.2" fill-opacity="1.0" stroke-opacity="1.0" stroke-linejoin="miter" stroke="rgb(0,0,0)"><path d="M 155.3333,220.0000 c 0.0000,-1.8409 -1.4924,-3.3333 -3.3333 -3.3333c -1.8409,-0.0000 -3.3333,1.4924 -3.3333 3.3333c -0.0000,1.8409 1.4924,3.3333 3.3333 3.3333c 1.8409,0.0000 3.3333,-1.4924 3.3333 -3.3333Z"/></g><g stroke-linecap="butt" fill="rgb(0,0,255)" stroke-miterlimit="10.0" stroke-width="1.2" fill-opacity="1.0" stroke-opacity="1.0" stroke-linejoin="miter" stroke="rgb(0,0,0)"><path d="M 125.3333,114.6667 c 0.0000,-1.8409 -1.4924,-3.3333 -3.3333 -3.3333c -1.8409,-0.0000 -3.3333,1.4924 -3.3333 3.3333c -0.0000,1.8409 1.4924,3.3333 3.3333 3.3333c 1.8409,0.0000 3.3333,-1.4924 3.3333 -3.3333Z"/></g><g stroke-linecap="butt" fill="rgb(0,0,255)" stroke-miterlimit="10.0" stroke-width="1.2" fill-opacity="1.0" stroke-opacity="1.0" stroke-linejoin="miter" stroke="rgb(0,0,0)"><path d="M 243.3333,32.0000 c 0.0000,-1.8409 -1.4924,-3.3333 -3.3333 -3.3333c -1.8409,-0.0000 -3.3333,1.4924 -3.3333 3.3333c -0.0000,1.8409 1.4924,3.3333 3.3333 3.3333c 1.8409,0.0000 3.3333,-1.4924 3.3333 -3.3333Z"/></g><g stroke-linecap="butt" fill="rgb(0,0,255)" stroke-miterlimit="10.0" stroke-width="1.2" fill-opacity="1.0" stroke-opacity="1.0" stroke-linejoin="miter" stroke="rgb(0,0,0)"><path d="M 217.3333,160.6667 c 0.0000,-1.8409 -1.4924,-3.3333 -3.3333 -3.3333c -1.8409,-0.0000 -3.3333,1.4924 -3.3333 3.3333c -0.0000,1.8409 1.4924,3.3333 3.3333 3.3333c 1.8409,0.0000 3.3333,-1.4924 3.3333 -3.3333Z"/></g><g stroke-linecap="butt" fill="rgb(0,0,255)" stroke-miterlimit="10.0" stroke-width="1.2" fill-opacity="1.0" stroke-opacity="1.0" stroke-linejoin="miter" stroke="rgb(0,0,0)"><path d="M 166.6667,217.3333 c 0.0000,-1.8409 -1.4924,-3.3333 -3.3333 -3.3333c -1.8409,-0.0000 -3.3333,1.4924 -3.3333 3.3333c -0.0000,1.8409 1.4924,3.3333 3.3333 3.3333c 1.8409,0.0000 3.3333,-1.4924 3.3333 -3.3333Z"/></g><g stroke-linecap="butt" fill="rgb(0,0,255)" stroke-miterlimit="10.0" stroke-width="1.2" fill-opacity="1.0" stroke-opacity="1.0" stroke-linejoin="miter" stroke="rgb(0,0,0)"><path d="M 68.6667,116.0000 c 0.0000,-1.8409 -1.4924,-3.3333 -3.3333 -3.3333c -1.8409,-0.0000 -3.3333,1.4924 -3.3333 3.3333c -0.0000,1.8409 1.4924,3.3333 3.3333 3.3333c 1.8409,0.0000 3.3333,-1.4924 3.3333 -3.3333Z"/></g><g stroke-linecap="butt" fill="rgb(0,0,255)" stroke-miterlimit="10.0" stroke-width="1.2" fill-opacity="1.0" stroke-opacity="1.0" stroke-linejoin="miter" stroke="rgb(0,0,0)"><path d="M 246.6667,210.0000 c 0.0000,-1.8409 -1.4924,-3.3333 -3.3333 -3.3333c -1.8409,-0.0000 -3.3333,1.4924 -3.3333 3.3333c -0.0000,1.8409 1.4924,3.3333 3.3333 3.3333c 1.8409,0.0000 3.3333,-1.4924 3.3333 -3.3333Z"/></g><g stroke-linecap="butt" fill="rgb(0,0,255)" stroke-miterlimit="10.0" stroke-width="1.2" fill-opacity="1.0" stroke-opacity="1.0" stroke-linejoin="miter" stroke="rgb(0,0,0)"><path d="M 110.6667,48.0000 c 0.0000,-1.8409 -1.4924,-3.3333 -3.3333 -3.3333c -1.8409,-0.0000 -3.3333,1.4924 -3.3333 3.3333c -0.0000,1.8409 1.4924,3.3333 3.3333 3.3333c 1.8409,0.0000 3.3333,-1.4924 3.3333 -3.3333Z"/></g><g stroke-linecap="butt" fill="rgb(0,0,255)" stroke-miterlimit="10.0" stroke-width="1.2" fill-opacity="1.0" stroke-opacity="1.0" stroke-linejoin="miter" stroke="rgb(0,0,0)"><path d="M 62.6667,72.0000 c 0.0000,-1.8409 -1.4924,-3.3333 -3.3333 -3.3333c -1.8409,-0.0000 -3.3333,1.4924 -3.3333 3.3333c -0.0000,1.8409 1.4924,3.3333 3.3333 3.3333c 1.8409,0.0000 3.3333,-1.4924 3.3333 -3.3333Z"/></g><g stroke-linecap="butt" fill="rgb(0,0,255)" stroke-miterlimit="10.0" stroke-width="1.2" fill-opacity="1.0" stroke-opacity="1.0" stroke-linejoin="miter" stroke="rgb(0,0,0)"><path d="M 58.6667,204.0000 c 0.0000,-1.8409 -1.4924,-3.3333 -3.3333 -3.3333c -1.8409,-0.0000 -3.3333,1.4924 -3.3333 3.3333c -0.0000,1.8409 1.4924,3.3333 3.3333 3.3333c 1.8409,0.0000 3.3333,-1.4924 3.3333 -3.3333Z"/></g><g stroke-linecap="butt" fill="rgb(0,0,255)" stroke-miterlimit="10.0" stroke-width="1.2" fill-opacity="1.0" stroke-opacity="1.0" stroke-linejoin="miter" stroke="rgb(0,0,0)"><path d="M 157.3333,191.3333 c 0.0000,-1.8409 -1.4924,-3.3333 -3.3333 -3.3333c -1.8409,-0.0000 -3.3333,1.4924 -3.3333 3.3333c -0.0000,1.8409 1.4924,3.3333 3.3333 3.3333c 1.8409,0.0000 3.3333,-1.4924 3.3333 -3.3333Z"/></g><g stroke-linecap="butt" fill="rgb(0,0,255)" stroke-miterlimit="10.0" stroke-width="1.2" fill-opacity="1.0" stroke-opacity="1.0" stroke-linejoin="miter" stroke="rgb(0,0,0)"><path d="M 84.6667,154.6667 c 0.0000,-1.8409 -1.4924,-3.3333 -3.3333 -3.3333c -1.8409,-0.0000 -3.3333,1.4924 -3.3333 3.3333c -0.0000,1.8409 1.4924,3.3333 3.3333 3.3333c 1.8409,0.0000 3.3333,-1.4924 3.3333 -3.3333Z"/></g><g stroke-linecap="butt" fill="rgb(0,0,255)" stroke-miterlimit="10.0" stroke-width="1.2" fill-opacity="1.0" stroke-opacity="1.0" stroke-linejoin="miter" stroke="rgb(0,0,0)"><path d="M 114.0000,187.3333 c 0.0000,-1.8409 -1.4924,-3.3333 -3.3333 -3.3333c -1.8409,-0.0000 -3.3333,1.4924 -3.3333 3.3333c -0.0000,1.8409 1.4924,3.3333 3.3333 3.3333c 1.8409,0.0000 3.3333,-1.4924 3.3333 -3.3333Z"/></g><g stroke-linecap="butt" fill="rgb(0,0,255)" stroke-miterlimit="10.0" stroke-width="1.2" fill-opacity="1.0" stroke-opacity="1.0" stroke-linejoin="miter" stroke="rgb(0,0,0)"><path d="M 72.6667,78.0000 c 0.0000,-1.8409 -1.4924,-3.3333 -3.3333 -3.3333c -1.8409,-0.0000 -3.3333,1.4924 -3.3333 3.3333c -0.0000,1.8409 1.4924,3.3333 3.3333 3.3333c 1.8409,0.0000 3.3333,-1.4924 3.3333 -3.3333Z"/></g><g stroke-linecap="butt" fill="rgb(0,0,255)" stroke-miterlimit="10.0" stroke-width="1.2" fill-opacity="1.0" stroke-opacity="1.0" stroke-linejoin="miter" stroke="rgb(0,0,0)"><path d="M 154.6667,231.3333 c 0.0000,-1.8409 -1.4924,-3.3333 -3.3333 -3.3333c -1.8409,-0.0000 -3.3333,1.4924 -3.3333 3.3333c -0.0000,1.8409 1.4924,3.3333 3.3333 3.3333c 1.8409,0.0000 3.3333,-1.4924 3.3333 -3.3333Z"/></g><g stroke-linecap="butt" fill="rgb(0,0,255)" stroke-miterlimit="10.0" stroke-width="1.2" fill-opacity="1.0" stroke-opacity="1.0" stroke-linejoin="miter" stroke="rgb(0,0,0)"><path d="M 164.0000,74.0000 c 0.0000,-1.8409 -1.4924,-3.3333 -3.3333 -3.3333c -1.8409,-0.0000 -3.3333,1.4924 -3.3333 3.3333c -0.0000,1.8409 1.4924,3.3333 3.3333 3.3333c 1.8409,0.0000 3.3333,-1.4924 3.3333 -3.3333Z"/></g><g stroke-linecap="butt" fill="rgb(0,0,255)" stroke-miterlimit="10.0" stroke-width="1.2" fill-opacity="1.0" stroke-opacity="1.0" stroke-linejoin="miter" stroke="rgb(0,0,0)"><path d="M 258.0000,118.6667 c 0.0000,-1.8409 -1.4924,-3.3333 -3.3333 -3.3333c -1.8409,-0.0000 -3.3333,1.4924 -3.3333 3.3333c -0.0000,1.8409 1.4924,3.3333 3.3333 3.3333c 1.8409,0.0000 3.3333,-1.4924 3.3333 -3.3333Z"/></g><g stroke-linecap="butt" fill="rgb(0,0,255)" stroke-miterlimit="10.0" stroke-width="1.2" fill-opacity="1.0" stroke-opacity="1.0" stroke-linejoin="miter" stroke="rgb(0,0,0)"><path d="M 133.3333,244.0000 c 0.0000,-1.8409 -1.4924,-3.3333 -3.3333 -3.3333c -1.8409,-0.0000 -3.3333,1.4924 -3.3333 3.3333c -0.0000,1.8409 1.4924,3.3333 3.3333 3.3333c 1.8409,0.0000 3.3333,-1.4924 3.3333 -3.3333Z"/></g><g stroke-linecap="butt" fill="rgb(0,0,255)" stroke-miterlimit="10.0" stroke-width="1.2" fill-opacity="1.0" stroke-opacity="1.0" stroke-linejoin="miter" stroke="rgb(0,0,0)"><path d="M 266.0000,239.3333 c 0.0000,-1.8409 -1.4924,-3.3333 -3.3333 -3.3333c -1.8409,-0.0000 -3.3333,1.4924 -3.3333 3.3333c -0.0000,1.8409 1.4924,3.3333 3.3333 3.3333c 1.8409,0.0000 3.3333,-1.4924 3.3333 -3.3333Z"/></g><g stroke-linecap="butt" fill="rgb(0,0,255)" stroke-miterlimit="10.0" stroke-width="1.2" fill-opacity="1.0" stroke-opacity="1.0" stroke-linejoin="miter" stroke="rgb(0,0,0)"><path d="M 187.3333,148.6667 c 0.0000,-1.8409 -1.4924,-3.3333 -3.3333 -3.3333c -1.8409,-0.0000 -3.3333,1.4924 -3.3333 3.3333c -0.0000,1.8409 1.4924,3.3333 3.3333 3.3333c 1.8409,0.0000 3.3333,-1.4924 3.3333 -3.3333Z"/></g><g stroke-linecap="butt" fill="rgb(0,0,255)" stroke-miterlimit="10.0" stroke-width="1.2" fill-opacity="1.0" stroke-opacity="1.0" stroke-linejoin="miter" stroke="rgb(0,0,0)"><path d="M 168.0000,108.0000 c 0.0000,-1.8409 -1.4924,-3.3333 -3.3333 -3.3333c -1.8409,-0.0000 -3.3333,1.4924 -3.3333 3.3333c -0.0000,1.8409 1.4924,3.3333 3.3333 3.3333c 1.8409,0.0000 3.3333,-1.4924 3.3333 -3.3333Z"/></g><g stroke-linecap="butt" fill="rgb(0,0,255)" stroke-miterlimit="10.0" stroke-width="1.2" fill-opacity="1.0" stroke-opacity="1.0" stroke-linejoin="miter" stroke="rgb(0,0,0)"><path d="M 66.0000,63.3333 c 0.0000,-1.8409 -1.4924,-3.3333 -3.3333 -3.3333c -1.8409,-0.0000 -3.3333,1.4924 -3.3333 3.3333c -0.0000,1.8409 1.4924,3.3333 3.3333 3.3333c 1.8409,0.0000 3.3333,-1.4924 3.3333 -3.3333Z"/></g><g stroke-linecap="butt" fill="rgb(0,0,255)" stroke-miterlimit="10.0" stroke-width="1.2" fill-opacity="1.0" stroke-opacity="1.0" stroke-linejoin="miter" stroke="rgb(0,0,0)"><path d="M 110.0000,202.6667 c 0.0000,-1.8409 -1.4924,-3.3333 -3.3333 -3.3333c -1.8409,-0.0000 -3.3333,1.4924 -3.3333 3.3333c -0.0000,1.8409 1.4924,3.3333 3.3333 3.3333c 1.8409,0.0000 3.3333,-1.4924 3.3333 -3.3333Z"/></g><g stroke-linecap="butt" fill="rgb(0,0,255)" stroke-miterlimit="10.0" stroke-width="1.2" fill-opacity="1.0" stroke-opacity="1.0" stroke-linejoin="miter" stroke="rgb(0,0,0)"><path d="M 240.6667,122.6667 c 0.0000,-1.8409 -1.4924,-3.3333 -3.3333 -3.3333c -1.8409,-0.0000 -3.3333,1.4924 -3.3333 3.3333c -0.0000,1.8409 1.4924,3.3333 3.3333 3.3333c 1.8409,0.0000 3.3333,-1.4924 3.3333 -3.3333Z"/></g><g stroke-linecap="butt" fill="rgb(0,0,255)" stroke-miterlimit="10.0" stroke-width="1.2" fill-opacity="1.0" stroke-opacity="1.0" stroke-linejoin="miter" stroke="rgb(0,0,0)"><path d="M 155.3333,104.6667 c 0.0000,-1.8409 -1.4924,-3.3333 -3.3333 -3.3333c -1.8409,-0.0000 -3.3333,1.4924 -3.3333 3.3333c -0.0000,1.8409 1.4924,3.3333 3.3333 3.3333c 1.8409,0.0000 3.3333,-1.4924 3.3333 -3.3333Z"/></g><g stroke-linecap="butt" fill="rgb(0,0,255)" stroke-miterlimit="10.0" stroke-width="1.2" fill-opacity="1.0" stroke-opacity="1.0" stroke-linejoin="miter" stroke="rgb(0,0,0)"><path d="M 60.0000,136.0000 c 0.0000,-1.8409 -1.4924,-3.3333 -3.3333 -3.3333c -1.8409,-0.0000 -3.3333,1.4924 -3.3333 3.3333c -0.0000,1.8409 1.4924,3.3333 3.3333 3.3333c 1.8409,0.0000 3.3333,-1.4924 3.3333 -3.3333Z"/></g><g stroke-linecap="butt" fill="rgb(0,0,255)" stroke-miterlimit="10.0" stroke-width="1.2" fill-opacity="1.0" stroke-opacity="1.0" stroke-linejoin="miter" stroke="rgb(0,0,0)"><path d="M 188.6667,222.6667 c 0.0000,-1.8409 -1.4924,-3.3333 -3.3333 -3.3333c -1.8409,-0.0000 -3.3333,1.4924 -3.3333 3.3333c -0.0000,1.8409 1.4924,3.3333 3.3333 3.3333c 1.8409,0.0000 3.3333,-1.4924 3.3333 -3.3333Z"/></g><g stroke-linecap="butt" fill="rgb(0,0,255)" stroke-miterlimit="10.0" stroke-width="1.2" fill-opacity="1.0" stroke-opacity="1.0" stroke-linejoin="miter" stroke="rgb(0,0,0)"><path d="M 164.0000,205.3333 c 0.0000,-1.8409 -1.4924,-3.3333 -3.3333 -3.3333c -1.8409,-0.0000 -3.3333,1.4924 -3.3333 3.3333c -0.0000,1.8409 1.4924,3.3333 3.3333 3.3333c 1.8409,0.0000 3.3333,-1.4924 3.3333 -3.3333Z"/></g><g stroke-linecap="butt" fill="rgb(0,0,255)" stroke-miterlimit="10.0" stroke-width="1.2" fill-opacity="1.0" stroke-opacity="1.0" stroke-linejoin="miter" stroke="rgb(0,0,0)"><path d="M 199.3333,138.6667 c 0.0000,-1.8409 -1.4924,-3.3333 -3.3333 -3.3333c -1.8409,-0.0000 -3.3333,1.4924 -3.3333 3.3333c -0.0000,1.8409 1.4924,3.3333 3.3333 3.3333c 1.8409,0.0000 3.3333,-1.4924 3.3333 -3.3333Z"/></g><g stroke-linecap="butt" fill="rgb(0,0,255)" stroke-miterlimit="10.0" stroke-width="1.2" fill-opacity="1.0" stroke-opacity="1.0" stroke-linejoin="miter" stroke="rgb(0,0,0)"><path d="M 116.0000,111.3333 c 0.0000,-1.8409 -1.4924,-3.3333 -3.3333 -3.3333c -1.8409,-0.0000 -3.3333,1.4924 -3.3333 3.3333c -0.0000,1.8409 1.4924,3.3333 3.3333 3.3333c 1.8409,0.0000 3.3333,-1.4924 3.3333 -3.3333Z"/></g><g stroke-linecap="butt" fill="rgb(0,0,255)" stroke-miterlimit="10.0" stroke-width="1.2" fill-opacity="1.0" stroke-opacity="1.0" stroke-linejoin="miter" stroke="rgb(0,0,0)"><path d="M 224.6667,54.6667 c 0.0000,-1.8409 -1.4924,-3.3333 -3.3333 -3.3333c -1.8409,-0.0000 -3.3333,1.4924 -3.3333 3.3333c -0.0000,1.8409 1.4924,3.3333 3.3333 3.3333c 1.8409,0.0000 3.3333,-1.4924 3.3333 -3.3333Z"/></g><g stroke-linecap="butt" fill="rgb(0,0,255)" stroke-miterlimit="10.0" stroke-width="1.2" fill-opacity="1.0" stroke-opacity="1.0" stroke-linejoin="miter" stroke="rgb(0,0,0)"><path d="M 102.6667,140.0000 c 0.0000,-1.8409 -1.4924,-3.3333 -3.3333 -3.3333c -1.8409,-0.0000 -3.3333,1.4924 -3.3333 3.3333c -0.0000,1.8409 1.4924,3.3333 3.3333 3.3333c 1.8409,0.0000 3.3333,-1.4924 3.3333 -3.3333Z"/></g><g stroke-linecap="butt" fill="rgb(0,0,255)" stroke-miterlimit="10.0" stroke-width="1.2" fill-opacity="1.0" stroke-opacity="1.0" stroke-linejoin="miter" stroke="rgb(0,0,0)"><path d="M 218.0000,106.0000 c 0.0000,-1.8409 -1.4924,-3.3333 -3.3333 -3.3333c -1.8409,-0.0000 -3.3333,1.4924 -3.3333 3.3333c -0.0000,1.8409 1.4924,3.3333 3.3333 3.3333c 1.8409,0.0000 3.3333,-1.4924 3.3333 -3.3333Z"/></g><g stroke-linecap="butt" fill="rgb(0,0,255)" stroke-miterlimit="10.0" stroke-width="1.2" fill-opacity="1.0" stroke-opacity="1.0" stroke-linejoin="miter" stroke="rgb(0,0,0)"><path d="M 117.3333,200.0000 c 0.0000,-1.8409 -1.4924,-3.3333 -3.3333 -3.3333c -1.8409,-0.0000 -3.3333,1.4924 -3.3333 3.3333c -0.0000,1.8409 1.4924,3.3333 3.3333 3.3333c 1.8409,0.0000 3.3333,-1.4924 3.3333 -3.3333Z"/></g><g stroke-linecap="butt" fill="rgb(0,0,255)" stroke-miterlimit="10.0" stroke-width="1.2" fill-opacity="1.0" stroke-opacity="1.0" stroke-linejoin="miter" stroke="rgb(0,0,0)"><path d="M 55.3333,213.3333 c 0.0000,-1.8409 -1.4924,-3.3333 -3.3333 -3.3333c -1.8409,-0.0000 -3.3333,1.4924 -3.3333 3.3333c -0.0000,1.8409 1.4924,3.3333 3.3333 3.3333c 1.8409,0.0000 3.3333,-1.4924 3.3333 -3.3333Z"/></g><g stroke-linecap="butt" fill="rgb(0,0,255)" stroke-miterlimit="10.0" stroke-width="1.2" fill-opacity="1.0" stroke-opacity="1.0" stroke-linejoin="miter" stroke="rgb(0,0,0)"><path d="M 104.0000,179.3333 c 0.0000,-1.8409 -1.4924,-3.3333 -3.3333 -3.3333c -1.8409,-0.0000 -3.3333,1.4924 -3.3333 3.3333c -0.0000,1.8409 1.4924,3.3333 3.3333 3.3333c 1.8409,0.0000 3.3333,-1.4924 3.3333 -3.3333Z"/></g><g stroke-linecap="butt" fill="rgb(0,0,255)" stroke-miterlimit="10.0" stroke-width="1.2" fill-opacity="1.0" stroke-opacity="1.0" stroke-linejoin="miter" stroke="rgb(0,0,0)"><path d="M 167.3333,196.0000 c 0.0000,-1.8409 -1.4924,-3.3333 -3.3333 -3.3333c -1.8409,-0.0000 -3.3333,1.4924 -3.3333 3.3333c -0.0000,1.8409 1.4924,3.3333 3.3333 3.3333c 1.8409,0.0000 3.3333,-1.4924 3.3333 -3.3333Z"/></g><g stroke-linecap="butt" fill="rgb(0,0,255)" stroke-miterlimit="10.0" stroke-width="1.2" fill-opacity="1.0" stroke-opacity="1.0" stroke-linejoin="miter" stroke="rgb(0,0,0)"><path d="M 126.6667,233.3333 c 0.0000,-1.8409 -1.4924,-3.3333 -3.3333 -3.3333c -1.8409,-0.0000 -3.3333,1.4924 -3.3333 3.3333c -0.0000,1.8409 1.4924,3.3333 3.3333 3.3333c 1.8409,0.0000 3.3333,-1.4924 3.3333 -3.3333Z"/></g><g stroke-linecap="butt" fill="rgb(0,0,255)" stroke-miterlimit="10.0" stroke-width="1.2" fill-opacity="1.0" stroke-opacity="1.0" stroke-linejoin="miter" stroke="rgb(0,0,0)"><path d="M 116.6667,174.0000 c 0.0000,-1.8409 -1.4924,-3.3333 -3.3333 -3.3333c -1.8409,-0.0000 -3.3333,1.4924 -3.3333 3.3333c -0.0000,1.8409 1.4924,3.3333 3.3333 3.3333c 1.8409,0.0000 3.3333,-1.4924 3.3333 -3.3333Z"/></g><g stroke-linecap="butt" fill="rgb(0,0,255)" stroke-miterlimit="10.0" stroke-width="1.2" fill-opacity="1.0" stroke-opacity="1.0" stroke-linejoin="miter" stroke="rgb(0,0,0)"><path d="M 78.0000,200.6667 c 0.0000,-1.8409 -1.4924,-3.3333 -3.3333 -3.3333c -1.8409,-0.0000 -3.3333,1.4924 -3.3333 3.3333c -0.0000,1.8409 1.4924,3.3333 3.3333 3.3333c 1.8409,0.0000 3.3333,-1.4924 3.3333 -3.3333Z"/></g><g stroke-linecap="butt" fill="rgb(0,0,255)" stroke-miterlimit="10.0" stroke-width="1.2" fill-opacity="1.0" stroke-opacity="1.0" stroke-linejoin="miter" stroke="rgb(0,0,0)"><path d="M 212.6667,64.6667 c 0.0000,-1.8409 -1.4924,-3.3333 -3.3333 -3.3333c -1.8409,-0.0000 -3.3333,1.4924 -3.3333 3.3333c -0.0000,1.8409 1.4924,3.3333 3.3333 3.3333c 1.8409,0.0000 3.3333,-1.4924 3.3333 -3.3333Z"/></g><g stroke-linecap="butt" fill="rgb(0,0,255)" stroke-miterlimit="10.0" stroke-width="1.2" fill-opacity="1.0" stroke-opacity="1.0" stroke-linejoin="miter" stroke="rgb(0,0,0)"><path d="M 250.0000,141.3333 c 0.0000,-1.8409 -1.4924,-3.3333 -3.3333 -3.3333c -1.8409,-0.0000 -3.3333,1.4924 -3.3333 3.3333c -0.0000,1.8409 1.4924,3.3333 3.3333 3.3333c 1.8409,0.0000 3.3333,-1.4924 3.3333 -3.3333Z"/></g><g stroke-linecap="butt" fill="rgb(0,0,255)" stroke-miterlimit="10.0" stroke-width="1.2" fill-opacity="1.0" stroke-opacity="1.0" stroke-linejoin="miter" stroke="rgb(0,0,0)"><path d="M 101.3333,68.0000 c 0.0000,-1.8409 -1.4924,-3.3333 -3.3333 -3.3333c -1.8409,-0.0000 -3.3333,1.4924 -3.3333 3.3333c -0.0000,1.8409 1.4924,3.3333 3.3333 3.3333c 1.8409,0.0000 3.3333,-1.4924 3.3333 -3.3333Z"/></g><g stroke-linecap="butt" fill="rgb(0,0,255)" stroke-miterlimit="10.0" stroke-width="1.2" fill-opacity="1.0" stroke-opacity="1.0" stroke-linejoin="miter" stroke="rgb(0,0,0)"><path d="M 220.6667,156.6667 c 0.0000,-1.8409 -1.4924,-3.3333 -3.3333 -3.3333c -1.8409,-0.0000 -3.3333,1.4924 -3.3333 3.3333c -0.0000,1.8409 1.4924,3.3333 3.3333 3.3333c 1.8409,0.0000 3.3333,-1.4924 3.3333 -3.3333Z"/></g><g stroke-linecap="butt" fill="rgb(0,0,255)" stroke-miterlimit="10.0" stroke-width="1.2" fill-opacity="1.0" stroke-opacity="1.0" stroke-linejoin="miter" stroke="rgb(0,0,0)"><path d="M 70.6667,180.0000 c 0.0000,-1.8409 -1.4924,-3.3333 -3.3333 -3.3333c -1.8409,-0.0000 -3.3333,1.4924 -3.3333 3.3333c -0.0000,1.8409 1.4924,3.3333 3.3333 3.3333c 1.8409,0.0000 3.3333,-1.4924 3.3333 -3.3333Z"/></g><g stroke-linecap="butt" fill="rgb(0,0,255)" stroke-miterlimit="10.0" stroke-width="1.2" fill-opacity="1.0" stroke-opacity="1.0" stroke-linejoin="miter" stroke="rgb(0,0,0)"><path d="M 194.0000,187.3333 c 0.0000,-1.8409 -1.4924,-3.3333 -3.3333 -3.3333c -1.8409,-0.0000 -3.3333,1.4924 -3.3333 3.3333c -0.0000,1.8409 1.4924,3.3333 3.3333 3.3333c 1.8409,0.0000 3.3333,-1.4924 3.3333 -3.3333Z"/></g><g stroke-linecap="butt" fill="rgb(0,0,255)" stroke-miterlimit="10.0" stroke-width="1.2" fill-opacity="1.0" stroke-opacity="1.0" stroke-linejoin="miter" stroke="rgb(0,0,0)"><path d="M 128.0000,69.3333 c 0.0000,-1.8409 -1.4924,-3.3333 -3.3333 -3.3333c -1.8409,-0.0000 -3.3333,1.4924 -3.3333 3.3333c -0.0000,1.8409 1.4924,3.3333 3.3333 3.3333c 1.8409,0.0000 3.3333,-1.4924 3.3333 -3.3333Z"/></g></svg>