<?xml version="1.0" encoding="UTF-8"?>
<!DOCTYPE svg PUBLIC "-//W3C//DTD SVG 1.1//EN"
    "http://www.w3.org/Graphics/SVG/1.1/DTD/svg11.dtd"><svg xmlns="http://www.w3.org/2000/svg" viewBox="0.0 0.0 500.0 500.0" height="500.0000" font-size="1" stroke-opacity="1" width="500.0000" xmlns:xlink="http://www.w3.org/1999/xlink" stroke="rgb(0,0,0)" version="1.1"><defs></defs><g stroke-linecap="butt" fill="rgb(0,0,0)" stroke-miterlimit="10.0" stroke-width="1.9999999999999998" fill-opacity="0.0" stroke-opacity="1.0" stroke-linejoin="miter" stroke="rgb(0,0,0)"><path d="M 0.0000,445.6522 h 482.5000 "/></g><g stroke-linecap="butt" fill="rgb(0,0,0)" stroke-miterlimit="10.0" stroke-width="0.0" fill-opacity="1.0" stroke-opacity="1.0" stroke-linejoin="miter" stroke="rgb(0,0,0)"></g><g stroke-linecap="butt" fill="rgb(0,0,0)" stroke-miterlimit="10.0" stroke-width="0.0" fill-opacity="1.0" stroke-opacity="1.0" stroke-linejoin="miter" stroke="rgb(0,0,0)"></g><g stroke-linecap="butt" fill="rgb(0,0,0)" stroke-miterlimit="10.0" stroke-width="0.0" fill-opacity="1.0" stroke-opacity="1.0" stroke-linejoin="miter" stroke="rgb(0,0,0)"><path d="M 500.0000,445.6522 l -20.4712,-6.6515 l 3.4969,6.6515 l -3.4969,6.6515 Z"/></g><g stroke-linecap="butt" fill="rgb(0,0,0)" stroke-miterlimit="10.0" stroke-width="0.0" fill-opacity="1.0" stroke-opacity="1.0" stroke-linejoin="miter" stroke="rgb(0,0,0)"><path d="M 483.0257,445.6522 h -0.5257 v -1.0000 l 0.5257,1.0000 h -0.5257 v 1.0000 Z"/></g><g stroke-linecap="butt" fill="rgb(0,0,0)" stroke-miterlimit="10.0" stroke-width="1.9999999999999998" fill-opacity="0.0" stroke-opacity="1.0" stroke-linejoin="miter" stroke="rgb(0,0,0)"><path d="M 54.3478,500.0000 l 0.0000,-482.5000 "/></g><g stroke-linecap="butt" fill="rgb(0,0,0)" stroke-miterlimit="10.0" stroke-width="0.0" fill-opacity="1.0" stroke-opacity="1.0" stroke-linejoin="miter" stroke="rgb(0,0,0)"></g><g stroke-linecap="butt" fill="rgb(0,0,0)" stroke-miterlimit="10.0" stroke-width="0.0" fill-opacity="1.0" stroke-opacity="1.0" stroke-linejoin="miter" stroke="rgb(0,0,0)"></g><g stroke-linecap="butt" fill="rgb(0,0,0)" stroke-miterlimit="10.0" stroke-width="0.0" fill-opacity="1.0" stroke-opacity="1.0" stroke-linejoin="miter" stroke="rgb(0,0,0)"><path d="M 54.3478,-0.0000 l -6.6515,20.4712 l 6.6515,-3.4969 l 6.6515,3.4969 Z"/></g><g stroke-linecap="butt" fill="rgb(0,0,0)" stroke-miterlimit="10.0" stroke-width="0.0" fill-opacity="1.0" stroke-opacity="1.0" stroke-linejoin="miter" stroke="rgb(0,0,0)"><path d="M 54.3478,16.9743 l -0.0000,0.5257 l -1.0000,-0.0000 l 1.0000,-0.5257 l -0.0000,0.5257 l 1.0000,0.0000 Z"/></g><g stroke-linecap="butt" fill="rgb(255,0,0)" stroke-miterlimit="10.0" stroke-width="1.9999999999999998" fill-opacity="1.0" stroke-opacity="0.0" stroke-linejoin="miter" stroke="rgb(0,0,0)"><path d="M 467.5868,286.9205 c 0.0000,-1.2006 -0.9733,-2.1739 -2.1739 -2.1739c -1.2006,-0.0000 -2.1739,0.9733 -2.1739 2.1739c -0.0000,1.2006 0.9733,2.1739 2.1739 2.1739c 1.2006,0.0000 2.1739,-0.9733 2.1739 -2.1739Z"/></g><g stroke-linecap="butt" fill="rgb(255,0,0)" stroke-miterlimit="10.0" stroke-width="1.9999999999999998" fill-opacity="1.0" stroke-opacity="0.0" stroke-linejoin="miter" stroke="rgb(0,0,0)"><path d="M 458.5476,362.3878 c 0.0000,-1.2006 -0.9733,-2.1739 -2.1739 -2.1739c -1.2006,-0.0000 -2.1739,0.9733 -2.1739 2.1739c -0.0000,1.2006 0.9733,2.1739 2.1739 2.1739c 1.2006,0.0000 2.1739,-0.9733 2.1739 -2.1739Z"/></g><g stroke-linecap="butt" fill="rgb(255,0,0)" stroke-miterlimit="10.0" stroke-width="1.9999999999999998" fill-opacity="1.0" stroke-opacity="0.0" stroke-linejoin="miter" stroke="rgb(0,0,0)"><path d="M 349.3995,39.3261 c 0.0000,-1.2006 -0.9733,-2.1739 -2.1739 -2.1739c -1.2006,-0.0000 -2.1739,0.9733 -2.1739 2.1739c -0.0000,1.2006 0.9733,2.1739 2.1739 2.1739c 1.2006,0.0000 2.1739,-0.9733 2.1739 -2.1739Z"/></g><g stroke-linecap="butt" fill="rgb(255,0,0)" stroke-miterlimit="10.0" stroke-width="1.9999999999999998" fill-opacity="1.0" stroke-opacity="0.0" stroke-linejoin="miter" stroke="rgb(0,0,0)"><path d="M 166.0231,435.8533 c 0.0000,-1.2006 -0.9733,-2.1739 -2.1739 -2.1739c -1.2006,-0.0000 -2.1739,0.9733 -2.1739 2.1739c -0.0000,1.2006 0.9733,2.1739 2.1739 2.1739c 1.2006,0.0000 2.1739,-0.9733 2.1739 -2.1739Z"/></g><g stroke-linecap="butt" fill="rgb(255,0,0)" stroke-miterlimit="10.0" stroke-width="1.9999999999999998" fill-opacity="1.0" stroke-opacity="0.0" stroke-linejoin="miter" stroke="rgb(0,0,0)"><path d="M 151.7579,258.7390 c 0.0000,-1.2006 -0.9733,-2.1739 -2.1739 -2.1739c -1.2006,-0.0000 -2.1739,0.9733 -2.1739 2.1739c -0.0000,1.2006 0.9733,2.1739 2.1739 2.1739c 1.2006,0.0000 2.1739,-0.9733 2.1739 -2.1739Z"/></g><g stroke-linecap="butt" fill="rgb(255,0,0)" stroke-miterlimit="10.0" stroke-width="1.9999999999999998" fill-opacity="1.0" stroke-opacity="0.0" stroke-linejoin="miter" stroke="rgb(0,0,0)"><path d="M 65.3744,437.9345 c 0.0000,-1.2006 -0.9733,-2.1739 -2.1739 -2.1739c -1.2006,-0.0000 -2.1739,0.9733 -2.1739 2.1739c -0.0000,1.2006 0.9733,2.1739 2.1739 2.1739c 1.2006,0.0000 2.1739,-0.9733 2.1739 -2.1739Z"/></g><g stroke-linecap="butt" fill="rgb(0,0,255)" stroke-miterlimit="10.0" stroke-width="1.9999999999999998" fill-opacity="1.0" stroke-opacity="0.0" stroke-linejoin="miter" stroke="rgb(0,0,0)"><path d="M 256.5418,290.1566 c 0.0000,-1.2006 -0.9733,-2.1739 -2.1739 -2.1739c -1.2006,-0.0000 -2.1739,0.9733 -2.1739 2.1739c -0.0000,1.2006 0.9733,2.1739 2.1739 2.1739c 1.2006,0.0000 2.1739,-0.9733 2.1739 -2.1739Z"/></g><g stroke-linecap="butt" fill="rgb(0,0,255)" stroke-miterlimit="10.0" stroke-width="1.9999999999999998" fill-opacity="1.0" stroke-opacity="0.0" stroke-linejoin="miter" stroke="rgb(0,0,0)"><path d="M 368.7633,152.3795 c 0.0000,-1.2006 -0.9733,-2.1739 -2.1739 -2.1739c -1.2006,-0.0000 -2.1739,0.9733 -2.1739 2.1739c -0.0000,1.2006 0.9733,2.1739 2.1739 2.1739c 1.2006,0.0000 2.1739,-0.9733 2.1739 -2.1739Z"/></g><g stroke-linecap="butt" fill="rgb(0,0,255)" stroke-miterlimit="10.0" stroke-width="1.9999999999999998" fill-opacity="1.0" stroke-opacity="0.0" stroke-linejoin="miter" stroke="rgb(0,0,0)"><path d="M 166.3517,415.4920 c 0.0000,-1.2006 -0.9733,-2.1739 -2.1739 -2.1739c -1.2006,-0.0000 -2.1739,0.9733 -2.1739 2.1739c -0.0000,1.2006 0.9733,2.1739 2.1739 2.1739c 1.2006,0.0000 2.1739,-0.9733 2.1739 -2.1739Z"/></g><g stroke-linecap="butt" fill="rgb(0,0,255)" stroke-miterlimit="10.0" stroke-width="1.9999999999999998" fill-opacity="1.0" stroke-opacity="0.0" stroke-linejoin="miter" stroke="rgb(0,0,0)"><path d="M 201.4770,280.1727 c 0.0000,-1.2006 -0.9733,-2.1739 -2.1739 -2.1739c -1.2006,-0.0000 -2.1739,0.9733 -2.1739 2.1739c -0.0000,1.2006 0.9733,2.1739 2.1739 2.1739c 1.2006,0.0000 2.1739,-0.9733 2.1739 -2.1739Z"/></g></svg>