<?xml version="1.0" encoding="UTF-8"?>
<!DOCTYPE svg PUBLIC "-//W3C//DTD SVG 1.1//EN"
    "http://www.w3.org/Graphics/SVG/1.1/DTD/svg11.dtd"><svg xmlns="http://www.w3.org/2000/svg" viewBox="0.0 0.0 500.0 500.0" height="500.0000" font-size="1" stroke-opacity="1" width="500.0000" xmlns:xlink="http://www.w3.org/1999/xlink" stroke="rgb(0,0,0)" version="1.1"><defs></defs><g stroke-linecap="butt" fill="rgb(0,0,0)" stroke-miterlimit="10.0" stroke-width="1.9999999999999998" fill-opacity="0.0" stroke-opacity="1.0" stroke-linejoin="miter" stroke="rgb(0,0,0)"><path d="M 0.0000,445.6522 h 482.5000 "/></g><g stroke-linecap="butt" fill="rgb(0,0,0)" stroke-miterlimit="10.0" stroke-width="0.0" fill-opacity="1.0" stroke-opacity="1.0" stroke-linejoin="miter" stroke="rgb(0,0,0)"></g><g stroke-linecap="butt" fill="rgb(0,0,0)" stroke-miterlimit="10.0" stroke-width="0.0" fill-opacity="1.0" stroke-opacity="1.0" stroke-linejoin="miter" stroke="rgb(0,0,0)"></g><g stroke-linecap="butt" fill="rgb(0,0,0)" stroke-miterlimit="10.0" stroke-width="0.0" fill-opacity="1.0" stroke-opacity="1.0" stroke-linejoin="miter" stroke="rgb(0,0,0)"><path d="M 500.0000,445.6522 l -20.4712,-6.6515 l 3.4969,6.6515 l -3.4969,6.6515 Z"/></g><g stroke-linecap="butt" fill="rgb(0,0,0)" stroke-miterlimit="10.0" stroke-width="0.0" fill-opacity="1.0" stroke-opacity="1.0" stroke-linejoin="miter" stroke="rgb(0,0,0)"><path d="M 483.0257,445.6522 h -0.5257 v -1.0000 l 0.5257,1.0000 h -0.5257 v 1.0000 Z"/></g><g stroke-linecap="butt" fill="rgb(0,0,0)" stroke-miterlimit="10.0" stroke-width="1.9999999999999998" fill-opacity="0.0" stroke-opacity="1.0" stroke-linejoin="miter" stroke="rgb(0,0,0)"><path d="M 54.3478,500.0000 l 0.0000,-482.5000 "/></g><g stroke-linecap="butt" fill="rgb(0,0,0)" stroke-miterlimit="10.0" stroke-width="0.0" fill-opacity="1.0" stroke-opacity="1.0" stroke-linejoin="miter" stroke="rgb(0,0,0)"></g><g stroke-linecap="butt" fill="rgb(0,0,0)" stroke-miterlimit="10.0" stroke-width="0.0" fill-opacity="1.0" stroke-opacity="1.0" stroke-linejoin="miter" stroke="rgb(0,0,0)"></g><g stroke-linecap="butt" fill="rgb(0,0,0)" stroke-miterlimit="10.0" stroke-width="0.0" fill-opacity="1.0" stroke-opacity="1.0" stroke-linejoin="miter" stroke="rgb(0,0,0)"><path d="M 54.3478,-0.0000 l -6.6515,20.4712 l 6.6515,-3.4969 l 6.6515,3.4969 Z"/></g><g stroke-linecap="butt" fill="rgb(0,0,0)" stroke-miterlimit="10.0" stroke-width="0.0" fill-opacity="1.0" stroke-opacity="1.0" stroke-linejoin="miter" stroke="rgb(0,0,0)"><path d="M 54.3478,16.9743 l -0.0000,0.5257 l -1.0000,-0.0000 l 1.0000,-0.5257 l -0.0000,0.5257 l 1.0000,0.0000 Z"/></g><g stroke-linecap="butt" fill="rgb(255,0,0)" stroke-miterlimit="10.0" stroke-width="1.9999999999999998" fill-opacity="1.0" stroke-opacity="0.0" stroke-linejoin="miter" stroke="rgb(0,0,0)"><path d="M 489.7112,195.3413 c 0.0000,-1.2006 -0.9733,-2.1739 -2.1739 -2.1739c -1.2006,-0.0000 -2.1739,0.9733 -2.1739 2.1739c -0.0000,1.2006 0.9733,2.1739 2.1739 2.1739c 1.2006,0.0000 2.1739,-0.9733 2.1739 -2.1739Z"/></g><g stroke-linecap="butt" fill="rgb(255,0,0)" stroke-miterlimit="10.0" stroke-width="1.9999999999999998" fill-opacity="1.0" stroke-opacity="0.0" stroke-linejoin="miter" stroke="rgb(0,0,0)"><path d="M 485.3777,433.9294 c 0.0000,-1.2006 -0.9733,-2.1739 -2.1739 -2.1739c -1.2006,-0.0000 -2.1739,0.9733 -2.1739 2.1739c -0.0000,1.2006 0.9733,2.1739 2.1739 2.1739c 1.2006,0.0000 2.1739,-0.9733 2.1739 -2.1739Z"/></g><g stroke-linecap="butt" fill="rgb(255,0,0)" stroke-miterlimit="10.0" stroke-width="1.9999999999999998" fill-opacity="1.0" stroke-opacity="0.0" stroke-linejoin="miter" stroke="rgb(0,0,0)"><path d="M 483.7907,119.4271 c 0.0000,-1.2006 -0.9733,-2.1739 -2.1739 -2.1739c -1.2006,-0.0000 -2.1739,0.9733 -2.1739 2.1739c -0.0000,1.2006 0.9733,2.1739 2.1739 2.1739c 1.2006,0.0000 2.1739,-0.9733 2.1739 -2.1739Z"/></g><g stroke-linecap="butt" fill="rgb(255,0,0)" stroke-miterlimit="10.0" stroke-width="1.9999999999999998" fill-opacity="1.0" stroke-opacity="0.0" stroke-linejoin="miter" stroke="rgb(0,0,0)"><path d="M 472.7690,90.4011 c 0.0000,-1.2006 -0.9733,-2.1739 -2.1739 -2.1739c -1.2006,-0.0000 -2.1739,0.9733 -2.1739 2.1739c -0.0000,1.2006 0.9733,2.1739 2.1739 2.1739c 1.2006,0.0000 2.1739,-0.9733 2.1739 -2.1739Z"/></g><g stroke-linecap="butt" fill="rgb(255,0,0)" stroke-miterlimit="10.0" stroke-width="1.9999999999999998" fill-opacity="1.0" stroke-opacity="0.0" stroke-linejoin="miter" stroke="rgb(0,0,0)"><path d="M 471.6905,138.9246 c 0.0000,-1.2006 -0.9733,-2.1739 -2.1739 -2.1739c -1.2006,-0.0000 -2.1739,0.9733 -2.1739 2.1739c -0.0000,1.2006 0.9733,2.1739 2.1739 2.1739c 1.2006,0.0000 2.1739,-0.9733 2.1739 -2.1739Z"/></g><g stroke-linecap="butt" fill="rgb(255,0,0)" stroke-miterlimit="10.0" stroke-width="1.9999999999999998" fill-opacity="1.0" stroke-opacity="0.0" stroke-linejoin="miter" stroke="rgb(0,0,0)"><path d="M 454.0163,47.5120 c 0.0000,-1.2006 -0.9733,-2.1739 -2.1739 -2.1739c -1.2006,-0.0000 -2.1739,0.9733 -2.1739 2.1739c -0.0000,1.2006 0.9733,2.1739 2.1739 2.1739c 1.2006,0.0000 2.1739,-0.9733 2.1739 -2.1739Z"/></g><g stroke-linecap="butt" fill="rgb(255,0,0)" stroke-miterlimit="10.0" stroke-width="1.9999999999999998" fill-opacity="1.0" stroke-opacity="0.0" stroke-linejoin="miter" stroke="rgb(0,0,0)"><path d="M 357.6925,14.0878 c 0.0000,-1.2006 -0.9733,-2.1739 -2.1739 -2.1739c -1.2006,-0.0000 -2.1739,0.9733 -2.1739 2.1739c -0.0000,1.2006 0.9733,2.1739 2.1739 2.1739c 1.2006,0.0000 2.1739,-0.9733 2.1739 -2.1739Z"/></g><g stroke-linecap="butt" fill="rgb(255,0,0)" stroke-miterlimit="10.0" stroke-width="1.9999999999999998" fill-opacity="1.0" stroke-opacity="0.0" stroke-linejoin="miter" stroke="rgb(0,0,0)"><path d="M 314.3044,14.0468 c 0.0000,-1.2006 -0.9733,-2.1739 -2.1739 -2.1739c -1.2006,-0.0000 -2.1739,0.9733 -2.1739 2.1739c -0.0000,1.2006 0.9733,2.1739 2.1739 2.1739c 1.2006,0.0000 2.1739,-0.9733 2.1739 -2.1739Z"/></g><g stroke-linecap="butt" fill="rgb(255,0,0)" stroke-miterlimit="10.0" stroke-width="1.9999999999999998" fill-opacity="1.0" stroke-opacity="0.0" stroke-linejoin="miter" stroke="rgb(0,0,0)"><path d="M 284.1754,439.5724 c 0.0000,-1.2006 -0.9733,-2.1739 -2.1739 -2.1739c -1.2006,-0.0000 -2.1739,0.9733 -2.1739 2.1739c -0.0000,1.2006 0.9733,2.1739 2.1739 2.1739c 1.2006,0.0000 2.1739,-0.9733 2.1739 -2.1739Z"/></g><g stroke-linecap="butt" fill="rgb(255,0,0)" stroke-miterlimit="10.0" stroke-width="1.9999999999999998" fill-opacity="1.0" stroke-opacity="0.0" stroke-linejoin="miter" stroke="rgb(0,0,0)"><path d="M 132.0177,439.5473 c 0.0000,-1.2006 -0.9733,-2.1739 -2.1739 -2.1739c -1.2006,-0.0000 -2.1739,0.9733 -2.1739 2.1739c -0.0000,1.2006 0.9733,2.1739 2.1739 2.1739c 1.2006,0.0000 2.1739,-0.9733 2.1739 -2.1739Z"/></g><g stroke-linecap="butt" fill="rgb(255,0,0)" stroke-miterlimit="10.0" stroke-width="1.9999999999999998" fill-opacity="1.0" stroke-opacity="0.0" stroke-linejoin="miter" stroke="rgb(0,0,0)"><path d="M 110.1834,47.9347 c 0.0000,-1.2006 -0.9733,-2.1739 -2.1739 -2.1739c -1.2006,-0.0000 -2.1739,0.9733 -2.1739 2.1739c -0.0000,1.2006 0.9733,2.1739 2.1739 2.1739c 1.2006,0.0000 2.1739,-0.9733 2.1739 -2.1739Z"/></g><g stroke-linecap="butt" fill="rgb(255,0,0)" stroke-miterlimit="10.0" stroke-width="1.9999999999999998" fill-opacity="1.0" stroke-opacity="0.0" stroke-linejoin="miter" stroke="rgb(0,0,0)"><path d="M 98.4156,430.9105 c 0.0000,-1.2006 -0.9733,-2.1739 -2.1739 -2.1739c -1.2006,-0.0000 -2.1739,0.9733 -2.1739 2.1739c -0.0000,1.2006 0.9733,2.1739 2.1739 2.1739c 1.2006,0.0000 2.1739,-0.9733 2.1739 -2.1739Z"/></g><g stroke-linecap="butt" fill="rgb(255,0,0)" stroke-miterlimit="10.0" stroke-width="1.9999999999999998" fill-opacity="1.0" stroke-opacity="0.0" stroke-linejoin="miter" stroke="rgb(0,0,0)"><path d="M 75.9216,56.2475 c 0.0000,-1.2006 -0.9733,-2.1739 -2.1739 -2.1739c -1.2006,-0.0000 -2.1739,0.9733 -2.1739 2.1739c -0.0000,1.2006 0.9733,2.1739 2.1739 2.1739c 1.2006,0.0000 2.1739,-0.9733 2.1739 -2.1739Z"/></g><g stroke-linecap="butt" fill="rgb(255,0,0)" stroke-miterlimit="10.0" stroke-width="1.9999999999999998" fill-opacity="1.0" stroke-opacity="0.0" stroke-linejoin="miter" stroke="rgb(0,0,0)"><path d="M 58.9532,381.1748 c 0.0000,-1.2006 -0.9733,-2.1739 -2.1739 -2.1739c -1.2006,-0.0000 -2.1739,0.9733 -2.1739 2.1739c -0.0000,1.2006 0.9733,2.1739 2.1739 2.1739c 1.2006,0.0000 2.1739,-0.9733 2.1739 -2.1739Z"/></g><g stroke-linecap="butt" fill="rgb(0,0,255)" stroke-miterlimit="10.0" stroke-width="1.9999999999999998" fill-opacity="1.0" stroke-opacity="0.0" stroke-linejoin="miter" stroke="rgb(0,0,0)"><path d="M 328.9264,52.8348 c 0.0000,-1.2006 -0.9733,-2.1739 -2.1739 -2.1739c -1.2006,-0.0000 -2.1739,0.9733 -2.1739 2.1739c -0.0000,1.2006 0.9733,2.1739 2.1739 2.1739c 1.2006,0.0000 2.1739,-0.9733 2.1739 -2.1739Z"/></g><g stroke-linecap="butt" fill="rgb(0,0,255)" stroke-miterlimit="10.0" stroke-width="1.9999999999999998" fill-opacity="1.0" stroke-opacity="0.0" stroke-linejoin="miter" stroke="rgb(0,0,0)"><path d="M 416.9574,386.5190 c 0.0000,-1.2006 -0.9733,-2.1739 -2.1739 -2.1739c -1.2006,-0.0000 -2.1739,0.9733 -2.1739 2.1739c -0.0000,1.2006 0.9733,2.1739 2.1739 2.1739c 1.2006,0.0000 2.1739,-0.9733 2.1739 -2.1739Z"/></g><g stroke-linecap="butt" fill="rgb(0,0,255)" stroke-miterlimit="10.0" stroke-width="1.9999999999999998" fill-opacity="1.0" stroke-opacity="0.0" stroke-linejoin="miter" stroke="rgb(0,0,0)"><path d="M 184.6217,119.6596 c 0.0000,-1.2006 -0.9733,-2.1739 -2.1739 -2.1739c -1.2006,-0.0000 -2.1739,0.9733 -2.1739 2.1739c -0.0000,1.2006 0.9733,2.1739 2.1739 2.1739c 1.2006,0.0000 2.1739,-0.9733 2.1739 -2.1739Z"/></g><g stroke-linecap="butt" fill="rgb(0,0,255)" stroke-miterlimit="10.0" stroke-width="1.9999999999999998" fill-opacity="1.0" stroke-opacity="0.0" stroke-linejoin="miter" stroke="rgb(0,0,0)"><path d="M 114.1936,229.1740 c 0.0000,-1.2006 -0.9733,-2.1739 -2.1739 -2.1739c -1.2006,-0.0000 -2.1739,0.9733 -2.1739 2.1739c -0.0000,1.2006 0.9733,2.1739 2.1739 2.1739c 1.2006,0.0000 2.1739,-0.9733 2.1739 -2.1739Z"/></g><g stroke-linecap="butt" fill="rgb(0,0,255)" stroke-miterlimit="10.0" stroke-width="1.9999999999999998" fill-opacity="1.0" stroke-opacity="0.0" stroke-linejoin="miter" stroke="rgb(0,0,0)"><path d="M 373.5521,45.8125 c 0.0000,-1.2006 -0.9733,-2.1739 -2.1739 -2.1739c -1.2006,-0.0000 -2.1739,0.9733 -2.1739 2.1739c -0.0000,1.2006 0.9733,2.1739 2.1739 2.1739c 1.2006,0.0000 2.1739,-0.9733 2.1739 -2.1739Z"/></g><g stroke-linecap="butt" fill="rgb(0,0,255)" stroke-miterlimit="10.0" stroke-width="1.9999999999999998" fill-opacity="1.0" stroke-opacity="0.0" stroke-linejoin="miter" stroke="rgb(0,0,0)"><path d="M 101.8106,383.3529 c 0.0000,-1.2006 -0.9733,-2.1739 -2.1739 -2.1739c -1.2006,-0.0000 -2.1739,0.9733 -2.1739 2.1739c -0.0000,1.2006 0.9733,2.1739 2.1739 2.1739c 1.2006,0.0000 2.1739,-0.9733 2.1739 -2.1739Z"/></g><g stroke-linecap="butt" fill="rgb(0,0,255)" stroke-miterlimit="10.0" stroke-width="1.9999999999999998" fill-opacity="1.0" stroke-opacity="0.0" stroke-linejoin="miter" stroke="rgb(0,0,0)"><path d="M 448.3584,319.5150 c 0.0000,-1.2006 -0.9733,-2.1739 -2.1739 -2.1739c -1.2006,-0.0000 -2.1739,0.9733 -2.1739 2.1739c -0.0000,1.2006 0.9733,2.1739 2.1739 2.1739c 1.2006,0.0000 2.1739,-0.9733 2.1739 -2.1739Z"/></g><g stroke-linecap="butt" fill="rgb(0,0,255)" stroke-miterlimit="10.0" stroke-width="1.9999999999999998" fill-opacity="1.0" stroke-opacity="0.0" stroke-linejoin="miter" stroke="rgb(0,0,0)"><path d="M 166.5210,371.3335 c 0.0000,-1.2006 -0.9733,-2.1739 -2.1739 -2.1739c -1.2006,-0.0000 -2.1739,0.9733 -2.1739 2.1739c -0.0000,1.2006 0.9733,2.1739 2.1739 2.1739c 1.2006,0.0000 2.1739,-0.9733 2.1739 -2.1739Z"/></g><g stroke-linecap="butt" fill="rgb(0,0,255)" stroke-miterlimit="10.0" stroke-width="1.9999999999999998" fill-opacity="1.0" stroke-opacity="0.0" stroke-linejoin="miter" stroke="rgb(0,0,0)"><path d="M 88.6746,296.0882 c 0.0000,-1.2006 -0.9733,-2.1739 -2.1739 -2.1739c -1.2006,-0.0000 -2.1739,0.9733 -2.1739 2.1739c -0.0000,1.2006 0.9733,2.1739 2.1739 2.1739c 1.2006,0.0000 2.1739,-0.9733 2.1739 -2.1739Z"/></g><g stroke-linecap="butt" fill="rgb(0,0,255)" stroke-miterlimit="10.0" stroke-width="1.9999999999999998" fill-opacity="1.0" stroke-opacity="0.0" stroke-linejoin="miter" stroke="rgb(0,0,0)"><path d="M 438.9744,128.9781 c 0.0000,-1.2006 -0.9733,-2.1739 -2.1739 -2.1739c -1.2006,-0.0000 -2.1739,0.9733 -2.1739 2.1739c -0.0000,1.2006 0.9733,2.1739 2.1739 2.1739c 1.2006,0.0000 2.1739,-0.9733 2.1739 -2.1739Z"/></g><g stroke-linecap="butt" fill="rgb(0,0,255)" stroke-miterlimit="10.0" stroke-width="1.9999999999999998" fill-opacity="1.0" stroke-opacity="0.0" stroke-linejoin="miter" stroke="rgb(0,0,0)"><path d="M 117.0782,104.5287 c 0.0000,-1.2006 -0.9733,-2.1739 -2.1739 -2.1739c -1.2006,-0.0000 -2.1739,0.9733 -2.1739 2.1739c -0.0000,1.2006 0.9733,2.1739 2.1739 2.1739c 1.2006,0.0000 2.1739,-0.9733 2.1739 -2.1739Z"/></g><g stroke-linecap="butt" fill="rgb(0,0,255)" stroke-miterlimit="10.0" stroke-width="1.9999999999999998" fill-opacity="1.0" stroke-opacity="0.0" stroke-linejoin="miter" stroke="rgb(0,0,0)"><path d="M 107.3941,403.1872 c 0.0000,-1.2006 -0.9733,-2.1739 -2.1739 -2.1739c -1.2006,-0.0000 -2.1739,0.9733 -2.1739 2.1739c -0.0000,1.2006 0.9733,2.1739 2.1739 2.1739c 1.2006,0.0000 2.1739,-0.9733 2.1739 -2.1739Z"/></g><g stroke-linecap="butt" fill="rgb(0,0,255)" stroke-miterlimit="10.0" stroke-width="1.9999999999999998" fill-opacity="1.0" stroke-opacity="0.0" stroke-linejoin="miter" stroke="rgb(0,0,0)"><path d="M 166.2516,360.0892 c 0.0000,-1.2006 -0.9733,-2.1739 -2.1739 -2.1739c -1.2006,-0.0000 -2.1739,0.9733 -2.1739 2.1739c -0.0000,1.2006 0.9733,2.1739 2.1739 2.1739c 1.2006,0.0000 2.1739,-0.9733 2.1739 -2.1739Z"/></g><g stroke-linecap="butt" fill="rgb(0,0,255)" stroke-miterlimit="10.0" stroke-width="1.9999999999999998" fill-opacity="1.0" stroke-opacity="0.0" stroke-linejoin="miter" stroke="rgb(0,0,0)"><path d="M 467.7862,402.9233 c 0.0000,-1.2006 -0.9733,-2.1739 -2.1739 -2.1739c -1.2006,-0.0000 -2.1739,0.9733 -2.1739 2.1739c -0.0000,1.2006 0.9733,2.1739 2.1739 2.1739c 1.2006,0.0000 2.1739,-0.9733 2.1739 -2.1739Z"/></g><g stroke-linecap="butt" fill="rgb(0,0,255)" stroke-miterlimit="10.0" stroke-width="1.9999999999999998" fill-opacity="1.0" stroke-opacity="0.0" stroke-linejoin="miter" stroke="rgb(0,0,0)"><path d="M 458.4903,235.2144 c 0.0000,-1.2006 -0.9733,-2.1739 -2.1739 -2.1739c -1.2006,-0.0000 -2.1739,0.9733 -2.1739 2.1739c -0.0000,1.2006 0.9733,2.1739 2.1739 2.1739c 1.2006,0.0000 2.1739,-0.9733 2.1739 -2.1739Z"/></g><g stroke-linecap="butt" fill="rgb(0,0,255)" stroke-miterlimit="10.0" stroke-width="1.9999999999999998" fill-opacity="1.0" stroke-opacity="0.0" stroke-linejoin="miter" stroke="rgb(0,0,0)"><path d="M 266.0678,388.0567 c 0.0000,-1.2006 -0.9733,-2.1739 -2.1739 -2.1739c -1.2006,-0.0000 -2.1739,0.9733 -2.1739 2.1739c -0.0000,1.2006 0.9733,2.1739 2.1739 2.1739c 1.2006,0.0000 2.1739,-0.9733 2.1739 -2.1739Z"/></g><g stroke-linecap="butt" fill="rgb(0,0,255)" stroke-miterlimit="10.0" stroke-width="1.9999999999999998" fill-opacity="1.0" stroke-opacity="0.0" stroke-linejoin="miter" stroke="rgb(0,0,0)"><path d="M 214.0075,313.8914 c 0.0000,-1.2006 -0.9733,-2.1739 -2.1739 -2.1739c -1.2006,-0.0000 -2.1739,0.9733 -2.1739 2.1739c -0.0000,1.2006 0.9733,2.1739 2.1739 2.1739c 1.2006,0.0000 2.1739,-0.9733 2.1739 -2.1739Z"/></g><g stroke-linecap="butt" fill="rgb(0,0,255)" stroke-miterlimit="10.0" stroke-width="1.9999999999999998" fill-opacity="1.0" stroke-opacity="0.0" stroke-linejoin="miter" stroke="rgb(0,0,0)"><path d="M 415.6829,165.5953 c 0.0000,-1.2006 -0.9733,-2.1739 -2.1739 -2.1739c -1.2006,-0.0000 -2.1739,0.9733 -2.1739 2.1739c -0.0000,1.2006 0.9733,2.1739 2.1739 2.1739c 1.2006,0.0000 2.1739,-0.9733 2.1739 -2.1739Z"/></g><g stroke-linecap="butt" fill="rgb(0,0,255)" stroke-miterlimit="10.0" stroke-width="1.9999999999999998" fill-opacity="1.0" stroke-opacity="0.0" stroke-linejoin="miter" stroke="rgb(0,0,0)"><path d="M 102.8895,295.0383 c 0.0000,-1.2006 -0.9733,-2.1739 -2.1739 -2.1739c -1.2006,-0.0000 -2.1739,0.9733 -2.1739 2.1739c -0.0000,1.2006 0.9733,2.1739 2.1739 2.1739c 1.2006,0.0000 2.1739,-0.9733 2.1739 -2.1739Z"/></g><g stroke-linecap="butt" fill="rgb(0,0,255)" stroke-miterlimit="10.0" stroke-width="1.9999999999999998" fill-opacity="1.0" stroke-opacity="0.0" stroke-linejoin="miter" stroke="rgb(0,0,0)"><path d="M 91.4717,120.6630 c 0.0000,-1.2006 -0.9733,-2.1739 -2.1739 -2.1739c -1.2006,-0.0000 -2.1739,0.9733 -2.1739 2.1739c -0.0000,1.2006 0.9733,2.1739 2.1739 2.1739c 1.2006,0.0000 2.1739,-0.9733 2.1739 -2.1739Z"/></g><g stroke-linecap="butt" fill="rgb(0,0,255)" stroke-miterlimit="10.0" stroke-width="1.9999999999999998" fill-opacity="1.0" stroke-opacity="0.0" stroke-linejoin="miter" stroke="rgb(0,0,0)"><path d="M 145.0277,194.7225 c 0.0000,-1.2006 -0.9733,-2.1739 -2.1739 -2.1739c -1.2006,-0.0000 -2.1739,0.9733 -2.1739 2.1739c -0.0000,1.2006 0.9733,2.1739 2.1739 2.1739c 1.2006,0.0000 2.1739,-0.9733 2.1739 -2.1739Z"/></g><g stroke-linecap="butt" fill="rgb(0,0,255)" stroke-miterlimit="10.0" stroke-width="1.9999999999999998" fill-opacity="1.0" stroke-opacity="0.0" stroke-linejoin="miter" stroke="rgb(0,0,0)"><path d="M 282.1721,221.7401 c 0.0000,-1.2006 -0.9733,-2.1739 -2.1739 -2.1739c -1.2006,-0.0000 -2.1739,0.9733 -2.1739 2.1739c -0.0000,1.2006 0.9733,2.1739 2.1739 2.1739c 1.2006,0.0000 2.1739,-0.9733 2.1739 -2.1739Z"/></g><g stroke-linecap="butt" fill="rgb(0,0,255)" stroke-miterlimit="10.0" stroke-width="1.9999999999999998" fill-opacity="1.0" stroke-opacity="0.0" stroke-linejoin="miter" stroke="rgb(0,0,0)"><path d="M 317.6870,380.0453 c 0.0000,-1.2006 -0.9733,-2.1739 -2.1739 -2.1739c -1.2006,-0.0000 -2.1739,0.9733 -2.1739 2.1739c -0.0000,1.2006 0.9733,2.1739 2.1739 2.1739c 1.2006,0.0000 2.1739,-0.9733 2.1739 -2.1739Z"/></g><g stroke-linecap="butt" fill="rgb(0,0,255)" stroke-miterlimit="10.0" stroke-width="1.9999999999999998" fill-opacity="1.0" stroke-opacity="0.0" stroke-linejoin="miter" stroke="rgb(0,0,0)"><path d="M 291.9351,369.3858 c 0.0000,-1.2006 -0.9733,-2.1739 -2.1739 -2.1739c -1.2006,-0.0000 -2.1739,0.9733 -2.1739 2.1739c -0.0000,1.2006 0.9733,2.1739 2.1739 2.1739c 1.2006,0.0000 2.1739,-0.9733 2.1739 -2.1739Z"/></g><g stroke-linecap="butt" fill="rgb(0,0,255)" stroke-miterlimit="10.0" stroke-width="1.9999999999999998" fill-opacity="1.0" stroke-opacity="0.0" stroke-linejoin="miter" stroke="rgb(0,0,0)"><path d="M 428.5455,397.5597 c 0.0000,-1.2006 -0.9733,-2.1739 -2.1739 -2.1739c -1.2006,-0.0000 -2.1739,0.9733 -2.1739 2.1739c -0.0000,1.2006 0.9733,2.1739 2.1739 2.1739c 1.2006,0.0000 2.1739,-0.9733 2.1739 -2.1739Z"/></g><g stroke-linecap="butt" fill="rgb(0,0,255)" stroke-miterlimit="10.0" stroke-width="1.9999999999999998" fill-opacity="1.0" stroke-opacity="0.0" stroke-linejoin="miter" stroke="rgb(0,0,0)"><path d="M 385.3712,433.6742 c 0.0000,-1.2006 -0.9733,-2.1739 -2.1739 -2.1739c -1.2006,-0.0000 -2.1739,0.9733 -2.1739 2.1739c -0.0000,1.2006 0.9733,2.1739 2.1739 2.1739c 1.2006,0.0000 2.1739,-0.9733 2.1739 -2.1739Z"/></g><g stroke-linecap="butt" fill="rgb(0,0,255)" stroke-miterlimit="10.0" stroke-width="1.9999999999999998" fill-opacity="1.0" stroke-opacity="0.0" stroke-linejoin="miter" stroke="rgb(0,0,0)"><path d="M 357.6385,399.3690 c 0.0000,-1.2006 -0.9733,-2.1739 -2.1739 -2.1739c -1.2006,-0.0000 -2.1739,0.9733 -2.1739 2.1739c -0.0000,1.2006 0.9733,2.1739 2.1739 2.1739c 1.2006,0.0000 2.1739,-0.9733 2.1739 -2.1739Z"/></g><g stroke-linecap="butt" fill="rgb(0,0,255)" stroke-miterlimit="10.0" stroke-width="1.9999999999999998" fill-opacity="1.0" stroke-opacity="0.0" stroke-linejoin="miter" stroke="rgb(0,0,0)"><path d="M 420.5341,351.0196 c 0.0000,-1.2006 -0.9733,-2.1739 -2.1739 -2.1739c -1.2006,-0.0000 -2.1739,0.9733 -2.1739 2.1739c -0.0000,1.2006 0.9733,2.1739 2.1739 2.1739c 1.2006,0.0000 2.1739,-0.9733 2.1739 -2.1739Z"/></g><g stroke-linecap="butt" fill="rgb(0,0,255)" stroke-miterlimit="10.0" stroke-width="1.9999999999999998" fill-opacity="1.0" stroke-opacity="0.0" stroke-linejoin="miter" stroke="rgb(0,0,0)"><path d="M 92.0233,166.4181 c 0.0000,-1.2006 -0.9733,-2.1739 -2.1739 -2.1739c -1.2006,-0.0000 -2.1739,0.9733 -2.1739 2.1739c -0.0000,1.2006 0.9733,2.1739 2.1739 2.1739c 1.2006,0.0000 2.1739,-0.9733 2.1739 -2.1739Z"/></g><g stroke-linecap="butt" fill="rgb(0,0,255)" stroke-miterlimit="10.0" stroke-width="1.9999999999999998" fill-opacity="1.0" stroke-opacity="0.0" stroke-linejoin="miter" stroke="rgb(0,0,0)"><path d="M 64.9644,320.2380 c 0.0000,-1.2006 -0.9733,-2.1739 -2.1739 -2.1739c -1.2006,-0.0000 -2.1739,0.9733 -2.1739 2.1739c -0.0000,1.2006 0.9733,2.1739 2.1739 2.1739c 1.2006,0.0000 2.1739,-0.9733 2.1739 -2.1739Z"/></g><g stroke-linecap="butt" fill="rgb(0,0,255)" stroke-miterlimit="10.0" stroke-width="1.9999999999999998" fill-opacity="1.0" stroke-opacity="0.0" stroke-linejoin="miter" stroke="rgb(0,0,0)"><path d="M 424.6950,387.6179 c 0.0000,-1.2006 -0.9733,-2.1739 -2.1739 -2.1739c -1.2006,-0.0000 -2.1739,0.9733 -2.1739 2.1739c -0.0000,1.2006 0.9733,2.1739 2.1739 2.1739c 1.2006,0.0000 2.1739,-0.9733 2.1739 -2.1739Z"/></g><g stroke-linecap="butt" fill="rgb(0,0,255)" stroke-miterlimit="10.0" stroke-width="1.9999999999999998" fill-opacity="1.0" stroke-opacity="0.0" stroke-linejoin="miter" stroke="rgb(0,0,0)"><path d="M 465.5028,375.1856 c 0.0000,-1.2006 -0.9733,-2.1739 -2.1739 -2.1739c -1.2006,-0.0000 -2.1739,0.9733 -2.1739 2.1739c -0.0000,1.2006 0.9733,2.1739 2.1739 2.1739c 1.2006,0.0000 2.1739,-0.9733 2.1739 -2.1739Z"/></g><g stroke-linecap="butt" fill="rgb(0,0,255)" stroke-miterlimit="10.0" stroke-width="1.9999999999999998" fill-opacity="1.0" stroke-opacity="0.0" stroke-linejoin="miter" stroke="rgb(0,0,0)"><path d="M 72.7014,338.5248 c 0.0000,-1.2006 -0.9733,-2.1739 -2.1739 -2.1739c -1.2006,-0.0000 -2.1739,0.9733 -2.1739 2.1739c -0.0000,1.2006 0.9733,2.1739 2.1739 2.1739c 1.2006,0.0000 2.1739,-0.9733 2.1739 -2.1739Z"/></g><g stroke-linecap="butt" fill="rgb(0,0,255)" stroke-miterlimit="10.0" stroke-width="1.9999999999999998" fill-opacity="1.0" stroke-opacity="0.0" stroke-linejoin="miter" stroke="rgb(0,0,0)"><path d="M 445.5773,112.5125 c 0.0000,-1.2006 -0.9733,-2.1739 -2.1739 -2.1739c -1.2006,-0.0000 -2.1739,0.9733 -2.1739 2.1739c -0.0000,1.2006 0.9733,2.1739 2.1739 2.1739c 1.2006,0.0000 2.1739,-0.9733 2.1739 -2.1739Z"/></g><g stroke-linecap="butt" fill="rgb(0,0,255)" stroke-miterlimit="10.0" stroke-width="1.9999999999999998" fill-opacity="1.0" stroke-opacity="0.0" stroke-linejoin="miter" stroke="rgb(0,0,0)"><path d="M 319.5675,137.2763 c 0.0000,-1.2006 -0.9733,-2.1739 -2.1739 -2.1739c -1.2006,-0.0000 -2.1739,0.9733 -2.1739 2.1739c -0.0000,1.2006 0.9733,2.1739 2.1739 2.1739c 1.2006,0.0000 2.1739,-0.9733 2.1739 -2.1739Z"/></g><g stroke-linecap="butt" fill="rgb(0,0,255)" stroke-miterlimit="10.0" stroke-width="1.9999999999999998" fill-opacity="1.0" stroke-opacity="0.0" stroke-linejoin="miter" stroke="rgb(0,0,0)"><path d="M 209.0354,97.1520 c 0.0000,-1.2006 -0.9733,-2.1739 -2.1739 -2.1739c -1.2006,-0.0000 -2.1739,0.9733 -2.1739 2.1739c -0.0000,1.2006 0.9733,2.1739 2.1739 2.1739c 1.2006,0.0000 2.1739,-0.9733 2.1739 -2.1739Z"/></g><g stroke-linecap="butt" fill="rgb(0,0,255)" stroke-miterlimit="10.0" stroke-width="1.9999999999999998" fill-opacity="1.0" stroke-opacity="0.0" stroke-linejoin="miter" stroke="rgb(0,0,0)"><path d="M 313.1173,427.0735 c 0.0000,-1.2006 -0.9733,-2.1739 -2.1739 -2.1739c -1.2006,-0.0000 -2.1739,0.9733 -2.1739 2.1739c -0.0000,1.2006 0.9733,2.1739 2.1739 2.1739c 1.2006,0.0000 2.1739,-0.9733 2.1739 -2.1739Z"/></g><g stroke-linecap="butt" fill="rgb(0,0,255)" stroke-miterlimit="10.0" stroke-width="1.9999999999999998" fill-opacity="1.0" stroke-opacity="0.0" stroke-linejoin="miter" stroke="rgb(0,0,0)"><path d="M 468.8508,250.3192 c 0.0000,-1.2006 -0.9733,-2.1739 -2.1739 -2.1739c -1.2006,-0.0000 -2.1739,0.9733 -2.1739 2.1739c -0.0000,1.2006 0.9733,2.1739 2.1739 2.1739c 1.2006,0.0000 2.1739,-0.9733 2.1739 -2.1739Z"/></g><g stroke-linecap="butt" fill="rgb(0,0,255)" stroke-miterlimit="10.0" stroke-width="1.9999999999999998" fill-opacity="1.0" stroke-opacity="0.0" stroke-linejoin="miter" stroke="rgb(0,0,0)"><path d="M 126.8928,202.5521 c 0.0000,-1.2006 -0.9733,-2.1739 -2.1739 -2.1739c -1.2006,-0.0000 -2.1739,0.9733 -2.1739 2.1739c -0.0000,1.2006 0.9733,2.1739 2.1739 2.1739c 1.2006,0.0000 2.1739,-0.9733 2.1739 -2.1739Z"/></g><g stroke-linecap="butt" fill="rgb(0,0,255)" stroke-miterlimit="10.0" stroke-width="1.9999999999999998" fill-opacity="1.0" stroke-opacity="0.0" stroke-linejoin="miter" stroke="rgb(0,0,0)"><path d="M 251.6141,253.3663 c 0.0000,-1.2006 -0.9733,-2.1739 -2.1739 -2.1739c -1.2006,-0.0000 -2.1739,0.9733 -2.1739 2.1739c -0.0000,1.2006 0.9733,2.1739 2.1739 2.1739c 1.2006,0.0000 2.1739,-0.9733 2.1739 -2.1739Z"/></g><g stroke-linecap="butt" fill="rgb(0,0,255)" stroke-miterlimit="10.0" stroke-width="1.9999999999999998" fill-opacity="1.0" stroke-opacity="0.0" stroke-linejoin="miter" stroke="rgb(0,0,0)"><path d="M 155.4189,290.6623 c 0.0000,-1.2006 -0.9733,-2.1739 -2.1739 -2.1739c -1.2006,-0.0000 -2.1739,0.9733 -2.1739 2.1739c -0.0000,1.2006 0.9733,2.1739 2.1739 2.1739c 1.2006,0.0000 2.1739,-0.9733 2.1739 -2.1739Z"/></g><g stroke-linecap="butt" fill="rgb(0,0,255)" stroke-miterlimit="10.0" stroke-width="1.9999999999999998" fill-opacity="1.0" stroke-opacity="0.0" stroke-linejoin="miter" stroke="rgb(0,0,0)"><path d="M 153.2604,137.4459 c 0.0000,-1.2006 -0.9733,-2.1739 -2.1739 -2.1739c -1.2006,-0.0000 -2.1739,0.9733 -2.1739 2.1739c -0.0000,1.2006 0.9733,2.1739 2.1739 2.1739c 1.2006,0.0000 2.1739,-0.9733 2.1739 -2.1739Z"/></g><g stroke-linecap="butt" fill="rgb(0,0,255)" stroke-miterlimit="10.0" stroke-width="1.9999999999999998" fill-opacity="1.0" stroke-opacity="0.0" stroke-linejoin="miter" stroke="rgb(0,0,0)"><path d="M 78.9991,179.6730 c 0.0000,-1.2006 -0.9733,-2.1739 -2.1739 -2.1739c -1.2006,-0.0000 -2.1739,0.9733 -2.1739 2.1739c -0.0000,1.2006 0.9733,2.1739 2.1739 2.1739c 1.2006,0.0000 2.1739,-0.9733 2.1739 -2.1739Z"/></g><g stroke-linecap="butt" fill="rgb(0,0,255)" stroke-miterlimit="10.0" stroke-width="1.9999999999999998" fill-opacity="1.0" stroke-opacity="0.0" stroke-linejoin="miter" stroke="rgb(0,0,0)"><path d="M 249.2806,121.1015 c 0.0000,-1.2006 -0.9733,-2.1739 -2.1739 -2.1739c -1.2006,-0.0000 -2.1739,0.9733 -2.1739 2.1739c -0.0000,1.2006 0.9733,2.1739 2.1739 2.1739c 1.2006,0.0000 2.1739,-0.9733 2.1739 -2.1739Z"/></g><g stroke-linecap="butt" fill="rgb(0,0,255)" stroke-miterlimit="10.0" stroke-width="1.9999999999999998" fill-opacity="1.0" stroke-opacity="0.0" stroke-linejoin="miter" stroke="rgb(0,0,0)"><path d="M 77.2812,115.2778 c 0.0000,-1.2006 -0.9733,-2.1739 -2.1739 -2.1739c -1.2006,-0.0000 -2.1739,0.9733 -2.1739 2.1739c -0.0000,1.2006 0.9733,2.1739 2.1739 2.1739c 1.2006,0.0000 2.1739,-0.9733 2.1739 -2.1739Z"/></g><g stroke-linecap="butt" fill="rgb(0,0,255)" stroke-miterlimit="10.0" stroke-width="1.9999999999999998" fill-opacity="1.0" stroke-opacity="0.0" stroke-linejoin="miter" stroke="rgb(0,0,0)"><path d="M 401.7672,428.2153 c 0.0000,-1.2006 -0.9733,-2.1739 -2.1739 -2.1739c -1.2006,-0.0000 -2.1739,0.9733 -2.1739 2.1739c -0.0000,1.2006 0.9733,2.1739 2.1739 2.1739c 1.2006,0.0000 2.1739,-0.9733 2.1739 -2.1739Z"/></g><g stroke-linecap="butt" fill="rgb(0,0,255)" stroke-miterlimit="10.0" stroke-width="1.9999999999999998" fill-opacity="1.0" stroke-opacity="0.0" stroke-linejoin="miter" stroke="rgb(0,0,0)"><path d="M 376.5238,428.3573 c 0.0000,-1.2006 -0.9733,-2.1739 -2.1739 -2.1739c -1.2006,-0.0000 -2.1739,0.9733 -2.1739 2.1739c -0.0000,1.2006 0.9733,2.1739 2.1739 2.1739c 1.2006,0.0000 2.1739,-0.9733 2.1739 -2.1739Z"/></g><g stroke-linecap="butt" fill="rgb(0,0,255)" stroke-miterlimit="10.0" stroke-width="1.9999999999999998" fill-opacity="1.0" stroke-opacity="0.0" stroke-linejoin="miter" stroke="rgb(0,0,0)"><path d="M 406.5891,134.8174 c 0.0000,-1.2006 -0.9733,-2.1739 -2.1739 -2.1739c -1.2006,-0.0000 -2.1739,0.9733 -2.1739 2.1739c -0.0000,1.2006 0.9733,2.1739 2.1739 2.1739c 1.2006,0.0000 2.1739,-0.9733 2.1739 -2.1739Z"/></g><g stroke-linecap="butt" fill="rgb(0,0,255)" stroke-miterlimit="10.0" stroke-width="1.9999999999999998" fill-opacity="1.0" stroke-opacity="0.0" stroke-linejoin="miter" stroke="rgb(0,0,0)"><path d="M 361.3766,107.9050 c 0.0000,-1.2006 -0.9733,-2.1739 -2.1739 -2.1739c -1.2006,-0.0000 -2.1739,0.9733 -2.1739 2.1739c -0.0000,1.2006 0.9733,2.1739 2.1739 2.1739c 1.2006,0.0000 2.1739,-0.9733 2.1739 -2.1739Z"/></g><g stroke-linecap="butt" fill="rgb(0,0,255)" stroke-miterlimit="10.0" stroke-width="1.9999999999999998" fill-opacity="1.0" stroke-opacity="0.0" stroke-linejoin="miter" stroke="rgb(0,0,0)"><path d="M 139.3465,100.0940 c 0.0000,-1.2006 -0.9733,-2.1739 -2.1739 -2.1739c -1.2006,-0.0000 -2.1739,0.9733 -2.1739 2.1739c -0.0000,1.2006 0.9733,2.1739 2.1739 2.1739c 1.2006,0.0000 2.1739,-0.9733 2.1739 -2.1739Z"/></g><g stroke-linecap="butt" fill="rgb(0,0,255)" stroke-miterlimit="10.0" stroke-width="1.9999999999999998" fill-opacity="1.0" stroke-opacity="0.0" stroke-linejoin="miter" stroke="rgb(0,0,0)"><path d="M 211.1628,396.1734 c 0.0000,-1.2006 -0.9733,-2.1739 -2.1739 -2.1739c -1.2006,-0.0000 -2.1739,0.9733 -2.1739 2.1739c -0.0000,1.2006 0.9733,2.1739 2.1739 2.1739c 1.2006,0.0000 2.1739,-0.9733 2.1739 -2.1739Z"/></g><g stroke-linecap="butt" fill="rgb(0,0,255)" stroke-miterlimit="10.0" stroke-width="1.9999999999999998" fill-opacity="1.0" stroke-opacity="0.0" stroke-linejoin="miter" stroke="rgb(0,0,0)"><path d="M 156.7738,222.7852 c 0.0000,-1.2006 -0.9733,-2.1739 -2.1739 -2.1739c -1.2006,-0.0000 -2.1739,0.9733 -2.1739 2.1739c -0.0000,1.2006 0.9733,2.1739 2.1739 2.1739c 1.2006,0.0000 2.1739,-0.9733 2.1739 -2.1739Z"/></g><g stroke-linecap="butt" fill="rgb(0,0,255)" stroke-miterlimit="10.0" stroke-width="1.9999999999999998" fill-opacity="1.0" stroke-opacity="0.0" stroke-linejoin="miter" stroke="rgb(0,0,0)"><path d="M 279.1731,241.0260 c 0.0000,-1.2006 -0.9733,-2.1739 -2.1739 -2.1739c -1.2006,-0.0000 -2.1739,0.9733 -2.1739 2.1739c -0.0000,1.2006 0.9733,2.1739 2.1739 2.1739c 1.2006,0.0000 2.1739,-0.9733 2.1739 -2.1739Z"/></g><g stroke-linecap="butt" fill="rgb(0,0,255)" stroke-miterlimit="10.0" stroke-width="1.9999999999999998" fill-opacity="1.0" stroke-opacity="0.0" stroke-linejoin="miter" stroke="rgb(0,0,0)"><path d="M 480.9044,183.9402 c 0.0000,-1.2006 -0.9733,-2.1739 -2.1739 -2.1739c -1.2006,-0.0000 -2.1739,0.9733 -2.1739 2.1739c -0.0000,1.2006 0.9733,2.1739 2.1739 2.1739c 1.2006,0.0000 2.1739,-0.9733 2.1739 -2.1739Z"/></g><g stroke-linecap="butt" fill="rgb(0,0,255)" stroke-miterlimit="10.0" stroke-width="1.9999999999999998" fill-opacity="1.0" stroke-opacity="0.0" stroke-linejoin="miter" stroke="rgb(0,0,0)"><path d="M 82.2699,176.0717 c 0.0000,-1.2006 -0.9733,-2.1739 -2.1739 -2.1739c -1.2006,-0.0000 -2.1739,0.9733 -2.1739 2.1739c -0.0000,1.2006 0.9733,2.1739 2.1739 2.1739c 1.2006,0.0000 2.1739,-0.9733 2.1739 -2.1739Z"/></g><g stroke-linecap="butt" fill="rgb(0,0,255)" stroke-miterlimit="10.0" stroke-width="1.9999999999999998" fill-opacity="1.0" stroke-opacity="0.0" stroke-linejoin="miter" stroke="rgb(0,0,0)"><path d="M 265.5535,386.5951 c 0.0000,-1.2006 -0.9733,-2.1739 -2.1739 -2.1739c -1.2006,-0.0000 -2.1739,0.9733 -2.1739 2.1739c -0.0000,1.2006 0.9733,2.1739 2.1739 2.1739c 1.2006,0.0000 2.1739,-0.9733 2.1739 -2.1739Z"/></g><g stroke-linecap="butt" fill="rgb(0,0,255)" stroke-miterlimit="10.0" stroke-width="1.9999999999999998" fill-opacity="1.0" stroke-opacity="0.0" stroke-linejoin="miter" stroke="rgb(0,0,0)"><path d="M 175.4729,121.9593 c 0.0000,-1.2006 -0.9733,-2.1739 -2.1739 -2.1739c -1.2006,-0.0000 -2.1739,0.9733 -2.1739 2.1739c -0.0000,1.2006 0.9733,2.1739 2.1739 2.1739c 1.2006,0.0000 2.1739,-0.9733 2.1739 -2.1739Z"/></g><g stroke-linecap="butt" fill="rgb(0,0,255)" stroke-miterlimit="10.0" stroke-width="1.9999999999999998" fill-opacity="1.0" stroke-opacity="0.0" stroke-linejoin="miter" stroke="rgb(0,0,0)"><path d="M 73.6478,277.1699 c 0.0000,-1.2006 -0.9733,-2.1739 -2.1739 -2.1739c -1.2006,-0.0000 -2.1739,0.9733 -2.1739 2.1739c -0.0000,1.2006 0.9733,2.1739 2.1739 2.1739c 1.2006,0.0000 2.1739,-0.9733 2.1739 -2.1739Z"/></g><g stroke-linecap="butt" fill="rgb(0,0,255)" stroke-miterlimit="10.0" stroke-width="1.9999999999999998" fill-opacity="1.0" stroke-opacity="0.0" stroke-linejoin="miter" stroke="rgb(0,0,0)"><path d="M 330.1856,92.4157 c 0.0000,-1.2006 -0.9733,-2.1739 -2.1739 -2.1739c -1.2006,-0.0000 -2.1739,0.9733 -2.1739 2.1739c -0.0000,1.2006 0.9733,2.1739 2.1739 2.1739c 1.2006,0.0000 2.1739,-0.9733 2.1739 -2.1739Z"/></g><g stroke-linecap="butt" fill="rgb(0,0,255)" stroke-miterlimit="10.0" stroke-width="1.9999999999999998" fill-opacity="1.0" stroke-opacity="0.0" stroke-linejoin="miter" stroke="rgb(0,0,0)"><path d="M 157.4740,372.9014 c 0.0000,-1.2006 -0.9733,-2.1739 -2.1739 -2.1739c -1.2006,-0.0000 -2.1739,0.9733 -2.1739 2.1739c -0.0000,1.2006 0.9733,2.1739 2.1739 2.1739c 1.2006,0.0000 2.1739,-0.9733 2.1739 -2.1739Z"/></g><g stroke-linecap="butt" fill="rgb(0,0,255)" stroke-miterlimit="10.0" stroke-width="1.9999999999999998" fill-opacity="1.0" stroke-opacity="0.0" stroke-linejoin="miter" stroke="rgb(0,0,0)"><path d="M 93.5849,87.5950 c 0.0000,-1.2006 -0.9733,-2.1739 -2.1739 -2.1739c -1.2006,-0.0000 -2.1739,0.9733 -2.1739 2.1739c -0.0000,1.2006 0.9733,2.1739 2.1739 2.1739c 1.2006,0.0000 2.1739,-0.9733 2.1739 -2.1739Z"/></g><g stroke-linecap="butt" fill="rgb(0,0,255)" stroke-miterlimit="10.0" stroke-width="1.9999999999999998" fill-opacity="1.0" stroke-opacity="0.0" stroke-linejoin="miter" stroke="rgb(0,0,0)"><path d="M 123.8254,393.3319 c 0.0000,-1.2006 -0.9733,-2.1739 -2.1739 -2.1739c -1.2006,-0.0000 -2.1739,0.9733 -2.1739 2.1739c -0.0000,1.2006 0.9733,2.1739 2.1739 2.1739c 1.2006,0.0000 2.1739,-0.9733 2.1739 -2.1739Z"/></g><g stroke-linecap="butt" fill="rgb(0,0,255)" stroke-miterlimit="10.0" stroke-width="1.9999999999999998" fill-opacity="1.0" stroke-opacity="0.0" stroke-linejoin="miter" stroke="rgb(0,0,0)"><path d="M 443.0325,294.3102 c 0.0000,-1.2006 -0.9733,-2.1739 -2.1739 -2.1739c -1.2006,-0.0000 -2.1739,0.9733 -2.1739 2.1739c -0.0000,1.2006 0.9733,2.1739 2.1739 2.1739c 1.2006,0.0000 2.1739,-0.9733 2.1739 -2.1739Z"/></g><g stroke-linecap="butt" fill="rgb(0,0,255)" stroke-miterlimit="10.0" stroke-width="1.9999999999999998" fill-opacity="1.0" stroke-opacity="0.0" stroke-linejoin="miter" stroke="rgb(0,0,0)"><path d="M 250.4031,133.2996 c 0.0000,-1.2006 -0.9733,-2.1739 -2.1739 -2.1739c -1.2006,-0.0000 -2.1739,0.9733 -2.1739 2.1739c -0.0000,1.2006 0.9733,2.1739 2.1739 2.1739c 1.2006,0.0000 2.1739,-0.9733 2.1739 -2.1739Z"/></g><g stroke-linecap="butt" fill="rgb(0,0,255)" stroke-miterlimit="10.0" stroke-width="1.9999999999999998" fill-opacity="1.0" stroke-opacity="0.0" stroke-linejoin="miter" stroke="rgb(0,0,0)"><path d="M 158.0624,80.3611 c 0.0000,-1.2006 -0.9733,-2.1739 -2.1739 -2.1739c -1.2006,-0.0000 -2.1739,0.9733 -2.1739 2.1739c -0.0000,1.2006 0.9733,2.1739 2.1739 2.1739c 1.2006,0.0000 2.1739,-0.9733 2.1739 -2.1739Z"/></g><g stroke-linecap="butt" fill="rgb(0,0,255)" stroke-miterlimit="10.0" stroke-width="1.9999999999999998" fill-opacity="1.0" stroke-opacity="0.0" stroke-linejoin="miter" stroke="rgb(0,0,0)"><path d="M 140.4937,267.6013 c 0.0000,-1.2006 -0.9733,-2.1739 -2.1739 -2.1739c -1.2006,-0.0000 -2.1739,0.9733 -2.1739 2.1739c -0.0000,1.2006 0.9733,2.1739 2.1739 2.1739c 1.2006,0.0000 2.1739,-0.9733 2.1739 -2.1739Z"/></g><g stroke-linecap="butt" fill="rgb(0,0,255)" stroke-miterlimit="10.0" stroke-width="1.9999999999999998" fill-opacity="1.0" stroke-opacity="0.0" stroke-linejoin="miter" stroke="rgb(0,0,0)"><path d="M 186.1279,126.8845 c 0.0000,-1.2006 -0.9733,-2.1739 -2.1739 -2.1739c -1.2006,-0.0000 -2.1739,0.9733 -2.1739 2.1739c -0.0000,1.2006 0.9733,2.1739 2.1739 2.1739c 1.2006,0.0000 2.1739,-0.9733 2.1739 -2.1739Z"/></g><g stroke-linecap="butt" fill="rgb(0,0,255)" stroke-miterlimit="10.0" stroke-width="1.9999999999999998" fill-opacity="1.0" stroke-opacity="0.0" stroke-linejoin="miter" stroke="rgb(0,0,0)"><path d="M 152.0480,335.7531 c 0.0000,-1.2006 -0.9733,-2.1739 -2.1739 -2.1739c -1.2006,-0.0000 -2.1739,0.9733 -2.1739 2.1739c -0.0000,1.2006 0.9733,2.1739 2.1739 2.1739c 1.2006,0.0000 2.1739,-0.9733 2.1739 -2.1739Z"/></g><g stroke-linecap="butt" fill="rgb(0,0,255)" stroke-miterlimit="10.0" stroke-width="1.9999999999999998" fill-opacity="1.0" stroke-opacity="0.0" stroke-linejoin="miter" stroke="rgb(0,0,0)"><path d="M 169.7195,137.8012 c 0.0000,-1.2006 -0.9733,-2.1739 -2.1739 -2.1739c -1.2006,-0.0000 -2.1739,0.9733 -2.1739 2.1739c -0.0000,1.2006 0.9733,2.1739 2.1739 2.1739c 1.2006,0.0000 2.1739,-0.9733 2.1739 -2.1739Z"/></g><g stroke-linecap="butt" fill="rgb(0,0,255)" stroke-miterlimit="10.0" stroke-width="1.9999999999999998" fill-opacity="1.0" stroke-opacity="0.0" stroke-linejoin="miter" stroke="rgb(0,0,0)"><path d="M 437.4751,77.0153 c 0.0000,-1.2006 -0.9733,-2.1739 -2.1739 -2.1739c -1.2006,-0.0000 -2.1739,0.9733 -2.1739 2.1739c -0.0000,1.2006 0.9733,2.1739 2.1739 2.1739c 1.2006,0.0000 2.1739,-0.9733 2.1739 -2.1739Z"/></g><g stroke-linecap="butt" fill="rgb(0,0,255)" stroke-miterlimit="10.0" stroke-width="1.9999999999999998" fill-opacity="1.0" stroke-opacity="0.0" stroke-linejoin="miter" stroke="rgb(0,0,0)"><path d="M 226.0382,358.4494 c 0.0000,-1.2006 -0.9733,-2.1739 -2.1739 -2.1739c -1.2006,-0.0000 -2.1739,0.9733 -2.1739 2.1739c -0.0000,1.2006 0.9733,2.1739 2.1739 2.1739c 1.2006,0.0000 2.1739,-0.9733 2.1739 -2.1739Z"/></g><g stroke-linecap="butt" fill="rgb(0,0,255)" stroke-miterlimit="10.0" stroke-width="1.9999999999999998" fill-opacity="1.0" stroke-opacity="0.0" stroke-linejoin="miter" stroke="rgb(0,0,0)"><path d="M 223.3298,90.3419 c 0.0000,-1.2006 -0.9733,-2.1739 -2.1739 -2.1739c -1.2006,-0.0000 -2.1739,0.9733 -2.1739 2.1739c -0.0000,1.2006 0.9733,2.1739 2.1739 2.1739c 1.2006,0.0000 2.1739,-0.9733 2.1739 -2.1739Z"/></g><g stroke-linecap="butt" fill="rgb(0,0,255)" stroke-miterlimit="10.0" stroke-width="1.9999999999999998" fill-opacity="1.0" stroke-opacity="0.0" stroke-linejoin="miter" stroke="rgb(0,0,0)"><path d="M 233.8488,296.9929 c 0.0000,-1.2006 -0.9733,-2.1739 -2.1739 -2.1739c -1.2006,-0.0000 -2.1739,0.9733 -2.1739 2.1739c -0.0000,1.2006 0.9733,2.1739 2.1739 2.1739c 1.2006,0.0000 2.1739,-0.9733 2.1739 -2.1739Z"/></g><g stroke-linecap="butt" fill="rgb(0,0,255)" stroke-miterlimit="10.0" stroke-width="1.9999999999999998" fill-opacity="1.0" stroke-opacity="0.0" stroke-linejoin="miter" stroke="rgb(0,0,0)"><path d="M 100.3032,320.4135 c 0.0000,-1.2006 -0.9733,-2.1739 -2.1739 -2.1739c -1.2006,-0.0000 -2.1739,0.9733 -2.1739 2.1739c -0.0000,1.2006 0.9733,2.1739 2.1739 2.1739c 1.2006,0.0000 2.1739,-0.9733 2.1739 -2.1739Z"/></g><g stroke-linecap="butt" fill="rgb(0,0,255)" stroke-miterlimit="10.0" stroke-width="1.9999999999999998" fill-opacity="1.0" stroke-opacity="0.0" stroke-linejoin="miter" stroke="rgb(0,0,0)"><path d="M 120.9644,52.0743 c 0.0000,-1.2006 -0.9733,-2.1739 -2.1739 -2.1739c -1.2006,-0.0000 -2.1739,0.9733 -2.1739 2.1739c -0.0000,1.2006 0.9733,2.1739 2.1739 2.1739c 1.2006,0.0000 2.1739,-0.9733 2.1739 -2.1739Z"/></g><g stroke-linecap="butt" fill="rgb(0,0,255)" stroke-miterlimit="10.0" stroke-width="1.9999999999999998" fill-opacity="1.0" stroke-opacity="0.0" stroke-linejoin="miter" stroke="rgb(0,0,0)"><path d="M 120.6175,331.9901 c 0.0000,-1.2006 -0.9733,-2.1739 -2.1739 -2.1739c -1.2006,-0.0000 -2.1739,0.9733 -2.1739 2.1739c -0.0000,1.2006 0.9733,2.1739 2.1739 2.1739c 1.2006,0.0000 2.1739,-0.9733 2.1739 -2.1739Z"/></g><g stroke-linecap="butt" fill="rgb(0,0,255)" stroke-miterlimit="10.0" stroke-width="1.9999999999999998" fill-opacity="1.0" stroke-opacity="0.0" stroke-linejoin="miter" stroke="rgb(0,0,0)"><path d="M 347.0495,44.3011 c 0.0000,-1.2006 -0.9733,-2.1739 -2.1739 -2.1739c -1.2006,-0.0000 -2.1739,0.9733 -2.1739 2.1739c -0.0000,1.2006 0.9733,2.1739 2.1739 2.1739c 1.2006,0.0000 2.1739,-0.9733 2.1739 -2.1739Z"/></g><g stroke-linecap="butt" fill="rgb(0,0,255)" stroke-miterlimit="10.0" stroke-width="1.9999999999999998" fill-opacity="1.0" stroke-opacity="0.0" stroke-linejoin="miter" stroke="rgb(0,0,0)"><path d="M 337.0260,121.4511 c 0.0000,-1.2006 -0.9733,-2.1739 -2.1739 -2.1739c -1.2006,-0.0000 -2.1739,0.9733 -2.1739 2.1739c -0.0000,1.2006 0.9733,2.1739 2.1739 2.1739c 1.2006,0.0000 2.1739,-0.9733 2.1739 -2.1739Z"/></g><g stroke-linecap="butt" fill="rgb(0,0,255)" stroke-miterlimit="10.0" stroke-width="1.9999999999999998" fill-opacity="1.0" stroke-opacity="0.0" stroke-linejoin="miter" stroke="rgb(0,0,0)"><path d="M 130.6023,295.7052 c 0.0000,-1.2006 -0.9733,-2.1739 -2.1739 -2.1739c -1.2006,-0.0000 -2.1739,0.9733 -2.1739 2.1739c -0.0000,1.2006 0.9733,2.1739 2.1739 2.1739c 1.2006,0.0000 2.1739,-0.9733 2.1739 -2.1739Z"/></g><g stroke-linecap="butt" fill="rgb(0,0,255)" stroke-miterlimit="10.0" stroke-width="1.9999999999999998" fill-opacity="1.0" stroke-opacity="0.0" stroke-linejoin="miter" stroke="rgb(0,0,0)"><path d="M 341.9574,251.2760 c 0.0000,-1.2006 -0.9733,-2.1739 -2.1739 -2.1739c -1.2006,-0.0000 -2.1739,0.9733 -2.1739 2.1739c -0.0000,1.2006 0.9733,2.1739 2.1739 2.1739c 1.2006,0.0000 2.1739,-0.9733 2.1739 -2.1739Z"/></g><g stroke-linecap="butt" fill="rgb(0,0,255)" stroke-miterlimit="10.0" stroke-width="1.9999999999999998" fill-opacity="1.0" stroke-opacity="0.0" stroke-linejoin="miter" stroke="rgb(0,0,0)"><path d="M 471.9139,203.0962 c 0.0000,-1.2006 -0.9733,-2.1739 -2.1739 -2.1739c -1.2006,-0.0000 -2.1739,0.9733 -2.1739 2.1739c -0.0000,1.2006 0.9733,2.1739 2.1739 2.1739c 1.2006,0.0000 2.1739,-0.9733 2.1739 -2.1739Z"/></g><g stroke-linecap="butt" fill="rgb(0,0,255)" stroke-miterlimit="10.0" stroke-width="1.9999999999999998" fill-opacity="1.0" stroke-opacity="0.0" stroke-linejoin="miter" stroke="rgb(0,0,0)"><path d="M 124.6737,406.8442 c 0.0000,-1.2006 -0.9733,-2.1739 -2.1739 -2.1739c -1.2006,-0.0000 -2.1739,0.9733 -2.1739 2.1739c -0.0000,1.2006 0.9733,2.1739 2.1739 2.1739c 1.2006,0.0000 2.1739,-0.9733 2.1739 -2.1739Z"/></g><g stroke-linecap="butt" fill="rgb(0,0,255)" stroke-miterlimit="10.0" stroke-width="1.9999999999999998" fill-opacity="1.0" stroke-opacity="0.0" stroke-linejoin="miter" stroke="rgb(0,0,0)"><path d="M 169.5466,403.4380 c 0.0000,-1.2006 -0.9733,-2.1739 -2.1739 -2.1739c -1.2006,-0.0000 -2.1739,0.9733 -2.1739 2.1739c -0.0000,1.2006 0.9733,2.1739 2.1739 2.1739c 1.2006,0.0000 2.1739,-0.9733 2.1739 -2.1739Z"/></g><g stroke-linecap="butt" fill="rgb(0,0,255)" stroke-miterlimit="10.0" stroke-width="1.9999999999999998" fill-opacity="1.0" stroke-opacity="0.0" stroke-linejoin="miter" stroke="rgb(0,0,0)"><path d="M 138.7188,239.6654 c 0.0000,-1.2006 -0.9733,-2.1739 -2.1739 -2.1739c -1.2006,-0.0000 -2.1739,0.9733 -2.1739 2.1739c -0.0000,1.2006 0.9733,2.1739 2.1739 2.1739c 1.2006,0.0000 2.1739,-0.9733 2.1739 -2.1739Z"/></g><g stroke-linecap="butt" fill="rgb(0,0,255)" stroke-miterlimit="10.0" stroke-width="1.9999999999999998" fill-opacity="1.0" stroke-opacity="0.0" stroke-linejoin="miter" stroke="rgb(0,0,0)"><path d="M 422.6785,320.0714 c 0.0000,-1.2006 -0.9733,-2.1739 -2.1739 -2.1739c -1.2006,-0.0000 -2.1739,0.9733 -2.1739 2.1739c -0.0000,1.2006 0.9733,2.1739 2.1739 2.1739c 1.2006,0.0000 2.1739,-0.9733 2.1739 -2.1739Z"/></g><g stroke-linecap="butt" fill="rgb(0,0,255)" stroke-miterlimit="10.0" stroke-width="1.9999999999999998" fill-opacity="1.0" stroke-opacity="0.0" stroke-linejoin="miter" stroke="rgb(0,0,0)"><path d="M 215.1077,222.2318 c 0.0000,-1.2006 -0.9733,-2.1739 -2.1739 -2.1739c -1.2006,-0.0000 -2.1739,0.9733 -2.1739 2.1739c -0.0000,1.2006 0.9733,2.1739 2.1739 2.1739c 1.2006,0.0000 2.1739,-0.9733 2.1739 -2.1739Z"/></g></svg>