<?xml version="1.0" encoding="UTF-8"?>
<!DOCTYPE svg PUBLIC "-//W3C//DTD SVG 1.1//EN"
    "http://www.w3.org/Graphics/SVG/1.1/DTD/svg11.dtd"><svg xmlns="http://www.w3.org/2000/svg" viewBox="0.0 0.0 500.0 500.0" height="500.0000" font-size="1" stroke-opacity="1" width="500.0000" xmlns:xlink="http://www.w3.org/1999/xlink" stroke="rgb(0,0,0)" version="1.1"><defs></defs><g stroke-linecap="butt" fill="rgb(0,0,0)" stroke-miterlimit="10.0" stroke-width="1.9999999999999998" fill-opacity="0.0" stroke-opacity="1.0" stroke-linejoin="miter" stroke="rgb(0,0,0)"><path d="M 0.0000,445.6522 h 482.5000 "/></g><g stroke-linecap="butt" fill="rgb(0,0,0)" stroke-miterlimit="10.0" stroke-width="0.0" fill-opacity="1.0" stroke-opacity="1.0" stroke-linejoin="miter" stroke="rgb(0,0,0)"></g><g stroke-linecap="butt" fill="rgb(0,0,0)" stroke-miterlimit="10.0" stroke-width="0.0" fill-opacity="1.0" stroke-opacity="1.0" stroke-linejoin="miter" stroke="rgb(0,0,0)"></g><g stroke-linecap="butt" fill="rgb(0,0,0)" stroke-miterlimit="10.0" stroke-width="0.0" fill-opacity="1.0" stroke-opacity="1.0" stroke-linejoin="miter" stroke="rgb(0,0,0)"><path d="M 500.0000,445.6522 l -20.4712,-6.6515 l 3.4969,6.6515 l -3.4969,6.6515 Z"/></g><g stroke-linecap="butt" fill="rgb(0,0,0)" stroke-miterlimit="10.0" stroke-width="0.0" fill-opacity="1.0" stroke-opacity="1.0" stroke-linejoin="miter" stroke="rgb(0,0,0)"><path d="M 483.0257,445.6522 h -0.5257 v -1.0000 l 0.5257,1.0000 h -0.5257 v 1.0000 Z"/></g><g stroke-linecap="butt" fill="rgb(0,0,0)" stroke-miterlimit="10.0" stroke-width="1.9999999999999998" fill-opacity="0.0" stroke-opacity="1.0" stroke-linejoin="miter" stroke="rgb(0,0,0)"><path d="M 54.3478,500.0000 l 0.0000,-482.5000 "/></g><g stroke-linecap="butt" fill="rgb(0,0,0)" stroke-miterlimit="10.0" stroke-width="0.0" fill-opacity="1.0" stroke-opacity="1.0" stroke-linejoin="miter" stroke="rgb(0,0,0)"></g><g stroke-linecap="butt" fill="rgb(0,0,0)" stroke-miterlimit="10.0" stroke-width="0.0" fill-opacity="1.0" stroke-opacity="1.0" stroke-linejoin="miter" stroke="rgb(0,0,0)"></g><g stroke-linecap="butt" fill="rgb(0,0,0)" stroke-miterlimit="10.0" stroke-width="0.0" fill-opacity="1.0" stroke-opacity="1.0" stroke-linejoin="miter" stroke="rgb(0,0,0)"><path d="M 54.3478,-0.0000 l -6.6515,20.4712 l 6.6515,-3.4969 l 6.6515,3.4969 Z"/></g><g stroke-linecap="butt" fill="rgb(0,0,0)" stroke-miterlimit="10.0" stroke-width="0.0" fill-opacity="1.0" stroke-opacity="1.0" stroke-linejoin="miter" stroke="rgb(0,0,0)"><path d="M 54.3478,16.9743 l -0.0000,0.5257 l -1.0000,-0.0000 l 1.0000,-0.5257 l -0.0000,0.5257 l 1.0000,0.0000 Z"/></g><g stroke-linecap="butt" fill="rgb(255,0,0)" stroke-miterlimit="10.0" stroke-width="1.9999999999999998" fill-opacity="1.0" stroke-opacity="0.0" stroke-linejoin="miter" stroke="rgb(0,0,0)"><path d="M 477.1739,260.8696 c 0.0000,-1.2006 -0.9733,-2.1739 -2.1739 -2.1739c -1.2006,-0.0000 -2.1739,0.9733 -2.1739 2.1739c -0.0000,1.2006 0.9733,2.1739 2.1739 2.1739c 1.2006,0.0000 2.1739,-0.9733 2.1739 -2.1739Z"/></g><g stroke-linecap="butt" fill="rgb(255,0,0)" stroke-miterlimit="10.0" stroke-width="1.9999999999999998" fill-opacity="1.0" stroke-opacity="0.0" stroke-linejoin="miter" stroke="rgb(0,0,0)"><path d="M 458.6957,418.4783 c 0.0000,-1.2006 -0.9733,-2.1739 -2.1739 -2.1739c -1.2006,-0.0000 -2.1739,0.9733 -2.1739 2.1739c -0.0000,1.2006 0.9733,2.1739 2.1739 2.1739c 1.2006,0.0000 2.1739,-0.9733 2.1739 -2.1739Z"/></g><g stroke-linecap="butt" fill="rgb(255,0,0)" stroke-miterlimit="10.0" stroke-width="1.9999999999999998" fill-opacity="1.0" stroke-opacity="0.0" stroke-linejoin="miter" stroke="rgb(0,0,0)"><path d="M 457.6087,67.3913 c 0.0000,-1.2006 -0.9733,-2.1739 -2.1739 -2.1739c -1.2006,-0.0000 -2.1739,0.9733 -2.1739 2.1739c -0.0000,1.2006 0.9733,2.1739 2.1739 2.1739c 1.2006,0.0000 2.1739,-0.9733 2.1739 -2.1739Z"/></g><g stroke-linecap="butt" fill="rgb(255,0,0)" stroke-miterlimit="10.0" stroke-width="1.9999999999999998" fill-opacity="1.0" stroke-opacity="0.0" stroke-linejoin="miter" stroke="rgb(0,0,0)"><path d="M 397.8261,39.1304 c 0.0000,-1.2006 -0.9733,-2.1739 -2.1739 -2.1739c -1.2006,-0.0000 -2.1739,0.9733 -2.1739 2.1739c -0.0000,1.2006 0.9733,2.1739 2.1739 2.1739c 1.2006,0.0000 2.1739,-0.9733 2.1739 -2.1739Z"/></g><g stroke-linecap="butt" fill="rgb(255,0,0)" stroke-miterlimit="10.0" stroke-width="1.9999999999999998" fill-opacity="1.0" stroke-opacity="0.0" stroke-linejoin="miter" stroke="rgb(0,0,0)"><path d="M 375.0000,41.3043 c 0.0000,-1.2006 -0.9733,-2.1739 -2.1739 -2.1739c -1.2006,-0.0000 -2.1739,0.9733 -2.1739 2.1739c -0.0000,1.2006 0.9733,2.1739 2.1739 2.1739c 1.2006,0.0000 2.1739,-0.9733 2.1739 -2.1739Z"/></g><g stroke-linecap="butt" fill="rgb(255,0,0)" stroke-miterlimit="10.0" stroke-width="1.9999999999999998" fill-opacity="1.0" stroke-opacity="0.0" stroke-linejoin="miter" stroke="rgb(0,0,0)"><path d="M 151.0870,439.1304 c 0.0000,-1.2006 -0.9733,-2.1739 -2.1739 -2.1739c -1.2006,-0.0000 -2.1739,0.9733 -2.1739 2.1739c -0.0000,1.2006 0.9733,2.1739 2.1739 2.1739c 1.2006,0.0000 2.1739,-0.9733 2.1739 -2.1739Z"/></g><g stroke-linecap="butt" fill="rgb(255,0,0)" stroke-miterlimit="10.0" stroke-width="1.9999999999999998" fill-opacity="1.0" stroke-opacity="0.0" stroke-linejoin="miter" stroke="rgb(0,0,0)"><path d="M 117.3913,435.8696 c 0.0000,-1.2006 -0.9733,-2.1739 -2.1739 -2.1739c -1.2006,-0.0000 -2.1739,0.9733 -2.1739 2.1739c -0.0000,1.2006 0.9733,2.1739 2.1739 2.1739c 1.2006,0.0000 2.1739,-0.9733 2.1739 -2.1739Z"/></g><g stroke-linecap="butt" fill="rgb(255,0,0)" stroke-miterlimit="10.0" stroke-width="1.9999999999999998" fill-opacity="1.0" stroke-opacity="0.0" stroke-linejoin="miter" stroke="rgb(0,0,0)"><path d="M 106.5217,44.5652 c 0.0000,-1.2006 -0.9733,-2.1739 -2.1739 -2.1739c -1.2006,-0.0000 -2.1739,0.9733 -2.1739 2.1739c -0.0000,1.2006 0.9733,2.1739 2.1739 2.1739c 1.2006,0.0000 2.1739,-0.9733 2.1739 -2.1739Z"/></g><g stroke-linecap="butt" fill="rgb(255,0,0)" stroke-miterlimit="10.0" stroke-width="1.9999999999999998" fill-opacity="1.0" stroke-opacity="0.0" stroke-linejoin="miter" stroke="rgb(0,0,0)"><path d="M 76.0870,108.6957 c 0.0000,-1.2006 -0.9733,-2.1739 -2.1739 -2.1739c -1.2006,-0.0000 -2.1739,0.9733 -2.1739 2.1739c -0.0000,1.2006 0.9733,2.1739 2.1739 2.1739c 1.2006,0.0000 2.1739,-0.9733 2.1739 -2.1739Z"/></g><g stroke-linecap="butt" fill="rgb(255,0,0)" stroke-miterlimit="10.0" stroke-width="1.9999999999999998" fill-opacity="1.0" stroke-opacity="0.0" stroke-linejoin="miter" stroke="rgb(0,0,0)"><path d="M 73.9130,431.5217 c 0.0000,-1.2006 -0.9733,-2.1739 -2.1739 -2.1739c -1.2006,-0.0000 -2.1739,0.9733 -2.1739 2.1739c -0.0000,1.2006 0.9733,2.1739 2.1739 2.1739c 1.2006,0.0000 2.1739,-0.9733 2.1739 -2.1739Z"/></g><g stroke-linecap="butt" fill="rgb(255,0,0)" stroke-miterlimit="10.0" stroke-width="1.9999999999999998" fill-opacity="1.0" stroke-opacity="0.0" stroke-linejoin="miter" stroke="rgb(0,0,0)"><path d="M 69.5652,132.6087 c 0.0000,-1.2006 -0.9733,-2.1739 -2.1739 -2.1739c -1.2006,-0.0000 -2.1739,0.9733 -2.1739 2.1739c -0.0000,1.2006 0.9733,2.1739 2.1739 2.1739c 1.2006,0.0000 2.1739,-0.9733 2.1739 -2.1739Z"/></g><g stroke-linecap="butt" fill="rgb(255,0,0)" stroke-miterlimit="10.0" stroke-width="1.9999999999999998" fill-opacity="1.0" stroke-opacity="0.0" stroke-linejoin="miter" stroke="rgb(0,0,0)"><path d="M 66.3043,354.3478 c 0.0000,-1.2006 -0.9733,-2.1739 -2.1739 -2.1739c -1.2006,-0.0000 -2.1739,0.9733 -2.1739 2.1739c -0.0000,1.2006 0.9733,2.1739 2.1739 2.1739c 1.2006,0.0000 2.1739,-0.9733 2.1739 -2.1739Z"/></g><g stroke-linecap="butt" fill="rgb(255,0,0)" stroke-miterlimit="10.0" stroke-width="1.9999999999999998" fill-opacity="1.0" stroke-opacity="0.0" stroke-linejoin="miter" stroke="rgb(0,0,0)"><path d="M 61.9565,270.6522 c 0.0000,-1.2006 -0.9733,-2.1739 -2.1739 -2.1739c -1.2006,-0.0000 -2.1739,0.9733 -2.1739 2.1739c -0.0000,1.2006 0.9733,2.1739 2.1739 2.1739c 1.2006,0.0000 2.1739,-0.9733 2.1739 -2.1739Z"/></g><g stroke-linecap="butt" fill="rgb(0,0,255)" stroke-miterlimit="10.0" stroke-width="1.9999999999999998" fill-opacity="1.0" stroke-opacity="0.0" stroke-linejoin="miter" stroke="rgb(0,0,0)"><path d="M 323.9130,234.7826 c 0.0000,-1.2006 -0.9733,-2.1739 -2.1739 -2.1739c -1.2006,-0.0000 -2.1739,0.9733 -2.1739 2.1739c -0.0000,1.2006 0.9733,2.1739 2.1739 2.1739c 1.2006,0.0000 2.1739,-0.9733 2.1739 -2.1739Z"/></g><g stroke-linecap="butt" fill="rgb(0,0,255)" stroke-miterlimit="10.0" stroke-width="1.9999999999999998" fill-opacity="1.0" stroke-opacity="0.0" stroke-linejoin="miter" stroke="rgb(0,0,0)"><path d="M 225.0000,281.5217 c 0.0000,-1.2006 -0.9733,-2.1739 -2.1739 -2.1739c -1.2006,-0.0000 -2.1739,0.9733 -2.1739 2.1739c -0.0000,1.2006 0.9733,2.1739 2.1739 2.1739c 1.2006,0.0000 2.1739,-0.9733 2.1739 -2.1739Z"/></g><g stroke-linecap="butt" fill="rgb(0,0,255)" stroke-miterlimit="10.0" stroke-width="1.9999999999999998" fill-opacity="1.0" stroke-opacity="0.0" stroke-linejoin="miter" stroke="rgb(0,0,0)"><path d="M 128.2609,106.5217 c 0.0000,-1.2006 -0.9733,-2.1739 -2.1739 -2.1739c -1.2006,-0.0000 -2.1739,0.9733 -2.1739 2.1739c -0.0000,1.2006 0.9733,2.1739 2.1739 2.1739c 1.2006,0.0000 2.1739,-0.9733 2.1739 -2.1739Z"/></g><g stroke-linecap="butt" fill="rgb(0,0,255)" stroke-miterlimit="10.0" stroke-width="1.9999999999999998" fill-opacity="1.0" stroke-opacity="0.0" stroke-linejoin="miter" stroke="rgb(0,0,0)"><path d="M 259.7826,155.4348 c 0.0000,-1.2006 -0.9733,-2.1739 -2.1739 -2.1739c -1.2006,-0.0000 -2.1739,0.9733 -2.1739 2.1739c -0.0000,1.2006 0.9733,2.1739 2.1739 2.1739c 1.2006,0.0000 2.1739,-0.9733 2.1739 -2.1739Z"/></g><g stroke-linecap="butt" fill="rgb(0,0,255)" stroke-miterlimit="10.0" stroke-width="1.9999999999999998" fill-opacity="1.0" stroke-opacity="0.0" stroke-linejoin="miter" stroke="rgb(0,0,0)"><path d="M 280.4348,416.3043 c 0.0000,-1.2006 -0.9733,-2.1739 -2.1739 -2.1739c -1.2006,-0.0000 -2.1739,0.9733 -2.1739 2.1739c -0.0000,1.2006 0.9733,2.1739 2.1739 2.1739c 1.2006,0.0000 2.1739,-0.9733 2.1739 -2.1739Z"/></g><g stroke-linecap="butt" fill="rgb(0,0,255)" stroke-miterlimit="10.0" stroke-width="1.9999999999999998" fill-opacity="1.0" stroke-opacity="0.0" stroke-linejoin="miter" stroke="rgb(0,0,0)"><path d="M 266.3043,254.3478 c 0.0000,-1.2006 -0.9733,-2.1739 -2.1739 -2.1739c -1.2006,-0.0000 -2.1739,0.9733 -2.1739 2.1739c -0.0000,1.2006 0.9733,2.1739 2.1739 2.1739c 1.2006,0.0000 2.1739,-0.9733 2.1739 -2.1739Z"/></g><g stroke-linecap="butt" fill="rgb(0,0,255)" stroke-miterlimit="10.0" stroke-width="1.9999999999999998" fill-opacity="1.0" stroke-opacity="0.0" stroke-linejoin="miter" stroke="rgb(0,0,0)"><path d="M 138.0435,369.5652 c 0.0000,-1.2006 -0.9733,-2.1739 -2.1739 -2.1739c -1.2006,-0.0000 -2.1739,0.9733 -2.1739 2.1739c -0.0000,1.2006 0.9733,2.1739 2.1739 2.1739c 1.2006,0.0000 2.1739,-0.9733 2.1739 -2.1739Z"/></g><g stroke-linecap="butt" fill="rgb(0,0,255)" stroke-miterlimit="10.0" stroke-width="1.9999999999999998" fill-opacity="1.0" stroke-opacity="0.0" stroke-linejoin="miter" stroke="rgb(0,0,0)"><path d="M 294.5652,128.2609 c 0.0000,-1.2006 -0.9733,-2.1739 -2.1739 -2.1739c -1.2006,-0.0000 -2.1739,0.9733 -2.1739 2.1739c -0.0000,1.2006 0.9733,2.1739 2.1739 2.1739c 1.2006,0.0000 2.1739,-0.9733 2.1739 -2.1739Z"/></g><g stroke-linecap="butt" fill="rgb(0,0,255)" stroke-miterlimit="10.0" stroke-width="1.9999999999999998" fill-opacity="1.0" stroke-opacity="0.0" stroke-linejoin="miter" stroke="rgb(0,0,0)"><path d="M 81.5217,336.9565 c 0.0000,-1.2006 -0.9733,-2.1739 -2.1739 -2.1739c -1.2006,-0.0000 -2.1739,0.9733 -2.1739 2.1739c -0.0000,1.2006 0.9733,2.1739 2.1739 2.1739c 1.2006,0.0000 2.1739,-0.9733 2.1739 -2.1739Z"/></g><g stroke-linecap="butt" fill="rgb(0,0,255)" stroke-miterlimit="10.0" stroke-width="1.9999999999999998" fill-opacity="1.0" stroke-opacity="0.0" stroke-linejoin="miter" stroke="rgb(0,0,0)"><path d="M 126.0870,272.8261 c 0.0000,-1.2006 -0.9733,-2.1739 -2.1739 -2.1739c -1.2006,-0.0000 -2.1739,0.9733 -2.1739 2.1739c -0.0000,1.2006 0.9733,2.1739 2.1739 2.1739c 1.2006,0.0000 2.1739,-0.9733 2.1739 -2.1739Z"/></g><g stroke-linecap="butt" fill="rgb(0,0,255)" stroke-miterlimit="10.0" stroke-width="1.9999999999999998" fill-opacity="1.0" stroke-opacity="0.0" stroke-linejoin="miter" stroke="rgb(0,0,0)"><path d="M 264.1304,404.3478 c 0.0000,-1.2006 -0.9733,-2.1739 -2.1739 -2.1739c -1.2006,-0.0000 -2.1739,0.9733 -2.1739 2.1739c -0.0000,1.2006 0.9733,2.1739 2.1739 2.1739c 1.2006,0.0000 2.1739,-0.9733 2.1739 -2.1739Z"/></g><g stroke-linecap="butt" fill="rgb(0,0,255)" stroke-miterlimit="10.0" stroke-width="1.9999999999999998" fill-opacity="1.0" stroke-opacity="0.0" stroke-linejoin="miter" stroke="rgb(0,0,0)"><path d="M 165.2174,135.8696 c 0.0000,-1.2006 -0.9733,-2.1739 -2.1739 -2.1739c -1.2006,-0.0000 -2.1739,0.9733 -2.1739 2.1739c -0.0000,1.2006 0.9733,2.1739 2.1739 2.1739c 1.2006,0.0000 2.1739,-0.9733 2.1739 -2.1739Z"/></g><g stroke-linecap="butt" fill="rgb(0,0,255)" stroke-miterlimit="10.0" stroke-width="1.9999999999999998" fill-opacity="1.0" stroke-opacity="0.0" stroke-linejoin="miter" stroke="rgb(0,0,0)"><path d="M 89.1304,326.0870 c 0.0000,-1.2006 -0.9733,-2.1739 -2.1739 -2.1739c -1.2006,-0.0000 -2.1739,0.9733 -2.1739 2.1739c -0.0000,1.2006 0.9733,2.1739 2.1739 2.1739c 1.2006,0.0000 2.1739,-0.9733 2.1739 -2.1739Z"/></g><g stroke-linecap="butt" fill="rgb(0,0,255)" stroke-miterlimit="10.0" stroke-width="1.9999999999999998" fill-opacity="1.0" stroke-opacity="0.0" stroke-linejoin="miter" stroke="rgb(0,0,0)"><path d="M 97.8261,369.5652 c 0.0000,-1.2006 -0.9733,-2.1739 -2.1739 -2.1739c -1.2006,-0.0000 -2.1739,0.9733 -2.1739 2.1739c -0.0000,1.2006 0.9733,2.1739 2.1739 2.1739c 1.2006,0.0000 2.1739,-0.9733 2.1739 -2.1739Z"/></g><g stroke-linecap="butt" fill="rgb(0,0,255)" stroke-miterlimit="10.0" stroke-width="1.9999999999999998" fill-opacity="1.0" stroke-opacity="0.0" stroke-linejoin="miter" stroke="rgb(0,0,0)"><path d="M 117.3913,413.0435 c 0.0000,-1.2006 -0.9733,-2.1739 -2.1739 -2.1739c -1.2006,-0.0000 -2.1739,0.9733 -2.1739 2.1739c -0.0000,1.2006 0.9733,2.1739 2.1739 2.1739c 1.2006,0.0000 2.1739,-0.9733 2.1739 -2.1739Z"/></g><g stroke-linecap="butt" fill="rgb(0,0,255)" stroke-miterlimit="10.0" stroke-width="1.9999999999999998" fill-opacity="1.0" stroke-opacity="0.0" stroke-linejoin="miter" stroke="rgb(0,0,0)"><path d="M 198.9130,178.2609 c 0.0000,-1.2006 -0.9733,-2.1739 -2.1739 -2.1739c -1.2006,-0.0000 -2.1739,0.9733 -2.1739 2.1739c -0.0000,1.2006 0.9733,2.1739 2.1739 2.1739c 1.2006,0.0000 2.1739,-0.9733 2.1739 -2.1739Z"/></g><g stroke-linecap="butt" fill="rgb(0,0,255)" stroke-miterlimit="10.0" stroke-width="1.9999999999999998" fill-opacity="1.0" stroke-opacity="0.0" stroke-linejoin="miter" stroke="rgb(0,0,0)"><path d="M 153.2609,214.1304 c 0.0000,-1.2006 -0.9733,-2.1739 -2.1739 -2.1739c -1.2006,-0.0000 -2.1739,0.9733 -2.1739 2.1739c -0.0000,1.2006 0.9733,2.1739 2.1739 2.1739c 1.2006,0.0000 2.1739,-0.9733 2.1739 -2.1739Z"/></g><g stroke-linecap="butt" fill="rgb(0,0,255)" stroke-miterlimit="10.0" stroke-width="1.9999999999999998" fill-opacity="1.0" stroke-opacity="0.0" stroke-linejoin="miter" stroke="rgb(0,0,0)"><path d="M 352.1739,394.5652 c 0.0000,-1.2006 -0.9733,-2.1739 -2.1739 -2.1739c -1.2006,-0.0000 -2.1739,0.9733 -2.1739 2.1739c -0.0000,1.2006 0.9733,2.1739 2.1739 2.1739c 1.2006,0.0000 2.1739,-0.9733 2.1739 -2.1739Z"/></g><g stroke-linecap="butt" fill="rgb(0,0,255)" stroke-miterlimit="10.0" stroke-width="1.9999999999999998" fill-opacity="1.0" stroke-opacity="0.0" stroke-linejoin="miter" stroke="rgb(0,0,0)"><path d="M 351.0870,376.0870 c 0.0000,-1.2006 -0.9733,-2.1739 -2.1739 -2.1739c -1.2006,-0.0000 -2.1739,0.9733 -2.1739 2.1739c -0.0000,1.2006 0.9733,2.1739 2.1739 2.1739c 1.2006,0.0000 2.1739,-0.9733 2.1739 -2.1739Z"/></g><g stroke-linecap="butt" fill="rgb(0,0,255)" stroke-miterlimit="10.0" stroke-width="1.9999999999999998" fill-opacity="1.0" stroke-opacity="0.0" stroke-linejoin="miter" stroke="rgb(0,0,0)"><path d="M 427.1739,216.3043 c 0.0000,-1.2006 -0.9733,-2.1739 -2.1739 -2.1739c -1.2006,-0.0000 -2.1739,0.9733 -2.1739 2.1739c -0.0000,1.2006 0.9733,2.1739 2.1739 2.1739c 1.2006,0.0000 2.1739,-0.9733 2.1739 -2.1739Z"/></g><g stroke-linecap="butt" fill="rgb(0,0,255)" stroke-miterlimit="10.0" stroke-width="1.9999999999999998" fill-opacity="1.0" stroke-opacity="0.0" stroke-linejoin="miter" stroke="rgb(0,0,0)"><path d="M 441.3043,184.7826 c 0.0000,-1.2006 -0.9733,-2.1739 -2.1739 -2.1739c -1.2006,-0.0000 -2.1739,0.9733 -2.1739 2.1739c -0.0000,1.2006 0.9733,2.1739 2.1739 2.1739c 1.2006,0.0000 2.1739,-0.9733 2.1739 -2.1739Z"/></g><g stroke-linecap="butt" fill="rgb(0,0,255)" stroke-miterlimit="10.0" stroke-width="1.9999999999999998" fill-opacity="1.0" stroke-opacity="0.0" stroke-linejoin="miter" stroke="rgb(0,0,0)"><path d="M 340.2174,179.3478 c 0.0000,-1.2006 -0.9733,-2.1739 -2.1739 -2.1739c -1.2006,-0.0000 -2.1739,0.9733 -2.1739 2.1739c -0.0000,1.2006 0.9733,2.1739 2.1739 2.1739c 1.2006,0.0000 2.1739,-0.9733 2.1739 -2.1739Z"/></g><g stroke-linecap="butt" fill="rgb(0,0,255)" stroke-miterlimit="10.0" stroke-width="1.9999999999999998" fill-opacity="1.0" stroke-opacity="0.0" stroke-linejoin="miter" stroke="rgb(0,0,0)"><path d="M 114.1304,383.6957 c 0.0000,-1.2006 -0.9733,-2.1739 -2.1739 -2.1739c -1.2006,-0.0000 -2.1739,0.9733 -2.1739 2.1739c -0.0000,1.2006 0.9733,2.1739 2.1739 2.1739c 1.2006,0.0000 2.1739,-0.9733 2.1739 -2.1739Z"/></g><g stroke-linecap="butt" fill="rgb(0,0,255)" stroke-miterlimit="10.0" stroke-width="1.9999999999999998" fill-opacity="1.0" stroke-opacity="0.0" stroke-linejoin="miter" stroke="rgb(0,0,0)"><path d="M 214.1304,247.8261 c 0.0000,-1.2006 -0.9733,-2.1739 -2.1739 -2.1739c -1.2006,-0.0000 -2.1739,0.9733 -2.1739 2.1739c -0.0000,1.2006 0.9733,2.1739 2.1739 2.1739c 1.2006,0.0000 2.1739,-0.9733 2.1739 -2.1739Z"/></g><g stroke-linecap="butt" fill="rgb(0,0,255)" stroke-miterlimit="10.0" stroke-width="1.9999999999999998" fill-opacity="1.0" stroke-opacity="0.0" stroke-linejoin="miter" stroke="rgb(0,0,0)"><path d="M 436.9565,360.8696 c 0.0000,-1.2006 -0.9733,-2.1739 -2.1739 -2.1739c -1.2006,-0.0000 -2.1739,0.9733 -2.1739 2.1739c -0.0000,1.2006 0.9733,2.1739 2.1739 2.1739c 1.2006,0.0000 2.1739,-0.9733 2.1739 -2.1739Z"/></g><g stroke-linecap="butt" fill="rgb(0,0,255)" stroke-miterlimit="10.0" stroke-width="1.9999999999999998" fill-opacity="1.0" stroke-opacity="0.0" stroke-linejoin="miter" stroke="rgb(0,0,0)"><path d="M 146.7391,235.8696 c 0.0000,-1.2006 -0.9733,-2.1739 -2.1739 -2.1739c -1.2006,-0.0000 -2.1739,0.9733 -2.1739 2.1739c -0.0000,1.2006 0.9733,2.1739 2.1739 2.1739c 1.2006,0.0000 2.1739,-0.9733 2.1739 -2.1739Z"/></g><g stroke-linecap="butt" fill="rgb(0,0,255)" stroke-miterlimit="10.0" stroke-width="1.9999999999999998" fill-opacity="1.0" stroke-opacity="0.0" stroke-linejoin="miter" stroke="rgb(0,0,0)"><path d="M 426.0870,293.4783 c 0.0000,-1.2006 -0.9733,-2.1739 -2.1739 -2.1739c -1.2006,-0.0000 -2.1739,0.9733 -2.1739 2.1739c -0.0000,1.2006 0.9733,2.1739 2.1739 2.1739c 1.2006,0.0000 2.1739,-0.9733 2.1739 -2.1739Z"/></g><g stroke-linecap="butt" fill="rgb(0,0,255)" stroke-miterlimit="10.0" stroke-width="1.9999999999999998" fill-opacity="1.0" stroke-opacity="0.0" stroke-linejoin="miter" stroke="rgb(0,0,0)"><path d="M 338.0435,393.4783 c 0.0000,-1.2006 -0.9733,-2.1739 -2.1739 -2.1739c -1.2006,-0.0000 -2.1739,0.9733 -2.1739 2.1739c -0.0000,1.2006 0.9733,2.1739 2.1739 2.1739c 1.2006,0.0000 2.1739,-0.9733 2.1739 -2.1739Z"/></g><g stroke-linecap="butt" fill="rgb(0,0,255)" stroke-miterlimit="10.0" stroke-width="1.9999999999999998" fill-opacity="1.0" stroke-opacity="0.0" stroke-linejoin="miter" stroke="rgb(0,0,0)"><path d="M 440.2174,313.0435 c 0.0000,-1.2006 -0.9733,-2.1739 -2.1739 -2.1739c -1.2006,-0.0000 -2.1739,0.9733 -2.1739 2.1739c -0.0000,1.2006 0.9733,2.1739 2.1739 2.1739c 1.2006,0.0000 2.1739,-0.9733 2.1739 -2.1739Z"/></g><g stroke-linecap="butt" fill="rgb(0,0,255)" stroke-miterlimit="10.0" stroke-width="1.9999999999999998" fill-opacity="1.0" stroke-opacity="0.0" stroke-linejoin="miter" stroke="rgb(0,0,0)"><path d="M 121.7391,356.5217 c 0.0000,-1.2006 -0.9733,-2.1739 -2.1739 -2.1739c -1.2006,-0.0000 -2.1739,0.9733 -2.1739 2.1739c -0.0000,1.2006 0.9733,2.1739 2.1739 2.1739c 1.2006,0.0000 2.1739,-0.9733 2.1739 -2.1739Z"/></g><g stroke-linecap="butt" fill="rgb(0,0,255)" stroke-miterlimit="10.0" stroke-width="1.9999999999999998" fill-opacity="1.0" stroke-opacity="0.0" stroke-linejoin="miter" stroke="rgb(0,0,0)"><path d="M 385.8696,206.5217 c 0.0000,-1.2006 -0.9733,-2.1739 -2.1739 -2.1739c -1.2006,-0.0000 -2.1739,0.9733 -2.1739 2.1739c -0.0000,1.2006 0.9733,2.1739 2.1739 2.1739c 1.2006,0.0000 2.1739,-0.9733 2.1739 -2.1739Z"/></g><g stroke-linecap="butt" fill="rgb(0,0,255)" stroke-miterlimit="10.0" stroke-width="1.9999999999999998" fill-opacity="1.0" stroke-opacity="0.0" stroke-linejoin="miter" stroke="rgb(0,0,0)"><path d="M 301.0870,86.9565 c 0.0000,-1.2006 -0.9733,-2.1739 -2.1739 -2.1739c -1.2006,-0.0000 -2.1739,0.9733 -2.1739 2.1739c -0.0000,1.2006 0.9733,2.1739 2.1739 2.1739c 1.2006,0.0000 2.1739,-0.9733 2.1739 -2.1739Z"/></g><g stroke-linecap="butt" fill="rgb(0,0,255)" stroke-miterlimit="10.0" stroke-width="1.9999999999999998" fill-opacity="1.0" stroke-opacity="0.0" stroke-linejoin="miter" stroke="rgb(0,0,0)"><path d="M 107.6087,70.6522 c 0.0000,-1.2006 -0.9733,-2.1739 -2.1739 -2.1739c -1.2006,-0.0000 -2.1739,0.9733 -2.1739 2.1739c -0.0000,1.2006 0.9733,2.1739 2.1739 2.1739c 1.2006,0.0000 2.1739,-0.9733 2.1739 -2.1739Z"/></g><g stroke-linecap="butt" fill="rgb(0,0,255)" stroke-miterlimit="10.0" stroke-width="1.9999999999999998" fill-opacity="1.0" stroke-opacity="0.0" stroke-linejoin="miter" stroke="rgb(0,0,0)"><path d="M 296.7391,370.6522 c 0.0000,-1.2006 -0.9733,-2.1739 -2.1739 -2.1739c -1.2006,-0.0000 -2.1739,0.9733 -2.1739 2.1739c -0.0000,1.2006 0.9733,2.1739 2.1739 2.1739c 1.2006,0.0000 2.1739,-0.9733 2.1739 -2.1739Z"/></g><g stroke-linecap="butt" fill="rgb(0,0,255)" stroke-miterlimit="10.0" stroke-width="1.9999999999999998" fill-opacity="1.0" stroke-opacity="0.0" stroke-linejoin="miter" stroke="rgb(0,0,0)"><path d="M 215.2174,67.3913 c 0.0000,-1.2006 -0.9733,-2.1739 -2.1739 -2.1739c -1.2006,-0.0000 -2.1739,0.9733 -2.1739 2.1739c -0.0000,1.2006 0.9733,2.1739 2.1739 2.1739c 1.2006,0.0000 2.1739,-0.9733 2.1739 -2.1739Z"/></g><g stroke-linecap="butt" fill="rgb(0,0,255)" stroke-miterlimit="10.0" stroke-width="1.9999999999999998" fill-opacity="1.0" stroke-opacity="0.0" stroke-linejoin="miter" stroke="rgb(0,0,0)"><path d="M 305.4348,90.2174 c 0.0000,-1.2006 -0.9733,-2.1739 -2.1739 -2.1739c -1.2006,-0.0000 -2.1739,0.9733 -2.1739 2.1739c -0.0000,1.2006 0.9733,2.1739 2.1739 2.1739c 1.2006,0.0000 2.1739,-0.9733 2.1739 -2.1739Z"/></g><g stroke-linecap="butt" fill="rgb(0,0,255)" stroke-miterlimit="10.0" stroke-width="1.9999999999999998" fill-opacity="1.0" stroke-opacity="0.0" stroke-linejoin="miter" stroke="rgb(0,0,0)"><path d="M 100.0000,284.7826 c 0.0000,-1.2006 -0.9733,-2.1739 -2.1739 -2.1739c -1.2006,-0.0000 -2.1739,0.9733 -2.1739 2.1739c -0.0000,1.2006 0.9733,2.1739 2.1739 2.1739c 1.2006,0.0000 2.1739,-0.9733 2.1739 -2.1739Z"/></g><g stroke-linecap="butt" fill="rgb(0,0,255)" stroke-miterlimit="10.0" stroke-width="1.9999999999999998" fill-opacity="1.0" stroke-opacity="0.0" stroke-linejoin="miter" stroke="rgb(0,0,0)"><path d="M 158.6957,385.8696 c 0.0000,-1.2006 -0.9733,-2.1739 -2.1739 -2.1739c -1.2006,-0.0000 -2.1739,0.9733 -2.1739 2.1739c -0.0000,1.2006 0.9733,2.1739 2.1739 2.1739c 1.2006,0.0000 2.1739,-0.9733 2.1739 -2.1739Z"/></g><g stroke-linecap="butt" fill="rgb(0,0,255)" stroke-miterlimit="10.0" stroke-width="1.9999999999999998" fill-opacity="1.0" stroke-opacity="0.0" stroke-linejoin="miter" stroke="rgb(0,0,0)"><path d="M 303.2609,151.0870 c 0.0000,-1.2006 -0.9733,-2.1739 -2.1739 -2.1739c -1.2006,-0.0000 -2.1739,0.9733 -2.1739 2.1739c -0.0000,1.2006 0.9733,2.1739 2.1739 2.1739c 1.2006,0.0000 2.1739,-0.9733 2.1739 -2.1739Z"/></g><g stroke-linecap="butt" fill="rgb(0,0,255)" stroke-miterlimit="10.0" stroke-width="1.9999999999999998" fill-opacity="1.0" stroke-opacity="0.0" stroke-linejoin="miter" stroke="rgb(0,0,0)"><path d="M 121.7391,372.8261 c 0.0000,-1.2006 -0.9733,-2.1739 -2.1739 -2.1739c -1.2006,-0.0000 -2.1739,0.9733 -2.1739 2.1739c -0.0000,1.2006 0.9733,2.1739 2.1739 2.1739c 1.2006,0.0000 2.1739,-0.9733 2.1739 -2.1739Z"/></g><g stroke-linecap="butt" fill="rgb(0,0,255)" stroke-miterlimit="10.0" stroke-width="1.9999999999999998" fill-opacity="1.0" stroke-opacity="0.0" stroke-linejoin="miter" stroke="rgb(0,0,0)"><path d="M 453.2609,175.0000 c 0.0000,-1.2006 -0.9733,-2.1739 -2.1739 -2.1739c -1.2006,-0.0000 -2.1739,0.9733 -2.1739 2.1739c -0.0000,1.2006 0.9733,2.1739 2.1739 2.1739c 1.2006,0.0000 2.1739,-0.9733 2.1739 -2.1739Z"/></g><g stroke-linecap="butt" fill="rgb(0,0,255)" stroke-miterlimit="10.0" stroke-width="1.9999999999999998" fill-opacity="1.0" stroke-opacity="0.0" stroke-linejoin="miter" stroke="rgb(0,0,0)"><path d="M 441.3043,393.4783 c 0.0000,-1.2006 -0.9733,-2.1739 -2.1739 -2.1739c -1.2006,-0.0000 -2.1739,0.9733 -2.1739 2.1739c -0.0000,1.2006 0.9733,2.1739 2.1739 2.1739c 1.2006,0.0000 2.1739,-0.9733 2.1739 -2.1739Z"/></g><g stroke-linecap="butt" fill="rgb(0,0,255)" stroke-miterlimit="10.0" stroke-width="1.9999999999999998" fill-opacity="1.0" stroke-opacity="0.0" stroke-linejoin="miter" stroke="rgb(0,0,0)"><path d="M 195.6522,265.2174 c 0.0000,-1.2006 -0.9733,-2.1739 -2.1739 -2.1739c -1.2006,-0.0000 -2.1739,0.9733 -2.1739 2.1739c -0.0000,1.2006 0.9733,2.1739 2.1739 2.1739c 1.2006,0.0000 2.1739,-0.9733 2.1739 -2.1739Z"/></g><g stroke-linecap="butt" fill="rgb(0,0,255)" stroke-miterlimit="10.0" stroke-width="1.9999999999999998" fill-opacity="1.0" stroke-opacity="0.0" stroke-linejoin="miter" stroke="rgb(0,0,0)"><path d="M 105.4348,403.2609 c 0.0000,-1.2006 -0.9733,-2.1739 -2.1739 -2.1739c -1.2006,-0.0000 -2.1739,0.9733 -2.1739 2.1739c -0.0000,1.2006 0.9733,2.1739 2.1739 2.1739c 1.2006,0.0000 2.1739,-0.9733 2.1739 -2.1739Z"/></g><g stroke-linecap="butt" fill="rgb(0,0,255)" stroke-miterlimit="10.0" stroke-width="1.9999999999999998" fill-opacity="1.0" stroke-opacity="0.0" stroke-linejoin="miter" stroke="rgb(0,0,0)"><path d="M 397.8261,170.6522 c 0.0000,-1.2006 -0.9733,-2.1739 -2.1739 -2.1739c -1.2006,-0.0000 -2.1739,0.9733 -2.1739 2.1739c -0.0000,1.2006 0.9733,2.1739 2.1739 2.1739c 1.2006,0.0000 2.1739,-0.9733 2.1739 -2.1739Z"/></g><g stroke-linecap="butt" fill="rgb(0,0,255)" stroke-miterlimit="10.0" stroke-width="1.9999999999999998" fill-opacity="1.0" stroke-opacity="0.0" stroke-linejoin="miter" stroke="rgb(0,0,0)"><path d="M 215.2174,233.6957 c 0.0000,-1.2006 -0.9733,-2.1739 -2.1739 -2.1739c -1.2006,-0.0000 -2.1739,0.9733 -2.1739 2.1739c -0.0000,1.2006 0.9733,2.1739 2.1739 2.1739c 1.2006,0.0000 2.1739,-0.9733 2.1739 -2.1739Z"/></g><g stroke-linecap="butt" fill="rgb(0,0,255)" stroke-miterlimit="10.0" stroke-width="1.9999999999999998" fill-opacity="1.0" stroke-opacity="0.0" stroke-linejoin="miter" stroke="rgb(0,0,0)"><path d="M 200.0000,432.6087 c 0.0000,-1.2006 -0.9733,-2.1739 -2.1739 -2.1739c -1.2006,-0.0000 -2.1739,0.9733 -2.1739 2.1739c -0.0000,1.2006 0.9733,2.1739 2.1739 2.1739c 1.2006,0.0000 2.1739,-0.9733 2.1739 -2.1739Z"/></g><g stroke-linecap="butt" fill="rgb(0,0,255)" stroke-miterlimit="10.0" stroke-width="1.9999999999999998" fill-opacity="1.0" stroke-opacity="0.0" stroke-linejoin="miter" stroke="rgb(0,0,0)"><path d="M 267.3913,206.5217 c 0.0000,-1.2006 -0.9733,-2.1739 -2.1739 -2.1739c -1.2006,-0.0000 -2.1739,0.9733 -2.1739 2.1739c -0.0000,1.2006 0.9733,2.1739 2.1739 2.1739c 1.2006,0.0000 2.1739,-0.9733 2.1739 -2.1739Z"/></g><g stroke-linecap="butt" fill="rgb(0,0,255)" stroke-miterlimit="10.0" stroke-width="1.9999999999999998" fill-opacity="1.0" stroke-opacity="0.0" stroke-linejoin="miter" stroke="rgb(0,0,0)"><path d="M 134.7826,336.9565 c 0.0000,-1.2006 -0.9733,-2.1739 -2.1739 -2.1739c -1.2006,-0.0000 -2.1739,0.9733 -2.1739 2.1739c -0.0000,1.2006 0.9733,2.1739 2.1739 2.1739c 1.2006,0.0000 2.1739,-0.9733 2.1739 -2.1739Z"/></g><g stroke-linecap="butt" fill="rgb(0,0,255)" stroke-miterlimit="10.0" stroke-width="1.9999999999999998" fill-opacity="1.0" stroke-opacity="0.0" stroke-linejoin="miter" stroke="rgb(0,0,0)"><path d="M 209.7826,314.1304 c 0.0000,-1.2006 -0.9733,-2.1739 -2.1739 -2.1739c -1.2006,-0.0000 -2.1739,0.9733 -2.1739 2.1739c -0.0000,1.2006 0.9733,2.1739 2.1739 2.1739c 1.2006,0.0000 2.1739,-0.9733 2.1739 -2.1739Z"/></g><g stroke-linecap="butt" fill="rgb(0,0,255)" stroke-miterlimit="10.0" stroke-width="1.9999999999999998" fill-opacity="1.0" stroke-opacity="0.0" stroke-linejoin="miter" stroke="rgb(0,0,0)"><path d="M 430.4348,388.0435 c 0.0000,-1.2006 -0.9733,-2.1739 -2.1739 -2.1739c -1.2006,-0.0000 -2.1739,0.9733 -2.1739 2.1739c -0.0000,1.2006 0.9733,2.1739 2.1739 2.1739c 1.2006,0.0000 2.1739,-0.9733 2.1739 -2.1739Z"/></g><g stroke-linecap="butt" fill="rgb(0,0,255)" stroke-miterlimit="10.0" stroke-width="1.9999999999999998" fill-opacity="1.0" stroke-opacity="0.0" stroke-linejoin="miter" stroke="rgb(0,0,0)"><path d="M 163.0435,204.3478 c 0.0000,-1.2006 -0.9733,-2.1739 -2.1739 -2.1739c -1.2006,-0.0000 -2.1739,0.9733 -2.1739 2.1739c -0.0000,1.2006 0.9733,2.1739 2.1739 2.1739c 1.2006,0.0000 2.1739,-0.9733 2.1739 -2.1739Z"/></g><g stroke-linecap="butt" fill="rgb(0,0,255)" stroke-miterlimit="10.0" stroke-width="1.9999999999999998" fill-opacity="1.0" stroke-opacity="0.0" stroke-linejoin="miter" stroke="rgb(0,0,0)"><path d="M 355.4348,396.7391 c 0.0000,-1.2006 -0.9733,-2.1739 -2.1739 -2.1739c -1.2006,-0.0000 -2.1739,0.9733 -2.1739 2.1739c -0.0000,1.2006 0.9733,2.1739 2.1739 2.1739c 1.2006,0.0000 2.1739,-0.9733 2.1739 -2.1739Z"/></g><g stroke-linecap="butt" fill="rgb(0,0,255)" stroke-miterlimit="10.0" stroke-width="1.9999999999999998" fill-opacity="1.0" stroke-opacity="0.0" stroke-linejoin="miter" stroke="rgb(0,0,0)"><path d="M 247.8261,202.1739 c 0.0000,-1.2006 -0.9733,-2.1739 -2.1739 -2.1739c -1.2006,-0.0000 -2.1739,0.9733 -2.1739 2.1739c -0.0000,1.2006 0.9733,2.1739 2.1739 2.1739c 1.2006,0.0000 2.1739,-0.9733 2.1739 -2.1739Z"/></g><g stroke-linecap="butt" fill="rgb(0,0,255)" stroke-miterlimit="10.0" stroke-width="1.9999999999999998" fill-opacity="1.0" stroke-opacity="0.0" stroke-linejoin="miter" stroke="rgb(0,0,0)"><path d="M 250.0000,369.5652 c 0.0000,-1.2006 -0.9733,-2.1739 -2.1739 -2.1739c -1.2006,-0.0000 -2.1739,0.9733 -2.1739 2.1739c -0.0000,1.2006 0.9733,2.1739 2.1739 2.1739c 1.2006,0.0000 2.1739,-0.9733 2.1739 -2.1739Z"/></g><g stroke-linecap="butt" fill="rgb(0,0,255)" stroke-miterlimit="10.0" stroke-width="1.9999999999999998" fill-opacity="1.0" stroke-opacity="0.0" stroke-linejoin="miter" stroke="rgb(0,0,0)"><path d="M 201.0870,197.8261 c 0.0000,-1.2006 -0.9733,-2.1739 -2.1739 -2.1739c -1.2006,-0.0000 -2.1739,0.9733 -2.1739 2.1739c -0.0000,1.2006 0.9733,2.1739 2.1739 2.1739c 1.2006,0.0000 2.1739,-0.9733 2.1739 -2.1739Z"/></g><g stroke-linecap="butt" fill="rgb(0,0,255)" stroke-miterlimit="10.0" stroke-width="1.9999999999999998" fill-opacity="1.0" stroke-opacity="0.0" stroke-linejoin="miter" stroke="rgb(0,0,0)"><path d="M 393.4783,63.0435 c 0.0000,-1.2006 -0.9733,-2.1739 -2.1739 -2.1739c -1.2006,-0.0000 -2.1739,0.9733 -2.1739 2.1739c -0.0000,1.2006 0.9733,2.1739 2.1739 2.1739c 1.2006,0.0000 2.1739,-0.9733 2.1739 -2.1739Z"/></g><g stroke-linecap="butt" fill="rgb(0,0,255)" stroke-miterlimit="10.0" stroke-width="1.9999999999999998" fill-opacity="1.0" stroke-opacity="0.0" stroke-linejoin="miter" stroke="rgb(0,0,0)"><path d="M 351.0870,272.8261 c 0.0000,-1.2006 -0.9733,-2.1739 -2.1739 -2.1739c -1.2006,-0.0000 -2.1739,0.9733 -2.1739 2.1739c -0.0000,1.2006 0.9733,2.1739 2.1739 2.1739c 1.2006,0.0000 2.1739,-0.9733 2.1739 -2.1739Z"/></g><g stroke-linecap="butt" fill="rgb(0,0,255)" stroke-miterlimit="10.0" stroke-width="1.9999999999999998" fill-opacity="1.0" stroke-opacity="0.0" stroke-linejoin="miter" stroke="rgb(0,0,0)"><path d="M 268.4783,365.2174 c 0.0000,-1.2006 -0.9733,-2.1739 -2.1739 -2.1739c -1.2006,-0.0000 -2.1739,0.9733 -2.1739 2.1739c -0.0000,1.2006 0.9733,2.1739 2.1739 2.1739c 1.2006,0.0000 2.1739,-0.9733 2.1739 -2.1739Z"/></g><g stroke-linecap="butt" fill="rgb(0,0,255)" stroke-miterlimit="10.0" stroke-width="1.9999999999999998" fill-opacity="1.0" stroke-opacity="0.0" stroke-linejoin="miter" stroke="rgb(0,0,0)"><path d="M 108.6957,200.0000 c 0.0000,-1.2006 -0.9733,-2.1739 -2.1739 -2.1739c -1.2006,-0.0000 -2.1739,0.9733 -2.1739 2.1739c -0.0000,1.2006 0.9733,2.1739 2.1739 2.1739c 1.2006,0.0000 2.1739,-0.9733 2.1739 -2.1739Z"/></g><g stroke-linecap="butt" fill="rgb(0,0,255)" stroke-miterlimit="10.0" stroke-width="1.9999999999999998" fill-opacity="1.0" stroke-opacity="0.0" stroke-linejoin="miter" stroke="rgb(0,0,0)"><path d="M 398.9130,353.2609 c 0.0000,-1.2006 -0.9733,-2.1739 -2.1739 -2.1739c -1.2006,-0.0000 -2.1739,0.9733 -2.1739 2.1739c -0.0000,1.2006 0.9733,2.1739 2.1739 2.1739c 1.2006,0.0000 2.1739,-0.9733 2.1739 -2.1739Z"/></g><g stroke-linecap="butt" fill="rgb(0,0,255)" stroke-miterlimit="10.0" stroke-width="1.9999999999999998" fill-opacity="1.0" stroke-opacity="0.0" stroke-linejoin="miter" stroke="rgb(0,0,0)"><path d="M 177.1739,89.1304 c 0.0000,-1.2006 -0.9733,-2.1739 -2.1739 -2.1739c -1.2006,-0.0000 -2.1739,0.9733 -2.1739 2.1739c -0.0000,1.2006 0.9733,2.1739 2.1739 2.1739c 1.2006,0.0000 2.1739,-0.9733 2.1739 -2.1739Z"/></g><g stroke-linecap="butt" fill="rgb(0,0,255)" stroke-miterlimit="10.0" stroke-width="1.9999999999999998" fill-opacity="1.0" stroke-opacity="0.0" stroke-linejoin="miter" stroke="rgb(0,0,0)"><path d="M 98.9130,128.2609 c 0.0000,-1.2006 -0.9733,-2.1739 -2.1739 -2.1739c -1.2006,-0.0000 -2.1739,0.9733 -2.1739 2.1739c -0.0000,1.2006 0.9733,2.1739 2.1739 2.1739c 1.2006,0.0000 2.1739,-0.9733 2.1739 -2.1739Z"/></g><g stroke-linecap="butt" fill="rgb(0,0,255)" stroke-miterlimit="10.0" stroke-width="1.9999999999999998" fill-opacity="1.0" stroke-opacity="0.0" stroke-linejoin="miter" stroke="rgb(0,0,0)"><path d="M 92.3913,343.4783 c 0.0000,-1.2006 -0.9733,-2.1739 -2.1739 -2.1739c -1.2006,-0.0000 -2.1739,0.9733 -2.1739 2.1739c -0.0000,1.2006 0.9733,2.1739 2.1739 2.1739c 1.2006,0.0000 2.1739,-0.9733 2.1739 -2.1739Z"/></g><g stroke-linecap="butt" fill="rgb(0,0,255)" stroke-miterlimit="10.0" stroke-width="1.9999999999999998" fill-opacity="1.0" stroke-opacity="0.0" stroke-linejoin="miter" stroke="rgb(0,0,0)"><path d="M 253.2609,322.8261 c 0.0000,-1.2006 -0.9733,-2.1739 -2.1739 -2.1739c -1.2006,-0.0000 -2.1739,0.9733 -2.1739 2.1739c -0.0000,1.2006 0.9733,2.1739 2.1739 2.1739c 1.2006,0.0000 2.1739,-0.9733 2.1739 -2.1739Z"/></g><g stroke-linecap="butt" fill="rgb(0,0,255)" stroke-miterlimit="10.0" stroke-width="1.9999999999999998" fill-opacity="1.0" stroke-opacity="0.0" stroke-linejoin="miter" stroke="rgb(0,0,0)"><path d="M 134.7826,263.0435 c 0.0000,-1.2006 -0.9733,-2.1739 -2.1739 -2.1739c -1.2006,-0.0000 -2.1739,0.9733 -2.1739 2.1739c -0.0000,1.2006 0.9733,2.1739 2.1739 2.1739c 1.2006,0.0000 2.1739,-0.9733 2.1739 -2.1739Z"/></g><g stroke-linecap="butt" fill="rgb(0,0,255)" stroke-miterlimit="10.0" stroke-width="1.9999999999999998" fill-opacity="1.0" stroke-opacity="0.0" stroke-linejoin="miter" stroke="rgb(0,0,0)"><path d="M 182.6087,316.3043 c 0.0000,-1.2006 -0.9733,-2.1739 -2.1739 -2.1739c -1.2006,-0.0000 -2.1739,0.9733 -2.1739 2.1739c -0.0000,1.2006 0.9733,2.1739 2.1739 2.1739c 1.2006,0.0000 2.1739,-0.9733 2.1739 -2.1739Z"/></g><g stroke-linecap="butt" fill="rgb(0,0,255)" stroke-miterlimit="10.0" stroke-width="1.9999999999999998" fill-opacity="1.0" stroke-opacity="0.0" stroke-linejoin="miter" stroke="rgb(0,0,0)"><path d="M 115.2174,138.0435 c 0.0000,-1.2006 -0.9733,-2.1739 -2.1739 -2.1739c -1.2006,-0.0000 -2.1739,0.9733 -2.1739 2.1739c -0.0000,1.2006 0.9733,2.1739 2.1739 2.1739c 1.2006,0.0000 2.1739,-0.9733 2.1739 -2.1739Z"/></g><g stroke-linecap="butt" fill="rgb(0,0,255)" stroke-miterlimit="10.0" stroke-width="1.9999999999999998" fill-opacity="1.0" stroke-opacity="0.0" stroke-linejoin="miter" stroke="rgb(0,0,0)"><path d="M 248.9130,388.0435 c 0.0000,-1.2006 -0.9733,-2.1739 -2.1739 -2.1739c -1.2006,-0.0000 -2.1739,0.9733 -2.1739 2.1739c -0.0000,1.2006 0.9733,2.1739 2.1739 2.1739c 1.2006,0.0000 2.1739,-0.9733 2.1739 -2.1739Z"/></g><g stroke-linecap="butt" fill="rgb(0,0,255)" stroke-miterlimit="10.0" stroke-width="1.9999999999999998" fill-opacity="1.0" stroke-opacity="0.0" stroke-linejoin="miter" stroke="rgb(0,0,0)"><path d="M 264.1304,131.5217 c 0.0000,-1.2006 -0.9733,-2.1739 -2.1739 -2.1739c -1.2006,-0.0000 -2.1739,0.9733 -2.1739 2.1739c -0.0000,1.2006 0.9733,2.1739 2.1739 2.1739c 1.2006,0.0000 2.1739,-0.9733 2.1739 -2.1739Z"/></g><g stroke-linecap="butt" fill="rgb(0,0,255)" stroke-miterlimit="10.0" stroke-width="1.9999999999999998" fill-opacity="1.0" stroke-opacity="0.0" stroke-linejoin="miter" stroke="rgb(0,0,0)"><path d="M 417.3913,204.3478 c 0.0000,-1.2006 -0.9733,-2.1739 -2.1739 -2.1739c -1.2006,-0.0000 -2.1739,0.9733 -2.1739 2.1739c -0.0000,1.2006 0.9733,2.1739 2.1739 2.1739c 1.2006,0.0000 2.1739,-0.9733 2.1739 -2.1739Z"/></g><g stroke-linecap="butt" fill="rgb(0,0,255)" stroke-miterlimit="10.0" stroke-width="1.9999999999999998" fill-opacity="1.0" stroke-opacity="0.0" stroke-linejoin="miter" stroke="rgb(0,0,0)"><path d="M 209.7826,432.6087 c 0.0000,-1.2006 -0.9733,-2.1739 -2.1739 -2.1739c -1.2006,-0.0000 -2.1739,0.9733 -2.1739 2.1739c -0.0000,1.2006 0.9733,2.1739 2.1739 2.1739c 1.2006,0.0000 2.1739,-0.9733 2.1739 -2.1739Z"/></g><g stroke-linecap="butt" fill="rgb(0,0,255)" stroke-miterlimit="10.0" stroke-width="1.9999999999999998" fill-opacity="1.0" stroke-opacity="0.0" stroke-linejoin="miter" stroke="rgb(0,0,0)"><path d="M 214.1304,408.6957 c 0.0000,-1.2006 -0.9733,-2.1739 -2.1739 -2.1739c -1.2006,-0.0000 -2.1739,0.9733 -2.1739 2.1739c -0.0000,1.2006 0.9733,2.1739 2.1739 2.1739c 1.2006,0.0000 2.1739,-0.9733 2.1739 -2.1739Z"/></g><g stroke-linecap="butt" fill="rgb(0,0,255)" stroke-miterlimit="10.0" stroke-width="1.9999999999999998" fill-opacity="1.0" stroke-opacity="0.0" stroke-linejoin="miter" stroke="rgb(0,0,0)"><path d="M 430.4348,401.0870 c 0.0000,-1.2006 -0.9733,-2.1739 -2.1739 -2.1739c -1.2006,-0.0000 -2.1739,0.9733 -2.1739 2.1739c -0.0000,1.2006 0.9733,2.1739 2.1739 2.1739c 1.2006,0.0000 2.1739,-0.9733 2.1739 -2.1739Z"/></g><g stroke-linecap="butt" fill="rgb(0,0,255)" stroke-miterlimit="10.0" stroke-width="1.9999999999999998" fill-opacity="1.0" stroke-opacity="0.0" stroke-linejoin="miter" stroke="rgb(0,0,0)"><path d="M 302.1739,253.2609 c 0.0000,-1.2006 -0.9733,-2.1739 -2.1739 -2.1739c -1.2006,-0.0000 -2.1739,0.9733 -2.1739 2.1739c -0.0000,1.2006 0.9733,2.1739 2.1739 2.1739c 1.2006,0.0000 2.1739,-0.9733 2.1739 -2.1739Z"/></g><g stroke-linecap="butt" fill="rgb(0,0,255)" stroke-miterlimit="10.0" stroke-width="1.9999999999999998" fill-opacity="1.0" stroke-opacity="0.0" stroke-linejoin="miter" stroke="rgb(0,0,0)"><path d="M 270.6522,186.9565 c 0.0000,-1.2006 -0.9733,-2.1739 -2.1739 -2.1739c -1.2006,-0.0000 -2.1739,0.9733 -2.1739 2.1739c -0.0000,1.2006 0.9733,2.1739 2.1739 2.1739c 1.2006,0.0000 2.1739,-0.9733 2.1739 -2.1739Z"/></g><g stroke-linecap="butt" fill="rgb(0,0,255)" stroke-miterlimit="10.0" stroke-width="1.9999999999999998" fill-opacity="1.0" stroke-opacity="0.0" stroke-linejoin="miter" stroke="rgb(0,0,0)"><path d="M 104.3478,114.1304 c 0.0000,-1.2006 -0.9733,-2.1739 -2.1739 -2.1739c -1.2006,-0.0000 -2.1739,0.9733 -2.1739 2.1739c -0.0000,1.2006 0.9733,2.1739 2.1739 2.1739c 1.2006,0.0000 2.1739,-0.9733 2.1739 -2.1739Z"/></g><g stroke-linecap="butt" fill="rgb(0,0,255)" stroke-miterlimit="10.0" stroke-width="1.9999999999999998" fill-opacity="1.0" stroke-opacity="0.0" stroke-linejoin="miter" stroke="rgb(0,0,0)"><path d="M 176.0870,341.3043 c 0.0000,-1.2006 -0.9733,-2.1739 -2.1739 -2.1739c -1.2006,-0.0000 -2.1739,0.9733 -2.1739 2.1739c -0.0000,1.2006 0.9733,2.1739 2.1739 2.1739c 1.2006,0.0000 2.1739,-0.9733 2.1739 -2.1739Z"/></g><g stroke-linecap="butt" fill="rgb(0,0,255)" stroke-miterlimit="10.0" stroke-width="1.9999999999999998" fill-opacity="1.0" stroke-opacity="0.0" stroke-linejoin="miter" stroke="rgb(0,0,0)"><path d="M 389.1304,210.8696 c 0.0000,-1.2006 -0.9733,-2.1739 -2.1739 -2.1739c -1.2006,-0.0000 -2.1739,0.9733 -2.1739 2.1739c -0.0000,1.2006 0.9733,2.1739 2.1739 2.1739c 1.2006,0.0000 2.1739,-0.9733 2.1739 -2.1739Z"/></g><g stroke-linecap="butt" fill="rgb(0,0,255)" stroke-miterlimit="10.0" stroke-width="1.9999999999999998" fill-opacity="1.0" stroke-opacity="0.0" stroke-linejoin="miter" stroke="rgb(0,0,0)"><path d="M 250.0000,181.5217 c 0.0000,-1.2006 -0.9733,-2.1739 -2.1739 -2.1739c -1.2006,-0.0000 -2.1739,0.9733 -2.1739 2.1739c -0.0000,1.2006 0.9733,2.1739 2.1739 2.1739c 1.2006,0.0000 2.1739,-0.9733 2.1739 -2.1739Z"/></g><g stroke-linecap="butt" fill="rgb(0,0,255)" stroke-miterlimit="10.0" stroke-width="1.9999999999999998" fill-opacity="1.0" stroke-opacity="0.0" stroke-linejoin="miter" stroke="rgb(0,0,0)"><path d="M 94.5652,232.6087 c 0.0000,-1.2006 -0.9733,-2.1739 -2.1739 -2.1739c -1.2006,-0.0000 -2.1739,0.9733 -2.1739 2.1739c -0.0000,1.2006 0.9733,2.1739 2.1739 2.1739c 1.2006,0.0000 2.1739,-0.9733 2.1739 -2.1739Z"/></g><g stroke-linecap="butt" fill="rgb(0,0,255)" stroke-miterlimit="10.0" stroke-width="1.9999999999999998" fill-opacity="1.0" stroke-opacity="0.0" stroke-linejoin="miter" stroke="rgb(0,0,0)"><path d="M 446.7391,343.4783 c 0.0000,-1.2006 -0.9733,-2.1739 -2.1739 -2.1739c -1.2006,-0.0000 -2.1739,0.9733 -2.1739 2.1739c -0.0000,1.2006 0.9733,2.1739 2.1739 2.1739c 1.2006,0.0000 2.1739,-0.9733 2.1739 -2.1739Z"/></g><g stroke-linecap="butt" fill="rgb(0,0,255)" stroke-miterlimit="10.0" stroke-width="1.9999999999999998" fill-opacity="1.0" stroke-opacity="0.0" stroke-linejoin="miter" stroke="rgb(0,0,0)"><path d="M 304.3478,373.9130 c 0.0000,-1.2006 -0.9733,-2.1739 -2.1739 -2.1739c -1.2006,-0.0000 -2.1739,0.9733 -2.1739 2.1739c -0.0000,1.2006 0.9733,2.1739 2.1739 2.1739c 1.2006,0.0000 2.1739,-0.9733 2.1739 -2.1739Z"/></g><g stroke-linecap="butt" fill="rgb(0,0,255)" stroke-miterlimit="10.0" stroke-width="1.9999999999999998" fill-opacity="1.0" stroke-opacity="0.0" stroke-linejoin="miter" stroke="rgb(0,0,0)"><path d="M 216.3043,431.5217 c 0.0000,-1.2006 -0.9733,-2.1739 -2.1739 -2.1739c -1.2006,-0.0000 -2.1739,0.9733 -2.1739 2.1739c -0.0000,1.2006 0.9733,2.1739 2.1739 2.1739c 1.2006,0.0000 2.1739,-0.9733 2.1739 -2.1739Z"/></g><g stroke-linecap="butt" fill="rgb(0,0,255)" stroke-miterlimit="10.0" stroke-width="1.9999999999999998" fill-opacity="1.0" stroke-opacity="0.0" stroke-linejoin="miter" stroke="rgb(0,0,0)"><path d="M 264.1304,345.6522 c 0.0000,-1.2006 -0.9733,-2.1739 -2.1739 -2.1739c -1.2006,-0.0000 -2.1739,0.9733 -2.1739 2.1739c -0.0000,1.2006 0.9733,2.1739 2.1739 2.1739c 1.2006,0.0000 2.1739,-0.9733 2.1739 -2.1739Z"/></g><g stroke-linecap="butt" fill="rgb(0,0,255)" stroke-miterlimit="10.0" stroke-width="1.9999999999999998" fill-opacity="1.0" stroke-opacity="0.0" stroke-linejoin="miter" stroke="rgb(0,0,0)"><path d="M 321.7391,236.9565 c 0.0000,-1.2006 -0.9733,-2.1739 -2.1739 -2.1739c -1.2006,-0.0000 -2.1739,0.9733 -2.1739 2.1739c -0.0000,1.2006 0.9733,2.1739 2.1739 2.1739c 1.2006,0.0000 2.1739,-0.9733 2.1739 -2.1739Z"/></g><g stroke-linecap="butt" fill="rgb(0,0,255)" stroke-miterlimit="10.0" stroke-width="1.9999999999999998" fill-opacity="1.0" stroke-opacity="0.0" stroke-linejoin="miter" stroke="rgb(0,0,0)"><path d="M 185.8696,192.3913 c 0.0000,-1.2006 -0.9733,-2.1739 -2.1739 -2.1739c -1.2006,-0.0000 -2.1739,0.9733 -2.1739 2.1739c -0.0000,1.2006 0.9733,2.1739 2.1739 2.1739c 1.2006,0.0000 2.1739,-0.9733 2.1739 -2.1739Z"/></g><g stroke-linecap="butt" fill="rgb(0,0,255)" stroke-miterlimit="10.0" stroke-width="1.9999999999999998" fill-opacity="1.0" stroke-opacity="0.0" stroke-linejoin="miter" stroke="rgb(0,0,0)"><path d="M 363.0435,100.0000 c 0.0000,-1.2006 -0.9733,-2.1739 -2.1739 -2.1739c -1.2006,-0.0000 -2.1739,0.9733 -2.1739 2.1739c -0.0000,1.2006 0.9733,2.1739 2.1739 2.1739c 1.2006,0.0000 2.1739,-0.9733 2.1739 -2.1739Z"/></g><g stroke-linecap="butt" fill="rgb(0,0,255)" stroke-miterlimit="10.0" stroke-width="1.9999999999999998" fill-opacity="1.0" stroke-opacity="0.0" stroke-linejoin="miter" stroke="rgb(0,0,0)"><path d="M 164.1304,239.1304 c 0.0000,-1.2006 -0.9733,-2.1739 -2.1739 -2.1739c -1.2006,-0.0000 -2.1739,0.9733 -2.1739 2.1739c -0.0000,1.2006 0.9733,2.1739 2.1739 2.1739c 1.2006,0.0000 2.1739,-0.9733 2.1739 -2.1739Z"/></g><g stroke-linecap="butt" fill="rgb(0,0,255)" stroke-miterlimit="10.0" stroke-width="1.9999999999999998" fill-opacity="1.0" stroke-opacity="0.0" stroke-linejoin="miter" stroke="rgb(0,0,0)"><path d="M 307.6087,64.1304 c 0.0000,-1.2006 -0.9733,-2.1739 -2.1739 -2.1739c -1.2006,-0.0000 -2.1739,0.9733 -2.1739 2.1739c -0.0000,1.2006 0.9733,2.1739 2.1739 2.1739c 1.2006,0.0000 2.1739,-0.9733 2.1739 -2.1739Z"/></g><g stroke-linecap="butt" fill="rgb(0,0,255)" stroke-miterlimit="10.0" stroke-width="1.9999999999999998" fill-opacity="1.0" stroke-opacity="0.0" stroke-linejoin="miter" stroke="rgb(0,0,0)"><path d="M 352.1739,183.6957 c 0.0000,-1.2006 -0.9733,-2.1739 -2.1739 -2.1739c -1.2006,-0.0000 -2.1739,0.9733 -2.1739 2.1739c -0.0000,1.2006 0.9733,2.1739 2.1739 2.1739c 1.2006,0.0000 2.1739,-0.9733 2.1739 -2.1739Z"/></g><g stroke-linecap="butt" fill="rgb(0,0,255)" stroke-miterlimit="10.0" stroke-width="1.9999999999999998" fill-opacity="1.0" stroke-opacity="0.0" stroke-linejoin="miter" stroke="rgb(0,0,0)"><path d="M 188.0435,336.9565 c 0.0000,-1.2006 -0.9733,-2.1739 -2.1739 -2.1739c -1.2006,-0.0000 -2.1739,0.9733 -2.1739 2.1739c -0.0000,1.2006 0.9733,2.1739 2.1739 2.1739c 1.2006,0.0000 2.1739,-0.9733 2.1739 -2.1739Z"/></g><g stroke-linecap="butt" fill="rgb(0,0,255)" stroke-miterlimit="10.0" stroke-width="1.9999999999999998" fill-opacity="1.0" stroke-opacity="0.0" stroke-linejoin="miter" stroke="rgb(0,0,0)"><path d="M 86.9565,358.6957 c 0.0000,-1.2006 -0.9733,-2.1739 -2.1739 -2.1739c -1.2006,-0.0000 -2.1739,0.9733 -2.1739 2.1739c -0.0000,1.2006 0.9733,2.1739 2.1739 2.1739c 1.2006,0.0000 2.1739,-0.9733 2.1739 -2.1739Z"/></g><g stroke-linecap="butt" fill="rgb(0,0,255)" stroke-miterlimit="10.0" stroke-width="1.9999999999999998" fill-opacity="1.0" stroke-opacity="0.0" stroke-linejoin="miter" stroke="rgb(0,0,0)"><path d="M 166.3043,303.2609 c 0.0000,-1.2006 -0.9733,-2.1739 -2.1739 -2.1739c -1.2006,-0.0000 -2.1739,0.9733 -2.1739 2.1739c -0.0000,1.2006 0.9733,2.1739 2.1739 2.1739c 1.2006,0.0000 2.1739,-0.9733 2.1739 -2.1739Z"/></g><g stroke-linecap="butt" fill="rgb(0,0,255)" stroke-miterlimit="10.0" stroke-width="1.9999999999999998" fill-opacity="1.0" stroke-opacity="0.0" stroke-linejoin="miter" stroke="rgb(0,0,0)"><path d="M 373.9130,133.6957 c 0.0000,-1.2006 -0.9733,-2.1739 -2.1739 -2.1739c -1.2006,-0.0000 -2.1739,0.9733 -2.1739 2.1739c -0.0000,1.2006 0.9733,2.1739 2.1739 2.1739c 1.2006,0.0000 2.1739,-0.9733 2.1739 -2.1739Z"/></g><g stroke-linecap="butt" fill="rgb(0,0,255)" stroke-miterlimit="10.0" stroke-width="1.9999999999999998" fill-opacity="1.0" stroke-opacity="0.0" stroke-linejoin="miter" stroke="rgb(0,0,0)"><path d="M 269.5652,330.4348 c 0.0000,-1.2006 -0.9733,-2.1739 -2.1739 -2.1739c -1.2006,-0.0000 -2.1739,0.9733 -2.1739 2.1739c -0.0000,1.2006 0.9733,2.1739 2.1739 2.1739c 1.2006,0.0000 2.1739,-0.9733 2.1739 -2.1739Z"/></g><g stroke-linecap="butt" fill="rgb(0,0,255)" stroke-miterlimit="10.0" stroke-width="1.9999999999999998" fill-opacity="1.0" stroke-opacity="0.0" stroke-linejoin="miter" stroke="rgb(0,0,0)"><path d="M 203.2609,391.3043 c 0.0000,-1.2006 -0.9733,-2.1739 -2.1739 -2.1739c -1.2006,-0.0000 -2.1739,0.9733 -2.1739 2.1739c -0.0000,1.2006 0.9733,2.1739 2.1739 2.1739c 1.2006,0.0000 2.1739,-0.9733 2.1739 -2.1739Z"/></g><g stroke-linecap="butt" fill="rgb(0,0,255)" stroke-miterlimit="10.0" stroke-width="1.9999999999999998" fill-opacity="1.0" stroke-opacity="0.0" stroke-linejoin="miter" stroke="rgb(0,0,0)"><path d="M 186.9565,294.5652 c 0.0000,-1.2006 -0.9733,-2.1739 -2.1739 -2.1739c -1.2006,-0.0000 -2.1739,0.9733 -2.1739 2.1739c -0.0000,1.2006 0.9733,2.1739 2.1739 2.1739c 1.2006,0.0000 2.1739,-0.9733 2.1739 -2.1739Z"/></g><g stroke-linecap="butt" fill="rgb(0,0,255)" stroke-miterlimit="10.0" stroke-width="1.9999999999999998" fill-opacity="1.0" stroke-opacity="0.0" stroke-linejoin="miter" stroke="rgb(0,0,0)"><path d="M 123.9130,338.0435 c 0.0000,-1.2006 -0.9733,-2.1739 -2.1739 -2.1739c -1.2006,-0.0000 -2.1739,0.9733 -2.1739 2.1739c -0.0000,1.2006 0.9733,2.1739 2.1739 2.1739c 1.2006,0.0000 2.1739,-0.9733 2.1739 -2.1739Z"/></g><g stroke-linecap="butt" fill="rgb(0,0,255)" stroke-miterlimit="10.0" stroke-width="1.9999999999999998" fill-opacity="1.0" stroke-opacity="0.0" stroke-linejoin="miter" stroke="rgb(0,0,0)"><path d="M 435.8696,104.3478 c 0.0000,-1.2006 -0.9733,-2.1739 -2.1739 -2.1739c -1.2006,-0.0000 -2.1739,0.9733 -2.1739 2.1739c -0.0000,1.2006 0.9733,2.1739 2.1739 2.1739c 1.2006,0.0000 2.1739,-0.9733 2.1739 -2.1739Z"/></g><g stroke-linecap="butt" fill="rgb(0,0,255)" stroke-miterlimit="10.0" stroke-width="1.9999999999999998" fill-opacity="1.0" stroke-opacity="0.0" stroke-linejoin="miter" stroke="rgb(0,0,0)"><path d="M 343.4783,116.3043 c 0.0000,-1.2006 -0.9733,-2.1739 -2.1739 -2.1739c -1.2006,-0.0000 -2.1739,0.9733 -2.1739 2.1739c -0.0000,1.2006 0.9733,2.1739 2.1739 2.1739c 1.2006,0.0000 2.1739,-0.9733 2.1739 -2.1739Z"/></g><g stroke-linecap="butt" fill="rgb(0,0,255)" stroke-miterlimit="10.0" stroke-width="1.9999999999999998" fill-opacity="1.0" stroke-opacity="0.0" stroke-linejoin="miter" stroke="rgb(0,0,0)"><path d="M 404.3478,241.3043 c 0.0000,-1.2006 -0.9733,-2.1739 -2.1739 -2.1739c -1.2006,-0.0000 -2.1739,0.9733 -2.1739 2.1739c -0.0000,1.2006 0.9733,2.1739 2.1739 2.1739c 1.2006,0.0000 2.1739,-0.9733 2.1739 -2.1739Z"/></g><g stroke-linecap="butt" fill="rgb(0,0,255)" stroke-miterlimit="10.0" stroke-width="1.9999999999999998" fill-opacity="1.0" stroke-opacity="0.0" stroke-linejoin="miter" stroke="rgb(0,0,0)"><path d="M 161.9565,121.7391 c 0.0000,-1.2006 -0.9733,-2.1739 -2.1739 -2.1739c -1.2006,-0.0000 -2.1739,0.9733 -2.1739 2.1739c -0.0000,1.2006 0.9733,2.1739 2.1739 2.1739c 1.2006,0.0000 2.1739,-0.9733 2.1739 -2.1739Z"/></g><g stroke-linecap="butt" fill="rgb(0,0,255)" stroke-miterlimit="10.0" stroke-width="1.9999999999999998" fill-opacity="1.0" stroke-opacity="0.0" stroke-linejoin="miter" stroke="rgb(0,0,0)"><path d="M 356.5217,266.3043 c 0.0000,-1.2006 -0.9733,-2.1739 -2.1739 -2.1739c -1.2006,-0.0000 -2.1739,0.9733 -2.1739 2.1739c -0.0000,1.2006 0.9733,2.1739 2.1739 2.1739c 1.2006,0.0000 2.1739,-0.9733 2.1739 -2.1739Z"/></g><g stroke-linecap="butt" fill="rgb(0,0,255)" stroke-miterlimit="10.0" stroke-width="1.9999999999999998" fill-opacity="1.0" stroke-opacity="0.0" stroke-linejoin="miter" stroke="rgb(0,0,0)"><path d="M 111.9565,304.3478 c 0.0000,-1.2006 -0.9733,-2.1739 -2.1739 -2.1739c -1.2006,-0.0000 -2.1739,0.9733 -2.1739 2.1739c -0.0000,1.2006 0.9733,2.1739 2.1739 2.1739c 1.2006,0.0000 2.1739,-0.9733 2.1739 -2.1739Z"/></g><g stroke-linecap="butt" fill="rgb(0,0,255)" stroke-miterlimit="10.0" stroke-width="1.9999999999999998" fill-opacity="1.0" stroke-opacity="0.0" stroke-linejoin="miter" stroke="rgb(0,0,0)"><path d="M 313.0435,316.3043 c 0.0000,-1.2006 -0.9733,-2.1739 -2.1739 -2.1739c -1.2006,-0.0000 -2.1739,0.9733 -2.1739 2.1739c -0.0000,1.2006 0.9733,2.1739 2.1739 2.1739c 1.2006,0.0000 2.1739,-0.9733 2.1739 -2.1739Z"/></g><g stroke-linecap="butt" fill="rgb(0,0,255)" stroke-miterlimit="10.0" stroke-width="1.9999999999999998" fill-opacity="1.0" stroke-opacity="0.0" stroke-linejoin="miter" stroke="rgb(0,0,0)"><path d="M 205.4348,123.9130 c 0.0000,-1.2006 -0.9733,-2.1739 -2.1739 -2.1739c -1.2006,-0.0000 -2.1739,0.9733 -2.1739 2.1739c -0.0000,1.2006 0.9733,2.1739 2.1739 2.1739c 1.2006,0.0000 2.1739,-0.9733 2.1739 -2.1739Z"/></g></svg>