<?xml version="1.0" encoding="UTF-8"?>
<!DOCTYPE svg PUBLIC "-//W3C//DTD SVG 1.1//EN"
    "http://www.w3.org/Graphics/SVG/1.1/DTD/svg11.dtd"><svg xmlns="http://www.w3.org/2000/svg" viewBox="0.0 0.0 300.0 231.36446886446885" height="231.3645" font-size="1" stroke-opacity="1" width="300.0000" xmlns:xlink="http://www.w3.org/1999/xlink" stroke="rgb(0,0,0)" version="1.1"><defs></defs><g stroke-linecap="butt" fill="rgb(0,0,0)" stroke-miterlimit="10.0" stroke-width="1.0538261007156022" fill-opacity="0.0" stroke-opacity="1.0" stroke-linejoin="miter" stroke="rgb(0,0,0)"><path d="M -0.0000,208.4707 h 196.8230 "/></g><g stroke-linecap="butt" fill="rgb(0,0,0)" stroke-miterlimit="10.0" stroke-width="0.0" fill-opacity="1.0" stroke-opacity="1.0" stroke-linejoin="miter" stroke="rgb(0,0,0)"></g><g stroke-linecap="butt" fill="rgb(0,0,0)" stroke-miterlimit="10.0" stroke-width="0.0" fill-opacity="1.0" stroke-opacity="1.0" stroke-linejoin="miter" stroke="rgb(0,0,0)"></g><g stroke-linecap="butt" fill="rgb(0,0,0)" stroke-miterlimit="10.0" stroke-width="0.0" fill-opacity="1.0" stroke-opacity="1.0" stroke-linejoin="miter" stroke="rgb(0,0,0)"><path d="M 206.0440,208.4707 l -10.7865,-3.5048 l 1.8426,3.5048 l -1.8426,3.5048 Z"/></g><g stroke-linecap="butt" fill="rgb(0,0,0)" stroke-miterlimit="10.0" stroke-width="0.0" fill-opacity="1.0" stroke-opacity="1.0" stroke-linejoin="miter" stroke="rgb(0,0,0)"><path d="M 197.1000,208.4707 h -0.2770 v -0.5269 l 0.2770,0.5269 h -0.2770 v 0.5269 Z"/></g><g stroke-linecap="butt" fill="rgb(0,0,0)" stroke-miterlimit="10.0" stroke-width="1.0538261007156022" fill-opacity="0.0" stroke-opacity="1.0" stroke-linejoin="miter" stroke="rgb(0,0,0)"><path d="M 22.8938,231.3645 l 0.0000,-196.8230 "/></g><g stroke-linecap="butt" fill="rgb(0,0,0)" stroke-miterlimit="10.0" stroke-width="0.0" fill-opacity="1.0" stroke-opacity="1.0" stroke-linejoin="miter" stroke="rgb(0,0,0)"></g><g stroke-linecap="butt" fill="rgb(0,0,0)" stroke-miterlimit="10.0" stroke-width="0.0" fill-opacity="1.0" stroke-opacity="1.0" stroke-linejoin="miter" stroke="rgb(0,0,0)"></g><g stroke-linecap="butt" fill="rgb(0,0,0)" stroke-miterlimit="10.0" stroke-width="0.0" fill-opacity="1.0" stroke-opacity="1.0" stroke-linejoin="miter" stroke="rgb(0,0,0)"><path d="M 22.8938,25.3205 l -3.5048,10.7865 l 3.5048,-1.8426 l 3.5048,1.8426 Z"/></g><g stroke-linecap="butt" fill="rgb(0,0,0)" stroke-miterlimit="10.0" stroke-width="0.0" fill-opacity="1.0" stroke-opacity="1.0" stroke-linejoin="miter" stroke="rgb(0,0,0)"><path d="M 22.8938,34.2645 l -0.0000,0.2770 l -0.5269,-0.0000 l 0.5269,-0.2770 l -0.0000,0.2770 l 0.5269,0.0000 Z"/></g><g stroke-linecap="butt" fill="rgb(255,0,0)" stroke-miterlimit="10.0" stroke-width="1.0538261007156022" fill-opacity="1.0" stroke-opacity="1.0" stroke-linejoin="miter" stroke="rgb(0,0,0)"><path d="M 66.6209,153.3883 c 0.0000,-1.2644 -1.0250,-2.2894 -2.2894 -2.2894c -1.2644,-0.0000 -2.2894,1.0250 -2.2894 2.2894c -0.0000,1.2644 1.0250,2.2894 2.2894 2.2894c 1.2644,0.0000 2.2894,-1.0250 2.2894 -2.2894Z"/></g><g stroke-linecap="butt" fill="rgb(255,0,0)" stroke-miterlimit="10.0" stroke-width="1.0538261007156022" fill-opacity="1.0" stroke-opacity="1.0" stroke-linejoin="miter" stroke="rgb(0,0,0)"><path d="M 75.8700,185.4853 c 0.0000,-1.2644 -1.0250,-2.2894 -2.2894 -2.2894c -1.2644,-0.0000 -2.2894,1.0250 -2.2894 2.2894c -0.0000,1.2644 1.0250,2.2894 2.2894 2.2894c 1.2644,0.0000 2.2894,-1.0250 2.2894 -2.2894Z"/></g><g stroke-linecap="butt" fill="rgb(255,0,0)" stroke-miterlimit="10.0" stroke-width="1.0538261007156022" fill-opacity="1.0" stroke-opacity="1.0" stroke-linejoin="miter" stroke="rgb(0,0,0)"><path d="M 93.9103,185.1648 c 0.0000,-1.2644 -1.0250,-2.2894 -2.2894 -2.2894c -1.2644,-0.0000 -2.2894,1.0250 -2.2894 2.2894c -0.0000,1.2644 1.0250,2.2894 2.2894 2.2894c 1.2644,0.0000 2.2894,-1.0250 2.2894 -2.2894Z"/></g><g stroke-linecap="butt" fill="rgb(255,0,0)" stroke-miterlimit="10.0" stroke-width="1.0538261007156022" fill-opacity="1.0" stroke-opacity="1.0" stroke-linejoin="miter" stroke="rgb(0,0,0)"><path d="M 135.2106,176.3736 c 0.0000,-1.2644 -1.0250,-2.2894 -2.2894 -2.2894c -1.2644,-0.0000 -2.2894,1.0250 -2.2894 2.2894c -0.0000,1.2644 1.0250,2.2894 2.2894 2.2894c 1.2644,0.0000 2.2894,-1.0250 2.2894 -2.2894Z"/></g><g stroke-linecap="butt" fill="rgb(255,0,0)" stroke-miterlimit="10.0" stroke-width="1.0538261007156022" fill-opacity="1.0" stroke-opacity="1.0" stroke-linejoin="miter" stroke="rgb(0,0,0)"><path d="M 254.1667,93.8645 c 0.0000,-1.2644 -1.0250,-2.2894 -2.2894 -2.2894c -1.2644,-0.0000 -2.2894,1.0250 -2.2894 2.2894c -0.0000,1.2644 1.0250,2.2894 2.2894 2.2894c 1.2644,0.0000 2.2894,-1.0250 2.2894 -2.2894Z"/></g><g stroke-linecap="butt" fill="rgb(255,0,0)" stroke-miterlimit="10.0" stroke-width="1.0538261007156022" fill-opacity="1.0" stroke-opacity="1.0" stroke-linejoin="miter" stroke="rgb(0,0,0)"><path d="M 194.6429,2.2894 c 0.0000,-1.2644 -1.0250,-2.2894 -2.2894 -2.2894c -1.2644,-0.0000 -2.2894,1.0250 -2.2894 2.2894c -0.0000,1.2644 1.0250,2.2894 2.2894 2.2894c 1.2644,0.0000 2.2894,-1.0250 2.2894 -2.2894Z"/></g><g stroke-linecap="butt" fill="rgb(255,0,0)" stroke-miterlimit="10.0" stroke-width="1.0538261007156022" fill-opacity="1.0" stroke-opacity="1.0" stroke-linejoin="miter" stroke="rgb(0,0,0)"><path d="M 167.3535,25.2289 c 0.0000,-1.2644 -1.0250,-2.2894 -2.2894 -2.2894c -1.2644,-0.0000 -2.2894,1.0250 -2.2894 2.2894c -0.0000,1.2644 1.0250,2.2894 2.2894 2.2894c 1.2644,0.0000 2.2894,-1.0250 2.2894 -2.2894Z"/></g><g stroke-linecap="butt" fill="rgb(255,0,0)" stroke-miterlimit="10.0" stroke-width="1.0538261007156022" fill-opacity="1.0" stroke-opacity="1.0" stroke-linejoin="miter" stroke="rgb(0,0,0)"><path d="M 300.0000,48.1685 c 0.0000,-1.2644 -1.0250,-2.2894 -2.2894 -2.2894c -1.2644,-0.0000 -2.2894,1.0250 -2.2894 2.2894c -0.0000,1.2644 1.0250,2.2894 2.2894 2.2894c 1.2644,0.0000 2.2894,-1.0250 2.2894 -2.2894Z"/></g><g stroke-linecap="butt" fill="rgb(255,0,0)" stroke-miterlimit="10.0" stroke-width="1.0538261007156022" fill-opacity="1.0" stroke-opacity="1.0" stroke-linejoin="miter" stroke="rgb(0,0,0)"><path d="M 61.9505,116.6667 c 0.0000,-1.2644 -1.0250,-2.2894 -2.2894 -2.2894c -1.2644,-0.0000 -2.2894,1.0250 -2.2894 2.2894c -0.0000,1.2644 1.0250,2.2894 2.2894 2.2894c 1.2644,0.0000 2.2894,-1.0250 2.2894 -2.2894Z"/></g><g stroke-linecap="butt" fill="rgb(0,0,255)" stroke-miterlimit="10.0" stroke-width="1.0538261007156022" fill-opacity="1.0" stroke-opacity="1.0" stroke-linejoin="miter" stroke="rgb(0,0,0)"><path d="M 217.5366,116.5293 c 0.0000,-1.2644 -1.0250,-2.2894 -2.2894 -2.2894c -1.2644,-0.0000 -2.2894,1.0250 -2.2894 2.2894c -0.0000,1.2644 1.0250,2.2894 2.2894 2.2894c 1.2644,0.0000 2.2894,-1.0250 2.2894 -2.2894Z"/></g><g stroke-linecap="butt" fill="rgb(0,0,255)" stroke-miterlimit="10.0" stroke-width="1.0538261007156022" fill-opacity="1.0" stroke-opacity="1.0" stroke-linejoin="miter" stroke="rgb(0,0,0)"><path d="M 84.7985,139.5147 c 0.0000,-1.2644 -1.0250,-2.2894 -2.2894 -2.2894c -1.2644,-0.0000 -2.2894,1.0250 -2.2894 2.2894c -0.0000,1.2644 1.0250,2.2894 2.2894 2.2894c 1.2644,0.0000 2.2894,-1.0250 2.2894 -2.2894Z"/></g><g stroke-linecap="butt" fill="rgb(0,0,255)" stroke-miterlimit="10.0" stroke-width="1.0538261007156022" fill-opacity="1.0" stroke-opacity="1.0" stroke-linejoin="miter" stroke="rgb(0,0,0)"><path d="M 194.8718,125.9158 c 0.0000,-1.2644 -1.0250,-2.2894 -2.2894 -2.2894c -1.2644,-0.0000 -2.2894,1.0250 -2.2894 2.2894c -0.0000,1.2644 1.0250,2.2894 2.2894 2.2894c 1.2644,0.0000 2.2894,-1.0250 2.2894 -2.2894Z"/></g><g stroke-linecap="butt" fill="rgb(0,0,255)" stroke-miterlimit="10.0" stroke-width="1.0538261007156022" fill-opacity="1.0" stroke-opacity="1.0" stroke-linejoin="miter" stroke="rgb(0,0,0)"><path d="M 139.8352,61.6300 c 0.0000,-1.2644 -1.0250,-2.2894 -2.2894 -2.2894c -1.2644,-0.0000 -2.2894,1.0250 -2.2894 2.2894c -0.0000,1.2644 1.0250,2.2894 2.2894 2.2894c 1.2644,0.0000 2.2894,-1.0250 2.2894 -2.2894Z"/></g><g stroke-linecap="butt" fill="rgb(0,0,255)" stroke-miterlimit="10.0" stroke-width="1.0538261007156022" fill-opacity="1.0" stroke-opacity="1.0" stroke-linejoin="miter" stroke="rgb(0,0,0)"><path d="M 108.0128,167.0330 c 0.0000,-1.2644 -1.0250,-2.2894 -2.2894 -2.2894c -1.2644,-0.0000 -2.2894,1.0250 -2.2894 2.2894c -0.0000,1.2644 1.0250,2.2894 2.2894 2.2894c 1.2644,0.0000 2.2894,-1.0250 2.2894 -2.2894Z"/></g><g stroke-linecap="butt" fill="rgb(0,0,255)" stroke-miterlimit="10.0" stroke-width="1.0538261007156022" fill-opacity="1.0" stroke-opacity="1.0" stroke-linejoin="miter" stroke="rgb(0,0,0)"><path d="M 231.5934,84.6612 c 0.0000,-1.2644 -1.0250,-2.2894 -2.2894 -2.2894c -1.2644,-0.0000 -2.2894,1.0250 -2.2894 2.2894c -0.0000,1.2644 1.0250,2.2894 2.2894 2.2894c 1.2644,0.0000 2.2894,-1.0250 2.2894 -2.2894Z"/></g><g stroke-linecap="butt" fill="rgb(0,0,255)" stroke-miterlimit="10.0" stroke-width="1.0538261007156022" fill-opacity="1.0" stroke-opacity="1.0" stroke-linejoin="miter" stroke="rgb(0,0,0)"><path d="M 89.6978,180.6777 c 0.0000,-1.2644 -1.0250,-2.2894 -2.2894 -2.2894c -1.2644,-0.0000 -2.2894,1.0250 -2.2894 2.2894c -0.0000,1.2644 1.0250,2.2894 2.2894 2.2894c 1.2644,0.0000 2.2894,-1.0250 2.2894 -2.2894Z"/></g><g stroke-linecap="butt" fill="rgb(0,0,255)" stroke-miterlimit="10.0" stroke-width="1.0538261007156022" fill-opacity="1.0" stroke-opacity="1.0" stroke-linejoin="miter" stroke="rgb(0,0,0)"><path d="M 139.7436,153.1593 c 0.0000,-1.2644 -1.0250,-2.2894 -2.2894 -2.2894c -1.2644,-0.0000 -2.2894,1.0250 -2.2894 2.2894c -0.0000,1.2644 1.0250,2.2894 2.2894 2.2894c 1.2644,0.0000 2.2894,-1.0250 2.2894 -2.2894Z"/></g><g stroke-linecap="butt" fill="rgb(0,0,255)" stroke-miterlimit="10.0" stroke-width="1.0538261007156022" fill-opacity="1.0" stroke-opacity="1.0" stroke-linejoin="miter" stroke="rgb(0,0,0)"><path d="M 171.8864,125.7784 c 0.0000,-1.2644 -1.0250,-2.2894 -2.2894 -2.2894c -1.2644,-0.0000 -2.2894,1.0250 -2.2894 2.2894c -0.0000,1.2644 1.0250,2.2894 2.2894 2.2894c 1.2644,0.0000 2.2894,-1.0250 2.2894 -2.2894Z"/></g><g stroke-linecap="butt" fill="rgb(0,0,255)" stroke-miterlimit="10.0" stroke-width="1.0538261007156022" fill-opacity="1.0" stroke-opacity="1.0" stroke-linejoin="miter" stroke="rgb(0,0,0)"><path d="M 208.6538,71.0165 c 0.0000,-1.2644 -1.0250,-2.2894 -2.2894 -2.2894c -1.2644,-0.0000 -2.2894,1.0250 -2.2894 2.2894c -0.0000,1.2644 1.0250,2.2894 2.2894 2.2894c 1.2644,0.0000 2.2894,-1.0250 2.2894 -2.2894Z"/></g><g stroke-linecap="butt" fill="rgb(0,0,255)" stroke-miterlimit="10.0" stroke-width="1.0538261007156022" fill-opacity="1.0" stroke-opacity="1.0" stroke-linejoin="miter" stroke="rgb(0,0,0)"><path d="M 121.7033,66.3462 c 0.0000,-1.2644 -1.0250,-2.2894 -2.2894 -2.2894c -1.2644,-0.0000 -2.2894,1.0250 -2.2894 2.2894c -0.0000,1.2644 1.0250,2.2894 2.2894 2.2894c 1.2644,0.0000 2.2894,-1.0250 2.2894 -2.2894Z"/></g></svg>